M48
;DRILL file {KiCad 4.0.7} date 01/27/18 18:52:59
;FORMAT={2:4/ absolute / inch / suppress leading zeros}
FMAT,2
INCH,TZ
T1C0.030
T2C0.039
T3C0.126
%
G90
G05
M72
T1
X55106Y-35827
X55106Y-45827
X56106Y-35827
X56106Y-45827
X57106Y-35827
X58106Y-35827
X59106Y-35827
X60106Y-35827
X61106Y-35827
X62106Y-35827
X63106Y-35827
X63106Y-45827
X64106Y-35827
X64106Y-45827
T2
X55100Y-38950
X56100Y-38950
X57100Y-38950
X58100Y-38950
X59100Y-38950
X60100Y-38950
X61100Y-38950
X62100Y-38950
X63100Y-38950
X64100Y-38950
T3
X53937Y-41339
X65354Y-41339
T0
M30
