G04 #@! TF.FileFunction,Legend,Bot*
%FSLAX46Y46*%
G04 Gerber Fmt 4.6, Leading zero omitted, Abs format (unit mm)*
G04 Created by KiCad (PCBNEW 4.0.7) date 10/30/17 19:48:02*
%MOMM*%
%LPD*%
G01*
G04 APERTURE LIST*
%ADD10C,0.076200*%
%ADD11C,0.127000*%
%ADD12C,0.010000*%
%ADD13C,0.100000*%
%ADD14C,0.120000*%
G04 APERTURE END LIST*
D10*
D11*
X156600071Y-107451071D02*
X156346071Y-107451071D01*
X156237214Y-107850214D02*
X156600071Y-107850214D01*
X156600071Y-107088214D01*
X156237214Y-107088214D01*
X155946928Y-107632500D02*
X155584071Y-107632500D01*
X156019500Y-107850214D02*
X155765500Y-107088214D01*
X155511500Y-107850214D01*
X154676928Y-107850214D02*
X154676928Y-107088214D01*
X154495500Y-107088214D01*
X154386643Y-107124500D01*
X154314071Y-107197071D01*
X154277786Y-107269643D01*
X154241500Y-107414786D01*
X154241500Y-107523643D01*
X154277786Y-107668786D01*
X154314071Y-107741357D01*
X154386643Y-107813929D01*
X154495500Y-107850214D01*
X154676928Y-107850214D01*
X153769786Y-107088214D02*
X153624643Y-107088214D01*
X153552071Y-107124500D01*
X153479500Y-107197071D01*
X153443214Y-107342214D01*
X153443214Y-107596214D01*
X153479500Y-107741357D01*
X153552071Y-107813929D01*
X153624643Y-107850214D01*
X153769786Y-107850214D01*
X153842357Y-107813929D01*
X153914928Y-107741357D01*
X153951214Y-107596214D01*
X153951214Y-107342214D01*
X153914928Y-107197071D01*
X153842357Y-107124500D01*
X153769786Y-107088214D01*
X152717500Y-107124500D02*
X152790071Y-107088214D01*
X152898928Y-107088214D01*
X153007785Y-107124500D01*
X153080357Y-107197071D01*
X153116642Y-107269643D01*
X153152928Y-107414786D01*
X153152928Y-107523643D01*
X153116642Y-107668786D01*
X153080357Y-107741357D01*
X153007785Y-107813929D01*
X152898928Y-107850214D01*
X152826357Y-107850214D01*
X152717500Y-107813929D01*
X152681214Y-107777643D01*
X152681214Y-107523643D01*
X152826357Y-107523643D01*
X152390928Y-107813929D02*
X152282071Y-107850214D01*
X152100642Y-107850214D01*
X152028071Y-107813929D01*
X151991785Y-107777643D01*
X151955500Y-107705071D01*
X151955500Y-107632500D01*
X151991785Y-107559929D01*
X152028071Y-107523643D01*
X152100642Y-107487357D01*
X152245785Y-107451071D01*
X152318357Y-107414786D01*
X152354642Y-107378500D01*
X152390928Y-107305929D01*
X152390928Y-107233357D01*
X152354642Y-107160786D01*
X152318357Y-107124500D01*
X152245785Y-107088214D01*
X152064357Y-107088214D01*
X151955500Y-107124500D01*
X151229786Y-107850214D02*
X151665214Y-107850214D01*
X151447500Y-107850214D02*
X151447500Y-107088214D01*
X151520071Y-107197071D01*
X151592643Y-107269643D01*
X151665214Y-107305929D01*
X150758072Y-107088214D02*
X150685500Y-107088214D01*
X150612929Y-107124500D01*
X150576643Y-107160786D01*
X150540357Y-107233357D01*
X150504072Y-107378500D01*
X150504072Y-107559929D01*
X150540357Y-107705071D01*
X150576643Y-107777643D01*
X150612929Y-107813929D01*
X150685500Y-107850214D01*
X150758072Y-107850214D01*
X150830643Y-107813929D01*
X150866929Y-107777643D01*
X150903214Y-107705071D01*
X150939500Y-107559929D01*
X150939500Y-107378500D01*
X150903214Y-107233357D01*
X150866929Y-107160786D01*
X150830643Y-107124500D01*
X150758072Y-107088214D01*
X149850929Y-107342214D02*
X149850929Y-107850214D01*
X150032358Y-107051929D02*
X150213786Y-107596214D01*
X149742072Y-107596214D01*
X149524358Y-107850214D02*
X149125215Y-107342214D01*
X149524358Y-107342214D02*
X149125215Y-107850214D01*
X148834929Y-107559929D02*
X148254358Y-107559929D01*
X147927786Y-107632500D02*
X147564929Y-107632500D01*
X148000358Y-107850214D02*
X147746358Y-107088214D01*
X147492358Y-107850214D01*
X156636357Y-109083929D02*
X156527500Y-109120214D01*
X156346071Y-109120214D01*
X156273500Y-109083929D01*
X156237214Y-109047643D01*
X156200929Y-108975071D01*
X156200929Y-108902500D01*
X156237214Y-108829929D01*
X156273500Y-108793643D01*
X156346071Y-108757357D01*
X156491214Y-108721071D01*
X156563786Y-108684786D01*
X156600071Y-108648500D01*
X156636357Y-108575929D01*
X156636357Y-108503357D01*
X156600071Y-108430786D01*
X156563786Y-108394500D01*
X156491214Y-108358214D01*
X156309786Y-108358214D01*
X156200929Y-108394500D01*
X155874357Y-109120214D02*
X155874357Y-108358214D01*
X155584072Y-108358214D01*
X155511500Y-108394500D01*
X155475215Y-108430786D01*
X155438929Y-108503357D01*
X155438929Y-108612214D01*
X155475215Y-108684786D01*
X155511500Y-108721071D01*
X155584072Y-108757357D01*
X155874357Y-108757357D01*
X155112357Y-109120214D02*
X155112357Y-108358214D01*
X154205215Y-108902500D02*
X153842358Y-108902500D01*
X154277787Y-109120214D02*
X154023787Y-108358214D01*
X153769787Y-109120214D01*
X153189215Y-109120214D02*
X153189215Y-108358214D01*
X153189215Y-109083929D02*
X153261786Y-109120214D01*
X153406929Y-109120214D01*
X153479501Y-109083929D01*
X153515786Y-109047643D01*
X153552072Y-108975071D01*
X153552072Y-108757357D01*
X153515786Y-108684786D01*
X153479501Y-108648500D01*
X153406929Y-108612214D01*
X153261786Y-108612214D01*
X153189215Y-108648500D01*
X152499786Y-109120214D02*
X152499786Y-108721071D01*
X152536072Y-108648500D01*
X152608643Y-108612214D01*
X152753786Y-108612214D01*
X152826357Y-108648500D01*
X152499786Y-109083929D02*
X152572357Y-109120214D01*
X152753786Y-109120214D01*
X152826357Y-109083929D01*
X152862643Y-109011357D01*
X152862643Y-108938786D01*
X152826357Y-108866214D01*
X152753786Y-108829929D01*
X152572357Y-108829929D01*
X152499786Y-108793643D01*
X152136928Y-108612214D02*
X152136928Y-109374214D01*
X152136928Y-108648500D02*
X152064357Y-108612214D01*
X151919214Y-108612214D01*
X151846643Y-108648500D01*
X151810357Y-108684786D01*
X151774071Y-108757357D01*
X151774071Y-108975071D01*
X151810357Y-109047643D01*
X151846643Y-109083929D01*
X151919214Y-109120214D01*
X152064357Y-109120214D01*
X152136928Y-109083929D01*
X151556357Y-108612214D02*
X151266071Y-108612214D01*
X151447499Y-108358214D02*
X151447499Y-109011357D01*
X151411214Y-109083929D01*
X151338642Y-109120214D01*
X151266071Y-109120214D01*
X150721785Y-109083929D02*
X150794356Y-109120214D01*
X150939499Y-109120214D01*
X151012070Y-109083929D01*
X151048356Y-109011357D01*
X151048356Y-108721071D01*
X151012070Y-108648500D01*
X150939499Y-108612214D01*
X150794356Y-108612214D01*
X150721785Y-108648500D01*
X150685499Y-108721071D01*
X150685499Y-108793643D01*
X151048356Y-108866214D01*
X150358927Y-109120214D02*
X150358927Y-108612214D01*
X150358927Y-108757357D02*
X150322642Y-108684786D01*
X150286356Y-108648500D01*
X150213785Y-108612214D01*
X150141213Y-108612214D01*
X148907500Y-109120214D02*
X149342928Y-109120214D01*
X149125214Y-109120214D02*
X149125214Y-108358214D01*
X149197785Y-108467071D01*
X149270357Y-108539643D01*
X149342928Y-108575929D01*
X148218071Y-109120214D02*
X148580928Y-109120214D01*
X148580928Y-108358214D01*
X148145500Y-109192786D02*
X147564929Y-109192786D01*
X146984358Y-109120214D02*
X147419786Y-109120214D01*
X147202072Y-109120214D02*
X147202072Y-108358214D01*
X147274643Y-108467071D01*
X147347215Y-108539643D01*
X147419786Y-108575929D01*
X144399000Y-94968785D02*
X144362714Y-94896214D01*
X144362714Y-94787357D01*
X144399000Y-94678500D01*
X144471571Y-94605928D01*
X144544143Y-94569643D01*
X144689286Y-94533357D01*
X144798143Y-94533357D01*
X144943286Y-94569643D01*
X145015857Y-94605928D01*
X145088429Y-94678500D01*
X145124714Y-94787357D01*
X145124714Y-94859928D01*
X145088429Y-94968785D01*
X145052143Y-95005071D01*
X144798143Y-95005071D01*
X144798143Y-94859928D01*
X145124714Y-95331643D02*
X144362714Y-95331643D01*
X145124714Y-95767071D01*
X144362714Y-95767071D01*
X145124714Y-96129929D02*
X144362714Y-96129929D01*
X144362714Y-96311357D01*
X144399000Y-96420214D01*
X144471571Y-96492786D01*
X144544143Y-96529071D01*
X144689286Y-96565357D01*
X144798143Y-96565357D01*
X144943286Y-96529071D01*
X145015857Y-96492786D01*
X145088429Y-96420214D01*
X145124714Y-96311357D01*
X145124714Y-96129929D01*
X147664714Y-93880214D02*
X147301857Y-93626214D01*
X147664714Y-93444786D02*
X146902714Y-93444786D01*
X146902714Y-93735071D01*
X146939000Y-93807643D01*
X146975286Y-93843928D01*
X147047857Y-93880214D01*
X147156714Y-93880214D01*
X147229286Y-93843928D01*
X147265571Y-93807643D01*
X147301857Y-93735071D01*
X147301857Y-93444786D01*
X147265571Y-94206786D02*
X147265571Y-94460786D01*
X147664714Y-94569643D02*
X147664714Y-94206786D01*
X146902714Y-94206786D01*
X146902714Y-94569643D01*
X147628429Y-94859929D02*
X147664714Y-94968786D01*
X147664714Y-95150215D01*
X147628429Y-95222786D01*
X147592143Y-95259072D01*
X147519571Y-95295357D01*
X147447000Y-95295357D01*
X147374429Y-95259072D01*
X147338143Y-95222786D01*
X147301857Y-95150215D01*
X147265571Y-95005072D01*
X147229286Y-94932500D01*
X147193000Y-94896215D01*
X147120429Y-94859929D01*
X147047857Y-94859929D01*
X146975286Y-94896215D01*
X146939000Y-94932500D01*
X146902714Y-95005072D01*
X146902714Y-95186500D01*
X146939000Y-95295357D01*
X147265571Y-95621929D02*
X147265571Y-95875929D01*
X147664714Y-95984786D02*
X147664714Y-95621929D01*
X146902714Y-95621929D01*
X146902714Y-95984786D01*
X146902714Y-96202500D02*
X146902714Y-96637929D01*
X147664714Y-96420215D02*
X146902714Y-96420215D01*
X146771360Y-93263357D02*
X146771360Y-96710500D01*
X150132143Y-95839643D02*
X150168429Y-95803357D01*
X150204714Y-95694500D01*
X150204714Y-95621929D01*
X150168429Y-95513072D01*
X150095857Y-95440500D01*
X150023286Y-95404215D01*
X149878143Y-95367929D01*
X149769286Y-95367929D01*
X149624143Y-95404215D01*
X149551571Y-95440500D01*
X149479000Y-95513072D01*
X149442714Y-95621929D01*
X149442714Y-95694500D01*
X149479000Y-95803357D01*
X149515286Y-95839643D01*
X150168429Y-96129929D02*
X150204714Y-96238786D01*
X150204714Y-96420215D01*
X150168429Y-96492786D01*
X150132143Y-96529072D01*
X150059571Y-96565357D01*
X149987000Y-96565357D01*
X149914429Y-96529072D01*
X149878143Y-96492786D01*
X149841857Y-96420215D01*
X149805571Y-96275072D01*
X149769286Y-96202500D01*
X149733000Y-96166215D01*
X149660429Y-96129929D01*
X149587857Y-96129929D01*
X149515286Y-96166215D01*
X149479000Y-96202500D01*
X149442714Y-96275072D01*
X149442714Y-96456500D01*
X149479000Y-96565357D01*
X149311360Y-95222786D02*
X149311360Y-96710500D01*
X152672143Y-95186500D02*
X152708429Y-95150214D01*
X152744714Y-95041357D01*
X152744714Y-94968786D01*
X152708429Y-94859929D01*
X152635857Y-94787357D01*
X152563286Y-94751072D01*
X152418143Y-94714786D01*
X152309286Y-94714786D01*
X152164143Y-94751072D01*
X152091571Y-94787357D01*
X152019000Y-94859929D01*
X151982714Y-94968786D01*
X151982714Y-95041357D01*
X152019000Y-95150214D01*
X152055286Y-95186500D01*
X152744714Y-95875929D02*
X152744714Y-95513072D01*
X151982714Y-95513072D01*
X152744714Y-96129929D02*
X151982714Y-96129929D01*
X152744714Y-96565357D02*
X152309286Y-96238786D01*
X151982714Y-96565357D02*
X152418143Y-96129929D01*
X155284714Y-94134215D02*
X154522714Y-94134215D01*
X155067000Y-94388215D01*
X154522714Y-94642215D01*
X155284714Y-94642215D01*
X155284714Y-95005072D02*
X154522714Y-95005072D01*
X155248429Y-95331643D02*
X155284714Y-95440500D01*
X155284714Y-95621929D01*
X155248429Y-95694500D01*
X155212143Y-95730786D01*
X155139571Y-95767071D01*
X155067000Y-95767071D01*
X154994429Y-95730786D01*
X154958143Y-95694500D01*
X154921857Y-95621929D01*
X154885571Y-95476786D01*
X154849286Y-95404214D01*
X154813000Y-95367929D01*
X154740429Y-95331643D01*
X154667857Y-95331643D01*
X154595286Y-95367929D01*
X154559000Y-95404214D01*
X154522714Y-95476786D01*
X154522714Y-95658214D01*
X154559000Y-95767071D01*
X154522714Y-96238785D02*
X154522714Y-96383928D01*
X154559000Y-96456500D01*
X154631571Y-96529071D01*
X154776714Y-96565357D01*
X155030714Y-96565357D01*
X155175857Y-96529071D01*
X155248429Y-96456500D01*
X155284714Y-96383928D01*
X155284714Y-96238785D01*
X155248429Y-96166214D01*
X155175857Y-96093643D01*
X155030714Y-96057357D01*
X154776714Y-96057357D01*
X154631571Y-96093643D01*
X154559000Y-96166214D01*
X154522714Y-96238785D01*
X157824714Y-94134215D02*
X157062714Y-94134215D01*
X157607000Y-94388215D01*
X157062714Y-94642215D01*
X157824714Y-94642215D01*
X157062714Y-95150214D02*
X157062714Y-95295357D01*
X157099000Y-95367929D01*
X157171571Y-95440500D01*
X157316714Y-95476786D01*
X157570714Y-95476786D01*
X157715857Y-95440500D01*
X157788429Y-95367929D01*
X157824714Y-95295357D01*
X157824714Y-95150214D01*
X157788429Y-95077643D01*
X157715857Y-95005072D01*
X157570714Y-94968786D01*
X157316714Y-94968786D01*
X157171571Y-95005072D01*
X157099000Y-95077643D01*
X157062714Y-95150214D01*
X157788429Y-95767072D02*
X157824714Y-95875929D01*
X157824714Y-96057358D01*
X157788429Y-96129929D01*
X157752143Y-96166215D01*
X157679571Y-96202500D01*
X157607000Y-96202500D01*
X157534429Y-96166215D01*
X157498143Y-96129929D01*
X157461857Y-96057358D01*
X157425571Y-95912215D01*
X157389286Y-95839643D01*
X157353000Y-95803358D01*
X157280429Y-95767072D01*
X157207857Y-95767072D01*
X157135286Y-95803358D01*
X157099000Y-95839643D01*
X157062714Y-95912215D01*
X157062714Y-96093643D01*
X157099000Y-96202500D01*
X157824714Y-96529072D02*
X157062714Y-96529072D01*
X159602714Y-94751070D02*
X160364714Y-95005070D01*
X159602714Y-95259070D01*
X160364714Y-95839642D02*
X159602714Y-95839642D01*
X160328429Y-95839642D02*
X160364714Y-95767071D01*
X160364714Y-95621928D01*
X160328429Y-95549356D01*
X160292143Y-95513071D01*
X160219571Y-95476785D01*
X160001857Y-95476785D01*
X159929286Y-95513071D01*
X159893000Y-95549356D01*
X159856714Y-95621928D01*
X159856714Y-95767071D01*
X159893000Y-95839642D01*
X160364714Y-96529071D02*
X159602714Y-96529071D01*
X160328429Y-96529071D02*
X160364714Y-96456500D01*
X160364714Y-96311357D01*
X160328429Y-96238785D01*
X160292143Y-96202500D01*
X160219571Y-96166214D01*
X160001857Y-96166214D01*
X159929286Y-96202500D01*
X159893000Y-96238785D01*
X159856714Y-96311357D01*
X159856714Y-96456500D01*
X159893000Y-96529071D01*
D12*
G36*
X157505371Y-117585066D02*
X157465889Y-117585467D01*
X157350200Y-117588259D01*
X157253311Y-117596550D01*
X157171919Y-117611232D01*
X157102723Y-117633193D01*
X157042420Y-117663322D01*
X156987708Y-117702510D01*
X156968167Y-117719532D01*
X156935750Y-117759363D01*
X156906520Y-117813413D01*
X156883991Y-117873323D01*
X156871679Y-117930739D01*
X156870400Y-117951956D01*
X156878417Y-118010769D01*
X156899899Y-118075013D01*
X156930999Y-118135821D01*
X156967866Y-118184330D01*
X156973854Y-118190182D01*
X157024579Y-118231321D01*
X157080125Y-118263435D01*
X157143696Y-118287365D01*
X157218494Y-118303953D01*
X157307722Y-118314041D01*
X157414582Y-118318469D01*
X157463528Y-118318845D01*
X157525762Y-118318545D01*
X157569528Y-118317292D01*
X157598931Y-118314554D01*
X157618079Y-118309801D01*
X157631077Y-118302501D01*
X157638045Y-118296267D01*
X157644626Y-118288694D01*
X157649788Y-118278924D01*
X157653703Y-118264340D01*
X157656543Y-118242326D01*
X157658480Y-118210264D01*
X157659684Y-118165536D01*
X157660328Y-118105526D01*
X157660583Y-118027617D01*
X157660622Y-117951956D01*
X157660870Y-117851041D01*
X157660817Y-117770427D01*
X157659857Y-117731822D01*
X157513867Y-117731822D01*
X157513867Y-118172089D01*
X157420734Y-118172004D01*
X157364693Y-118170396D01*
X157305999Y-118166256D01*
X157257028Y-118160464D01*
X157255538Y-118160226D01*
X157176392Y-118141090D01*
X157115002Y-118111287D01*
X157068305Y-118068878D01*
X157038635Y-118022961D01*
X157020353Y-117972026D01*
X157021771Y-117924200D01*
X157042988Y-117872933D01*
X157084489Y-117819899D01*
X157141998Y-117780600D01*
X157216750Y-117754331D01*
X157266708Y-117745035D01*
X157323416Y-117738507D01*
X157383519Y-117733782D01*
X157434639Y-117731817D01*
X157437667Y-117731808D01*
X157513867Y-117731822D01*
X157659857Y-117731822D01*
X157659260Y-117707851D01*
X157654998Y-117661055D01*
X157646830Y-117627778D01*
X157633556Y-117605759D01*
X157613974Y-117592739D01*
X157586883Y-117586457D01*
X157551082Y-117584653D01*
X157505371Y-117585066D01*
X157505371Y-117585066D01*
G37*
X157505371Y-117585066D02*
X157465889Y-117585467D01*
X157350200Y-117588259D01*
X157253311Y-117596550D01*
X157171919Y-117611232D01*
X157102723Y-117633193D01*
X157042420Y-117663322D01*
X156987708Y-117702510D01*
X156968167Y-117719532D01*
X156935750Y-117759363D01*
X156906520Y-117813413D01*
X156883991Y-117873323D01*
X156871679Y-117930739D01*
X156870400Y-117951956D01*
X156878417Y-118010769D01*
X156899899Y-118075013D01*
X156930999Y-118135821D01*
X156967866Y-118184330D01*
X156973854Y-118190182D01*
X157024579Y-118231321D01*
X157080125Y-118263435D01*
X157143696Y-118287365D01*
X157218494Y-118303953D01*
X157307722Y-118314041D01*
X157414582Y-118318469D01*
X157463528Y-118318845D01*
X157525762Y-118318545D01*
X157569528Y-118317292D01*
X157598931Y-118314554D01*
X157618079Y-118309801D01*
X157631077Y-118302501D01*
X157638045Y-118296267D01*
X157644626Y-118288694D01*
X157649788Y-118278924D01*
X157653703Y-118264340D01*
X157656543Y-118242326D01*
X157658480Y-118210264D01*
X157659684Y-118165536D01*
X157660328Y-118105526D01*
X157660583Y-118027617D01*
X157660622Y-117951956D01*
X157660870Y-117851041D01*
X157660817Y-117770427D01*
X157659857Y-117731822D01*
X157513867Y-117731822D01*
X157513867Y-118172089D01*
X157420734Y-118172004D01*
X157364693Y-118170396D01*
X157305999Y-118166256D01*
X157257028Y-118160464D01*
X157255538Y-118160226D01*
X157176392Y-118141090D01*
X157115002Y-118111287D01*
X157068305Y-118068878D01*
X157038635Y-118022961D01*
X157020353Y-117972026D01*
X157021771Y-117924200D01*
X157042988Y-117872933D01*
X157084489Y-117819899D01*
X157141998Y-117780600D01*
X157216750Y-117754331D01*
X157266708Y-117745035D01*
X157323416Y-117738507D01*
X157383519Y-117733782D01*
X157434639Y-117731817D01*
X157437667Y-117731808D01*
X157513867Y-117731822D01*
X157659857Y-117731822D01*
X157659260Y-117707851D01*
X157654998Y-117661055D01*
X157646830Y-117627778D01*
X157633556Y-117605759D01*
X157613974Y-117592739D01*
X157586883Y-117586457D01*
X157551082Y-117584653D01*
X157505371Y-117585066D01*
G36*
X156096794Y-117585146D02*
X156027386Y-117585518D01*
X155974997Y-117586385D01*
X155936847Y-117587946D01*
X155910159Y-117590403D01*
X155892153Y-117593957D01*
X155880049Y-117598810D01*
X155871069Y-117605161D01*
X155867818Y-117608084D01*
X155848043Y-117639142D01*
X155844482Y-117674828D01*
X155857491Y-117706510D01*
X155863506Y-117712913D01*
X155873235Y-117719121D01*
X155888901Y-117723910D01*
X155913408Y-117727514D01*
X155949661Y-117730164D01*
X156000565Y-117732095D01*
X156069026Y-117733539D01*
X156131617Y-117734418D01*
X156379334Y-117737467D01*
X156382719Y-117802378D01*
X156386105Y-117867289D01*
X156217958Y-117867289D01*
X156144959Y-117867919D01*
X156091517Y-117870553D01*
X156054628Y-117876309D01*
X156031288Y-117886304D01*
X156018494Y-117901656D01*
X156013242Y-117923482D01*
X156012445Y-117943738D01*
X156014923Y-117968592D01*
X156024277Y-117986906D01*
X156043383Y-117999637D01*
X156075118Y-118007741D01*
X156122359Y-118012176D01*
X156187983Y-118013899D01*
X156223801Y-118014045D01*
X156384978Y-118014045D01*
X156384978Y-118172089D01*
X156136622Y-118172089D01*
X156055213Y-118172202D01*
X155993342Y-118172712D01*
X155947968Y-118173870D01*
X155916054Y-118175930D01*
X155894559Y-118179146D01*
X155880443Y-118183772D01*
X155870668Y-118190059D01*
X155865689Y-118194667D01*
X155848610Y-118221560D01*
X155843111Y-118245467D01*
X155850963Y-118274667D01*
X155865689Y-118296267D01*
X155873546Y-118303066D01*
X155883688Y-118308346D01*
X155898844Y-118312298D01*
X155921741Y-118315113D01*
X155955109Y-118316982D01*
X156001675Y-118318098D01*
X156064167Y-118318651D01*
X156145314Y-118318833D01*
X156187422Y-118318845D01*
X156277598Y-118318765D01*
X156347924Y-118318398D01*
X156401129Y-118317552D01*
X156439940Y-118316036D01*
X156467087Y-118313659D01*
X156485298Y-118310229D01*
X156497300Y-118305554D01*
X156505822Y-118299444D01*
X156509156Y-118296267D01*
X156515755Y-118288670D01*
X156520927Y-118278870D01*
X156524846Y-118264239D01*
X156527684Y-118242152D01*
X156529615Y-118209982D01*
X156530812Y-118165103D01*
X156531448Y-118104889D01*
X156531697Y-118026713D01*
X156531734Y-117953923D01*
X156531700Y-117860707D01*
X156531465Y-117787431D01*
X156530830Y-117731458D01*
X156529594Y-117690151D01*
X156527556Y-117660872D01*
X156524517Y-117640984D01*
X156520277Y-117627850D01*
X156514635Y-117618832D01*
X156507391Y-117611293D01*
X156505606Y-117609612D01*
X156496945Y-117602172D01*
X156486882Y-117596409D01*
X156472625Y-117592112D01*
X156451383Y-117589064D01*
X156420364Y-117587051D01*
X156376777Y-117585860D01*
X156317831Y-117585275D01*
X156240734Y-117585083D01*
X156186001Y-117585067D01*
X156096794Y-117585146D01*
X156096794Y-117585146D01*
G37*
X156096794Y-117585146D02*
X156027386Y-117585518D01*
X155974997Y-117586385D01*
X155936847Y-117587946D01*
X155910159Y-117590403D01*
X155892153Y-117593957D01*
X155880049Y-117598810D01*
X155871069Y-117605161D01*
X155867818Y-117608084D01*
X155848043Y-117639142D01*
X155844482Y-117674828D01*
X155857491Y-117706510D01*
X155863506Y-117712913D01*
X155873235Y-117719121D01*
X155888901Y-117723910D01*
X155913408Y-117727514D01*
X155949661Y-117730164D01*
X156000565Y-117732095D01*
X156069026Y-117733539D01*
X156131617Y-117734418D01*
X156379334Y-117737467D01*
X156382719Y-117802378D01*
X156386105Y-117867289D01*
X156217958Y-117867289D01*
X156144959Y-117867919D01*
X156091517Y-117870553D01*
X156054628Y-117876309D01*
X156031288Y-117886304D01*
X156018494Y-117901656D01*
X156013242Y-117923482D01*
X156012445Y-117943738D01*
X156014923Y-117968592D01*
X156024277Y-117986906D01*
X156043383Y-117999637D01*
X156075118Y-118007741D01*
X156122359Y-118012176D01*
X156187983Y-118013899D01*
X156223801Y-118014045D01*
X156384978Y-118014045D01*
X156384978Y-118172089D01*
X156136622Y-118172089D01*
X156055213Y-118172202D01*
X155993342Y-118172712D01*
X155947968Y-118173870D01*
X155916054Y-118175930D01*
X155894559Y-118179146D01*
X155880443Y-118183772D01*
X155870668Y-118190059D01*
X155865689Y-118194667D01*
X155848610Y-118221560D01*
X155843111Y-118245467D01*
X155850963Y-118274667D01*
X155865689Y-118296267D01*
X155873546Y-118303066D01*
X155883688Y-118308346D01*
X155898844Y-118312298D01*
X155921741Y-118315113D01*
X155955109Y-118316982D01*
X156001675Y-118318098D01*
X156064167Y-118318651D01*
X156145314Y-118318833D01*
X156187422Y-118318845D01*
X156277598Y-118318765D01*
X156347924Y-118318398D01*
X156401129Y-118317552D01*
X156439940Y-118316036D01*
X156467087Y-118313659D01*
X156485298Y-118310229D01*
X156497300Y-118305554D01*
X156505822Y-118299444D01*
X156509156Y-118296267D01*
X156515755Y-118288670D01*
X156520927Y-118278870D01*
X156524846Y-118264239D01*
X156527684Y-118242152D01*
X156529615Y-118209982D01*
X156530812Y-118165103D01*
X156531448Y-118104889D01*
X156531697Y-118026713D01*
X156531734Y-117953923D01*
X156531700Y-117860707D01*
X156531465Y-117787431D01*
X156530830Y-117731458D01*
X156529594Y-117690151D01*
X156527556Y-117660872D01*
X156524517Y-117640984D01*
X156520277Y-117627850D01*
X156514635Y-117618832D01*
X156507391Y-117611293D01*
X156505606Y-117609612D01*
X156496945Y-117602172D01*
X156486882Y-117596409D01*
X156472625Y-117592112D01*
X156451383Y-117589064D01*
X156420364Y-117587051D01*
X156376777Y-117585860D01*
X156317831Y-117585275D01*
X156240734Y-117585083D01*
X156186001Y-117585067D01*
X156096794Y-117585146D01*
G36*
X155075703Y-117586351D02*
X155000888Y-117591581D01*
X154931306Y-117599750D01*
X154871002Y-117610550D01*
X154824020Y-117623673D01*
X154794406Y-117638813D01*
X154789860Y-117643269D01*
X154774054Y-117677850D01*
X154778847Y-117713351D01*
X154803364Y-117743725D01*
X154804534Y-117744596D01*
X154818954Y-117753954D01*
X154834008Y-117758876D01*
X154855005Y-117759473D01*
X154887257Y-117755861D01*
X154936073Y-117748154D01*
X154940000Y-117747505D01*
X155012739Y-117738569D01*
X155091217Y-117734161D01*
X155169927Y-117734119D01*
X155243361Y-117738279D01*
X155306011Y-117746479D01*
X155352370Y-117758557D01*
X155355416Y-117759771D01*
X155389048Y-117778615D01*
X155400864Y-117797685D01*
X155391614Y-117816439D01*
X155362047Y-117834337D01*
X155312911Y-117850837D01*
X155244957Y-117865396D01*
X155199645Y-117872406D01*
X155105456Y-117885889D01*
X155030544Y-117898214D01*
X154971717Y-117910449D01*
X154925785Y-117923661D01*
X154889555Y-117938917D01*
X154859838Y-117957285D01*
X154833442Y-117979831D01*
X154812230Y-118001971D01*
X154787065Y-118032819D01*
X154774681Y-118059345D01*
X154770808Y-118092026D01*
X154770667Y-118103995D01*
X154773576Y-118143712D01*
X154785202Y-118173259D01*
X154805323Y-118199486D01*
X154846216Y-118239576D01*
X154891817Y-118270149D01*
X154945513Y-118292203D01*
X155010692Y-118306735D01*
X155090744Y-118314741D01*
X155189057Y-118317218D01*
X155205289Y-118317177D01*
X155270849Y-118315818D01*
X155335866Y-118312730D01*
X155393252Y-118308356D01*
X155435922Y-118303140D01*
X155439372Y-118302541D01*
X155481796Y-118292491D01*
X155517780Y-118279796D01*
X155538150Y-118268190D01*
X155557107Y-118237572D01*
X155558427Y-118201918D01*
X155542085Y-118170144D01*
X155538429Y-118166551D01*
X155523315Y-118155876D01*
X155504415Y-118151276D01*
X155475162Y-118152059D01*
X155439651Y-118156127D01*
X155399970Y-118159762D01*
X155344345Y-118162828D01*
X155279406Y-118165053D01*
X155211785Y-118166164D01*
X155194000Y-118166237D01*
X155126128Y-118165964D01*
X155076454Y-118164646D01*
X155040610Y-118161827D01*
X155014224Y-118157050D01*
X154992926Y-118149857D01*
X154980126Y-118143867D01*
X154952000Y-118127233D01*
X154934068Y-118112168D01*
X154931447Y-118107897D01*
X154936976Y-118090263D01*
X154963260Y-118073192D01*
X155008478Y-118057458D01*
X155070808Y-118043838D01*
X155089171Y-118040804D01*
X155185090Y-118025738D01*
X155261641Y-118013146D01*
X155321780Y-118002111D01*
X155368460Y-117991720D01*
X155404637Y-117981056D01*
X155433265Y-117969205D01*
X155457298Y-117955251D01*
X155479692Y-117938281D01*
X155503402Y-117917378D01*
X155511380Y-117910049D01*
X155539353Y-117882699D01*
X155554160Y-117861029D01*
X155559952Y-117836232D01*
X155560889Y-117804983D01*
X155550575Y-117743705D01*
X155519752Y-117691640D01*
X155468595Y-117648958D01*
X155397283Y-117615825D01*
X155346400Y-117600964D01*
X155291100Y-117591366D01*
X155224853Y-117585936D01*
X155151706Y-117584367D01*
X155075703Y-117586351D01*
X155075703Y-117586351D01*
G37*
X155075703Y-117586351D02*
X155000888Y-117591581D01*
X154931306Y-117599750D01*
X154871002Y-117610550D01*
X154824020Y-117623673D01*
X154794406Y-117638813D01*
X154789860Y-117643269D01*
X154774054Y-117677850D01*
X154778847Y-117713351D01*
X154803364Y-117743725D01*
X154804534Y-117744596D01*
X154818954Y-117753954D01*
X154834008Y-117758876D01*
X154855005Y-117759473D01*
X154887257Y-117755861D01*
X154936073Y-117748154D01*
X154940000Y-117747505D01*
X155012739Y-117738569D01*
X155091217Y-117734161D01*
X155169927Y-117734119D01*
X155243361Y-117738279D01*
X155306011Y-117746479D01*
X155352370Y-117758557D01*
X155355416Y-117759771D01*
X155389048Y-117778615D01*
X155400864Y-117797685D01*
X155391614Y-117816439D01*
X155362047Y-117834337D01*
X155312911Y-117850837D01*
X155244957Y-117865396D01*
X155199645Y-117872406D01*
X155105456Y-117885889D01*
X155030544Y-117898214D01*
X154971717Y-117910449D01*
X154925785Y-117923661D01*
X154889555Y-117938917D01*
X154859838Y-117957285D01*
X154833442Y-117979831D01*
X154812230Y-118001971D01*
X154787065Y-118032819D01*
X154774681Y-118059345D01*
X154770808Y-118092026D01*
X154770667Y-118103995D01*
X154773576Y-118143712D01*
X154785202Y-118173259D01*
X154805323Y-118199486D01*
X154846216Y-118239576D01*
X154891817Y-118270149D01*
X154945513Y-118292203D01*
X155010692Y-118306735D01*
X155090744Y-118314741D01*
X155189057Y-118317218D01*
X155205289Y-118317177D01*
X155270849Y-118315818D01*
X155335866Y-118312730D01*
X155393252Y-118308356D01*
X155435922Y-118303140D01*
X155439372Y-118302541D01*
X155481796Y-118292491D01*
X155517780Y-118279796D01*
X155538150Y-118268190D01*
X155557107Y-118237572D01*
X155558427Y-118201918D01*
X155542085Y-118170144D01*
X155538429Y-118166551D01*
X155523315Y-118155876D01*
X155504415Y-118151276D01*
X155475162Y-118152059D01*
X155439651Y-118156127D01*
X155399970Y-118159762D01*
X155344345Y-118162828D01*
X155279406Y-118165053D01*
X155211785Y-118166164D01*
X155194000Y-118166237D01*
X155126128Y-118165964D01*
X155076454Y-118164646D01*
X155040610Y-118161827D01*
X155014224Y-118157050D01*
X154992926Y-118149857D01*
X154980126Y-118143867D01*
X154952000Y-118127233D01*
X154934068Y-118112168D01*
X154931447Y-118107897D01*
X154936976Y-118090263D01*
X154963260Y-118073192D01*
X155008478Y-118057458D01*
X155070808Y-118043838D01*
X155089171Y-118040804D01*
X155185090Y-118025738D01*
X155261641Y-118013146D01*
X155321780Y-118002111D01*
X155368460Y-117991720D01*
X155404637Y-117981056D01*
X155433265Y-117969205D01*
X155457298Y-117955251D01*
X155479692Y-117938281D01*
X155503402Y-117917378D01*
X155511380Y-117910049D01*
X155539353Y-117882699D01*
X155554160Y-117861029D01*
X155559952Y-117836232D01*
X155560889Y-117804983D01*
X155550575Y-117743705D01*
X155519752Y-117691640D01*
X155468595Y-117648958D01*
X155397283Y-117615825D01*
X155346400Y-117600964D01*
X155291100Y-117591366D01*
X155224853Y-117585936D01*
X155151706Y-117584367D01*
X155075703Y-117586351D01*
G36*
X154307822Y-117607645D02*
X154301242Y-117615218D01*
X154296079Y-117624987D01*
X154292164Y-117639571D01*
X154289324Y-117661585D01*
X154287387Y-117693648D01*
X154286183Y-117738375D01*
X154285539Y-117798385D01*
X154285284Y-117876294D01*
X154285245Y-117951956D01*
X154285314Y-118045802D01*
X154285638Y-118119689D01*
X154286386Y-118176232D01*
X154287732Y-118218049D01*
X154289846Y-118247757D01*
X154292900Y-118267973D01*
X154297066Y-118281314D01*
X154302516Y-118290398D01*
X154307822Y-118296267D01*
X154340826Y-118315947D01*
X154375991Y-118314181D01*
X154407455Y-118292717D01*
X154414684Y-118284337D01*
X154420334Y-118274614D01*
X154424599Y-118260861D01*
X154427673Y-118240389D01*
X154429752Y-118210512D01*
X154431030Y-118168541D01*
X154431701Y-118111789D01*
X154431959Y-118037567D01*
X154432000Y-117953537D01*
X154432000Y-117640485D01*
X154404291Y-117612776D01*
X154370137Y-117589463D01*
X154337006Y-117588623D01*
X154307822Y-117607645D01*
X154307822Y-117607645D01*
G37*
X154307822Y-117607645D02*
X154301242Y-117615218D01*
X154296079Y-117624987D01*
X154292164Y-117639571D01*
X154289324Y-117661585D01*
X154287387Y-117693648D01*
X154286183Y-117738375D01*
X154285539Y-117798385D01*
X154285284Y-117876294D01*
X154285245Y-117951956D01*
X154285314Y-118045802D01*
X154285638Y-118119689D01*
X154286386Y-118176232D01*
X154287732Y-118218049D01*
X154289846Y-118247757D01*
X154292900Y-118267973D01*
X154297066Y-118281314D01*
X154302516Y-118290398D01*
X154307822Y-118296267D01*
X154340826Y-118315947D01*
X154375991Y-118314181D01*
X154407455Y-118292717D01*
X154414684Y-118284337D01*
X154420334Y-118274614D01*
X154424599Y-118260861D01*
X154427673Y-118240389D01*
X154429752Y-118210512D01*
X154431030Y-118168541D01*
X154431701Y-118111789D01*
X154431959Y-118037567D01*
X154432000Y-117953537D01*
X154432000Y-117640485D01*
X154404291Y-117612776D01*
X154370137Y-117589463D01*
X154337006Y-117588623D01*
X154307822Y-117607645D01*
G36*
X153334081Y-117590599D02*
X153265565Y-117602095D01*
X153212943Y-117619967D01*
X153178708Y-117643499D01*
X153169379Y-117656924D01*
X153159893Y-117688148D01*
X153166277Y-117716395D01*
X153186430Y-117743182D01*
X153217745Y-117755713D01*
X153263183Y-117754696D01*
X153298326Y-117747906D01*
X153376419Y-117734971D01*
X153456226Y-117733742D01*
X153545555Y-117744241D01*
X153570229Y-117748690D01*
X153653291Y-117772108D01*
X153718273Y-117806945D01*
X153764461Y-117852604D01*
X153791145Y-117908494D01*
X153796663Y-117937388D01*
X153793051Y-117996012D01*
X153769729Y-118047879D01*
X153728824Y-118091978D01*
X153672459Y-118127299D01*
X153602760Y-118152829D01*
X153521852Y-118167559D01*
X153431860Y-118170478D01*
X153334910Y-118160575D01*
X153329436Y-118159641D01*
X153290875Y-118152459D01*
X153269494Y-118145521D01*
X153260227Y-118135227D01*
X153258006Y-118117976D01*
X153257956Y-118108841D01*
X153257956Y-118070489D01*
X153326431Y-118070489D01*
X153386900Y-118066347D01*
X153428165Y-118053147D01*
X153452175Y-118029730D01*
X153460877Y-117994936D01*
X153460983Y-117990394D01*
X153455892Y-117960654D01*
X153438433Y-117939419D01*
X153405939Y-117925366D01*
X153355743Y-117917173D01*
X153307123Y-117914161D01*
X153236456Y-117912433D01*
X153185198Y-117915070D01*
X153150239Y-117924800D01*
X153128470Y-117944353D01*
X153116780Y-117976456D01*
X153112060Y-118023838D01*
X153111200Y-118086071D01*
X153112609Y-118155535D01*
X153116848Y-118202786D01*
X153123936Y-118228012D01*
X153125311Y-118229988D01*
X153164228Y-118261508D01*
X153221286Y-118286470D01*
X153292869Y-118304340D01*
X153375358Y-118314586D01*
X153465139Y-118316673D01*
X153558592Y-118310068D01*
X153613556Y-118301956D01*
X153699766Y-118277554D01*
X153779892Y-118237662D01*
X153846977Y-118185887D01*
X153857173Y-118175539D01*
X153890302Y-118132035D01*
X153920194Y-118078118D01*
X153943357Y-118021592D01*
X153956298Y-117970259D01*
X153957858Y-117950544D01*
X153951218Y-117909419D01*
X153933568Y-117858252D01*
X153908297Y-117804394D01*
X153878789Y-117755195D01*
X153852719Y-117722334D01*
X153791765Y-117673452D01*
X153712969Y-117634545D01*
X153619157Y-117606494D01*
X153513150Y-117590179D01*
X153416000Y-117586192D01*
X153334081Y-117590599D01*
X153334081Y-117590599D01*
G37*
X153334081Y-117590599D02*
X153265565Y-117602095D01*
X153212943Y-117619967D01*
X153178708Y-117643499D01*
X153169379Y-117656924D01*
X153159893Y-117688148D01*
X153166277Y-117716395D01*
X153186430Y-117743182D01*
X153217745Y-117755713D01*
X153263183Y-117754696D01*
X153298326Y-117747906D01*
X153376419Y-117734971D01*
X153456226Y-117733742D01*
X153545555Y-117744241D01*
X153570229Y-117748690D01*
X153653291Y-117772108D01*
X153718273Y-117806945D01*
X153764461Y-117852604D01*
X153791145Y-117908494D01*
X153796663Y-117937388D01*
X153793051Y-117996012D01*
X153769729Y-118047879D01*
X153728824Y-118091978D01*
X153672459Y-118127299D01*
X153602760Y-118152829D01*
X153521852Y-118167559D01*
X153431860Y-118170478D01*
X153334910Y-118160575D01*
X153329436Y-118159641D01*
X153290875Y-118152459D01*
X153269494Y-118145521D01*
X153260227Y-118135227D01*
X153258006Y-118117976D01*
X153257956Y-118108841D01*
X153257956Y-118070489D01*
X153326431Y-118070489D01*
X153386900Y-118066347D01*
X153428165Y-118053147D01*
X153452175Y-118029730D01*
X153460877Y-117994936D01*
X153460983Y-117990394D01*
X153455892Y-117960654D01*
X153438433Y-117939419D01*
X153405939Y-117925366D01*
X153355743Y-117917173D01*
X153307123Y-117914161D01*
X153236456Y-117912433D01*
X153185198Y-117915070D01*
X153150239Y-117924800D01*
X153128470Y-117944353D01*
X153116780Y-117976456D01*
X153112060Y-118023838D01*
X153111200Y-118086071D01*
X153112609Y-118155535D01*
X153116848Y-118202786D01*
X153123936Y-118228012D01*
X153125311Y-118229988D01*
X153164228Y-118261508D01*
X153221286Y-118286470D01*
X153292869Y-118304340D01*
X153375358Y-118314586D01*
X153465139Y-118316673D01*
X153558592Y-118310068D01*
X153613556Y-118301956D01*
X153699766Y-118277554D01*
X153779892Y-118237662D01*
X153846977Y-118185887D01*
X153857173Y-118175539D01*
X153890302Y-118132035D01*
X153920194Y-118078118D01*
X153943357Y-118021592D01*
X153956298Y-117970259D01*
X153957858Y-117950544D01*
X153951218Y-117909419D01*
X153933568Y-117858252D01*
X153908297Y-117804394D01*
X153878789Y-117755195D01*
X153852719Y-117722334D01*
X153791765Y-117673452D01*
X153712969Y-117634545D01*
X153619157Y-117606494D01*
X153513150Y-117590179D01*
X153416000Y-117586192D01*
X153334081Y-117590599D01*
G36*
X152684114Y-117589448D02*
X152660548Y-117603273D01*
X152629735Y-117625881D01*
X152590078Y-117658338D01*
X152539980Y-117701708D01*
X152477843Y-117757058D01*
X152402072Y-117825451D01*
X152315334Y-117904084D01*
X152134711Y-118067878D01*
X152129067Y-117848029D01*
X152127029Y-117772351D01*
X152125063Y-117715994D01*
X152122734Y-117675706D01*
X152119606Y-117648235D01*
X152115245Y-117630329D01*
X152109216Y-117618737D01*
X152101084Y-117610208D01*
X152096772Y-117606623D01*
X152062241Y-117587670D01*
X152029383Y-117590441D01*
X152003318Y-117606633D01*
X151976667Y-117628199D01*
X151973352Y-117943151D01*
X151972435Y-118035779D01*
X151971968Y-118108544D01*
X151972113Y-118164161D01*
X151973032Y-118205342D01*
X151974887Y-118234803D01*
X151977839Y-118255255D01*
X151982050Y-118269413D01*
X151987682Y-118279991D01*
X151993927Y-118288474D01*
X152007439Y-118304207D01*
X152020883Y-118314636D01*
X152036124Y-118318639D01*
X152055026Y-118315094D01*
X152079455Y-118302879D01*
X152111273Y-118280871D01*
X152152348Y-118247949D01*
X152204542Y-118202991D01*
X152269722Y-118144875D01*
X152343556Y-118078099D01*
X152608845Y-117837458D01*
X152614489Y-118056589D01*
X152616531Y-118132128D01*
X152618502Y-118188354D01*
X152620839Y-118228524D01*
X152623981Y-118255896D01*
X152628364Y-118273728D01*
X152634424Y-118285279D01*
X152642600Y-118293807D01*
X152646784Y-118297282D01*
X152683765Y-118316372D01*
X152718708Y-118313493D01*
X152749136Y-118289100D01*
X152756097Y-118279286D01*
X152761523Y-118267826D01*
X152765603Y-118251968D01*
X152768529Y-118228963D01*
X152770492Y-118196062D01*
X152771683Y-118150516D01*
X152772292Y-118089573D01*
X152772511Y-118010486D01*
X152772534Y-117951956D01*
X152772460Y-117860407D01*
X152772113Y-117788687D01*
X152771301Y-117734045D01*
X152769833Y-117693732D01*
X152767519Y-117664998D01*
X152764167Y-117645093D01*
X152759588Y-117631268D01*
X152753589Y-117620772D01*
X152749136Y-117614811D01*
X152737850Y-117600691D01*
X152727301Y-117590029D01*
X152715893Y-117583892D01*
X152702030Y-117583343D01*
X152684114Y-117589448D01*
X152684114Y-117589448D01*
G37*
X152684114Y-117589448D02*
X152660548Y-117603273D01*
X152629735Y-117625881D01*
X152590078Y-117658338D01*
X152539980Y-117701708D01*
X152477843Y-117757058D01*
X152402072Y-117825451D01*
X152315334Y-117904084D01*
X152134711Y-118067878D01*
X152129067Y-117848029D01*
X152127029Y-117772351D01*
X152125063Y-117715994D01*
X152122734Y-117675706D01*
X152119606Y-117648235D01*
X152115245Y-117630329D01*
X152109216Y-117618737D01*
X152101084Y-117610208D01*
X152096772Y-117606623D01*
X152062241Y-117587670D01*
X152029383Y-117590441D01*
X152003318Y-117606633D01*
X151976667Y-117628199D01*
X151973352Y-117943151D01*
X151972435Y-118035779D01*
X151971968Y-118108544D01*
X151972113Y-118164161D01*
X151973032Y-118205342D01*
X151974887Y-118234803D01*
X151977839Y-118255255D01*
X151982050Y-118269413D01*
X151987682Y-118279991D01*
X151993927Y-118288474D01*
X152007439Y-118304207D01*
X152020883Y-118314636D01*
X152036124Y-118318639D01*
X152055026Y-118315094D01*
X152079455Y-118302879D01*
X152111273Y-118280871D01*
X152152348Y-118247949D01*
X152204542Y-118202991D01*
X152269722Y-118144875D01*
X152343556Y-118078099D01*
X152608845Y-117837458D01*
X152614489Y-118056589D01*
X152616531Y-118132128D01*
X152618502Y-118188354D01*
X152620839Y-118228524D01*
X152623981Y-118255896D01*
X152628364Y-118273728D01*
X152634424Y-118285279D01*
X152642600Y-118293807D01*
X152646784Y-118297282D01*
X152683765Y-118316372D01*
X152718708Y-118313493D01*
X152749136Y-118289100D01*
X152756097Y-118279286D01*
X152761523Y-118267826D01*
X152765603Y-118251968D01*
X152768529Y-118228963D01*
X152770492Y-118196062D01*
X152771683Y-118150516D01*
X152772292Y-118089573D01*
X152772511Y-118010486D01*
X152772534Y-117951956D01*
X152772460Y-117860407D01*
X152772113Y-117788687D01*
X152771301Y-117734045D01*
X152769833Y-117693732D01*
X152767519Y-117664998D01*
X152764167Y-117645093D01*
X152759588Y-117631268D01*
X152753589Y-117620772D01*
X152749136Y-117614811D01*
X152737850Y-117600691D01*
X152727301Y-117590029D01*
X152715893Y-117583892D01*
X152702030Y-117583343D01*
X152684114Y-117589448D01*
G36*
X151153657Y-117585260D02*
X151077299Y-117586174D01*
X151018783Y-117588311D01*
X150975745Y-117592175D01*
X150945817Y-117598267D01*
X150926632Y-117607090D01*
X150915824Y-117619146D01*
X150911027Y-117634939D01*
X150909873Y-117654970D01*
X150909867Y-117657335D01*
X150910869Y-117679992D01*
X150915604Y-117697503D01*
X150926667Y-117710574D01*
X150946652Y-117719913D01*
X150978154Y-117726227D01*
X151023768Y-117730222D01*
X151086087Y-117732606D01*
X151167707Y-117734086D01*
X151192723Y-117734414D01*
X151434800Y-117737467D01*
X151438186Y-117802378D01*
X151441571Y-117867289D01*
X151273424Y-117867289D01*
X151207734Y-117867531D01*
X151160828Y-117868556D01*
X151128917Y-117870811D01*
X151108209Y-117874742D01*
X151094916Y-117880798D01*
X151085245Y-117889424D01*
X151085183Y-117889493D01*
X151067644Y-117923112D01*
X151068278Y-117959448D01*
X151086686Y-117990423D01*
X151090329Y-117993607D01*
X151103259Y-118001812D01*
X151120976Y-118007521D01*
X151147430Y-118011162D01*
X151186568Y-118013167D01*
X151242338Y-118013964D01*
X151278006Y-118014045D01*
X151440445Y-118014045D01*
X151440445Y-118172089D01*
X151193839Y-118172089D01*
X151112420Y-118172231D01*
X151050590Y-118172814D01*
X151005363Y-118174068D01*
X150973752Y-118176227D01*
X150952769Y-118179523D01*
X150939427Y-118184189D01*
X150930739Y-118190457D01*
X150928550Y-118192733D01*
X150912386Y-118224280D01*
X150911203Y-118260168D01*
X150924464Y-118291285D01*
X150934957Y-118301271D01*
X150945871Y-118306769D01*
X150962783Y-118311022D01*
X150988367Y-118314180D01*
X151025299Y-118316392D01*
X151076254Y-118317806D01*
X151143906Y-118318572D01*
X151230931Y-118318838D01*
X151250606Y-118318845D01*
X151339089Y-118318787D01*
X151407773Y-118318467D01*
X151459436Y-118317667D01*
X151496855Y-118316167D01*
X151522810Y-118313749D01*
X151540078Y-118310194D01*
X151551438Y-118305282D01*
X151559668Y-118298795D01*
X151564183Y-118294138D01*
X151570979Y-118285889D01*
X151576288Y-118275669D01*
X151580294Y-118260800D01*
X151583179Y-118238602D01*
X151585126Y-118206393D01*
X151586319Y-118161496D01*
X151586939Y-118101228D01*
X151587171Y-118022911D01*
X151587200Y-117956994D01*
X151587129Y-117864628D01*
X151586792Y-117792117D01*
X151586002Y-117736737D01*
X151584574Y-117695765D01*
X151582321Y-117666478D01*
X151579057Y-117646153D01*
X151574596Y-117632066D01*
X151568752Y-117621495D01*
X151563803Y-117614811D01*
X151540406Y-117585067D01*
X151250226Y-117585067D01*
X151153657Y-117585260D01*
X151153657Y-117585260D01*
G37*
X151153657Y-117585260D02*
X151077299Y-117586174D01*
X151018783Y-117588311D01*
X150975745Y-117592175D01*
X150945817Y-117598267D01*
X150926632Y-117607090D01*
X150915824Y-117619146D01*
X150911027Y-117634939D01*
X150909873Y-117654970D01*
X150909867Y-117657335D01*
X150910869Y-117679992D01*
X150915604Y-117697503D01*
X150926667Y-117710574D01*
X150946652Y-117719913D01*
X150978154Y-117726227D01*
X151023768Y-117730222D01*
X151086087Y-117732606D01*
X151167707Y-117734086D01*
X151192723Y-117734414D01*
X151434800Y-117737467D01*
X151438186Y-117802378D01*
X151441571Y-117867289D01*
X151273424Y-117867289D01*
X151207734Y-117867531D01*
X151160828Y-117868556D01*
X151128917Y-117870811D01*
X151108209Y-117874742D01*
X151094916Y-117880798D01*
X151085245Y-117889424D01*
X151085183Y-117889493D01*
X151067644Y-117923112D01*
X151068278Y-117959448D01*
X151086686Y-117990423D01*
X151090329Y-117993607D01*
X151103259Y-118001812D01*
X151120976Y-118007521D01*
X151147430Y-118011162D01*
X151186568Y-118013167D01*
X151242338Y-118013964D01*
X151278006Y-118014045D01*
X151440445Y-118014045D01*
X151440445Y-118172089D01*
X151193839Y-118172089D01*
X151112420Y-118172231D01*
X151050590Y-118172814D01*
X151005363Y-118174068D01*
X150973752Y-118176227D01*
X150952769Y-118179523D01*
X150939427Y-118184189D01*
X150930739Y-118190457D01*
X150928550Y-118192733D01*
X150912386Y-118224280D01*
X150911203Y-118260168D01*
X150924464Y-118291285D01*
X150934957Y-118301271D01*
X150945871Y-118306769D01*
X150962783Y-118311022D01*
X150988367Y-118314180D01*
X151025299Y-118316392D01*
X151076254Y-118317806D01*
X151143906Y-118318572D01*
X151230931Y-118318838D01*
X151250606Y-118318845D01*
X151339089Y-118318787D01*
X151407773Y-118318467D01*
X151459436Y-118317667D01*
X151496855Y-118316167D01*
X151522810Y-118313749D01*
X151540078Y-118310194D01*
X151551438Y-118305282D01*
X151559668Y-118298795D01*
X151564183Y-118294138D01*
X151570979Y-118285889D01*
X151576288Y-118275669D01*
X151580294Y-118260800D01*
X151583179Y-118238602D01*
X151585126Y-118206393D01*
X151586319Y-118161496D01*
X151586939Y-118101228D01*
X151587171Y-118022911D01*
X151587200Y-117956994D01*
X151587129Y-117864628D01*
X151586792Y-117792117D01*
X151586002Y-117736737D01*
X151584574Y-117695765D01*
X151582321Y-117666478D01*
X151579057Y-117646153D01*
X151574596Y-117632066D01*
X151568752Y-117621495D01*
X151563803Y-117614811D01*
X151540406Y-117585067D01*
X151250226Y-117585067D01*
X151153657Y-117585260D01*
G36*
X150365691Y-117585275D02*
X150236712Y-117589636D01*
X150127009Y-117602861D01*
X150034774Y-117625741D01*
X149958198Y-117659070D01*
X149895473Y-117703638D01*
X149844788Y-117760236D01*
X149804337Y-117829658D01*
X149803541Y-117831351D01*
X149779399Y-117893483D01*
X149770797Y-117948509D01*
X149777769Y-118003887D01*
X149800346Y-118067073D01*
X149804628Y-118076689D01*
X149833828Y-118132966D01*
X149866644Y-118176451D01*
X149908998Y-118213417D01*
X149966810Y-118250135D01*
X149970169Y-118252052D01*
X150020496Y-118276227D01*
X150077379Y-118294282D01*
X150144473Y-118306839D01*
X150225435Y-118314522D01*
X150323918Y-118317953D01*
X150358714Y-118318251D01*
X150524406Y-118318845D01*
X150547803Y-118289100D01*
X150554743Y-118279319D01*
X150560158Y-118267897D01*
X150564235Y-118252095D01*
X150567163Y-118229175D01*
X150569133Y-118196396D01*
X150569775Y-118172089D01*
X150413156Y-118172089D01*
X150319274Y-118172089D01*
X150264336Y-118170483D01*
X150207940Y-118166255D01*
X150161655Y-118160292D01*
X150158861Y-118159790D01*
X150076652Y-118137736D01*
X150012886Y-118104600D01*
X149965548Y-118058847D01*
X149932618Y-117998939D01*
X149926892Y-117983061D01*
X149921279Y-117958333D01*
X149923709Y-117933902D01*
X149935533Y-117901400D01*
X149942660Y-117885434D01*
X149966000Y-117843006D01*
X149994120Y-117813240D01*
X150025060Y-117792511D01*
X150087034Y-117765537D01*
X150166349Y-117745998D01*
X150258747Y-117734746D01*
X150325667Y-117732270D01*
X150413156Y-117731822D01*
X150413156Y-118172089D01*
X150569775Y-118172089D01*
X150570332Y-118151021D01*
X150570950Y-118090311D01*
X150571175Y-118011526D01*
X150571200Y-117949920D01*
X150571200Y-117640485D01*
X150543491Y-117612776D01*
X150531194Y-117601544D01*
X150517897Y-117593853D01*
X150499328Y-117589040D01*
X150471214Y-117586446D01*
X150429283Y-117585410D01*
X150369263Y-117585270D01*
X150365691Y-117585275D01*
X150365691Y-117585275D01*
G37*
X150365691Y-117585275D02*
X150236712Y-117589636D01*
X150127009Y-117602861D01*
X150034774Y-117625741D01*
X149958198Y-117659070D01*
X149895473Y-117703638D01*
X149844788Y-117760236D01*
X149804337Y-117829658D01*
X149803541Y-117831351D01*
X149779399Y-117893483D01*
X149770797Y-117948509D01*
X149777769Y-118003887D01*
X149800346Y-118067073D01*
X149804628Y-118076689D01*
X149833828Y-118132966D01*
X149866644Y-118176451D01*
X149908998Y-118213417D01*
X149966810Y-118250135D01*
X149970169Y-118252052D01*
X150020496Y-118276227D01*
X150077379Y-118294282D01*
X150144473Y-118306839D01*
X150225435Y-118314522D01*
X150323918Y-118317953D01*
X150358714Y-118318251D01*
X150524406Y-118318845D01*
X150547803Y-118289100D01*
X150554743Y-118279319D01*
X150560158Y-118267897D01*
X150564235Y-118252095D01*
X150567163Y-118229175D01*
X150569133Y-118196396D01*
X150569775Y-118172089D01*
X150413156Y-118172089D01*
X150319274Y-118172089D01*
X150264336Y-118170483D01*
X150207940Y-118166255D01*
X150161655Y-118160292D01*
X150158861Y-118159790D01*
X150076652Y-118137736D01*
X150012886Y-118104600D01*
X149965548Y-118058847D01*
X149932618Y-117998939D01*
X149926892Y-117983061D01*
X149921279Y-117958333D01*
X149923709Y-117933902D01*
X149935533Y-117901400D01*
X149942660Y-117885434D01*
X149966000Y-117843006D01*
X149994120Y-117813240D01*
X150025060Y-117792511D01*
X150087034Y-117765537D01*
X150166349Y-117745998D01*
X150258747Y-117734746D01*
X150325667Y-117732270D01*
X150413156Y-117731822D01*
X150413156Y-118172089D01*
X150569775Y-118172089D01*
X150570332Y-118151021D01*
X150570950Y-118090311D01*
X150571175Y-118011526D01*
X150571200Y-117949920D01*
X150571200Y-117640485D01*
X150543491Y-117612776D01*
X150531194Y-117601544D01*
X150517897Y-117593853D01*
X150499328Y-117589040D01*
X150471214Y-117586446D01*
X150429283Y-117585410D01*
X150369263Y-117585270D01*
X150365691Y-117585275D01*
G36*
X147639335Y-117587034D02*
X147619745Y-117594035D01*
X147618990Y-117594377D01*
X147592387Y-117614678D01*
X147577730Y-117635561D01*
X147574862Y-117645352D01*
X147575004Y-117658361D01*
X147579039Y-117676895D01*
X147587854Y-117703257D01*
X147602331Y-117739752D01*
X147623355Y-117788687D01*
X147651812Y-117852365D01*
X147688585Y-117933093D01*
X147708825Y-117977216D01*
X147745375Y-118055985D01*
X147779685Y-118128423D01*
X147810448Y-118191880D01*
X147836352Y-118243708D01*
X147856090Y-118281259D01*
X147868350Y-118301884D01*
X147870776Y-118304733D01*
X147901817Y-118317302D01*
X147936879Y-118315619D01*
X147965000Y-118300332D01*
X147966146Y-118299089D01*
X147977332Y-118282154D01*
X147996096Y-118249170D01*
X148020125Y-118204380D01*
X148047103Y-118152032D01*
X148056799Y-118132742D01*
X148129986Y-117986150D01*
X148209760Y-118145393D01*
X148238233Y-118200415D01*
X148264650Y-118248132D01*
X148286852Y-118284893D01*
X148302681Y-118307044D01*
X148308046Y-118311741D01*
X148349743Y-118318102D01*
X148384151Y-118304733D01*
X148394272Y-118290446D01*
X148411786Y-118258692D01*
X148435265Y-118212597D01*
X148463280Y-118155285D01*
X148494401Y-118089880D01*
X148527201Y-118019507D01*
X148560250Y-117947291D01*
X148592119Y-117876355D01*
X148621381Y-117809825D01*
X148646605Y-117750826D01*
X148666364Y-117702481D01*
X148679228Y-117667915D01*
X148683769Y-117650253D01*
X148683723Y-117649613D01*
X148672674Y-117627388D01*
X148650590Y-117604753D01*
X148649290Y-117603768D01*
X148622147Y-117588425D01*
X148597042Y-117588574D01*
X148587632Y-117591466D01*
X148576166Y-117597718D01*
X148563990Y-117610014D01*
X148549643Y-117630908D01*
X148531664Y-117662949D01*
X148508593Y-117708688D01*
X148478970Y-117770677D01*
X148452255Y-117827898D01*
X148421520Y-117894226D01*
X148393979Y-117953874D01*
X148371062Y-118003725D01*
X148354202Y-118040664D01*
X148344827Y-118061573D01*
X148343460Y-118064845D01*
X148337311Y-118059497D01*
X148323178Y-118037109D01*
X148302943Y-118000946D01*
X148278485Y-117954277D01*
X148268752Y-117935022D01*
X148235783Y-117870004D01*
X148210357Y-117822654D01*
X148190388Y-117790219D01*
X148173790Y-117769946D01*
X148158476Y-117759082D01*
X148142360Y-117754875D01*
X148131857Y-117754400D01*
X148113330Y-117756042D01*
X148097096Y-117762831D01*
X148080965Y-117777566D01*
X148062749Y-117803044D01*
X148040261Y-117842061D01*
X148011311Y-117897414D01*
X147995338Y-117928903D01*
X147969430Y-117979087D01*
X147946833Y-118020704D01*
X147929542Y-118050242D01*
X147919550Y-118064189D01*
X147918191Y-118064770D01*
X147911739Y-118053793D01*
X147897292Y-118025290D01*
X147876297Y-117982244D01*
X147850203Y-117927638D01*
X147820454Y-117864454D01*
X147805820Y-117833071D01*
X147767750Y-117752078D01*
X147737095Y-117689756D01*
X147712263Y-117644071D01*
X147691663Y-117612989D01*
X147673702Y-117594478D01*
X147656790Y-117586504D01*
X147639335Y-117587034D01*
X147639335Y-117587034D01*
G37*
X147639335Y-117587034D02*
X147619745Y-117594035D01*
X147618990Y-117594377D01*
X147592387Y-117614678D01*
X147577730Y-117635561D01*
X147574862Y-117645352D01*
X147575004Y-117658361D01*
X147579039Y-117676895D01*
X147587854Y-117703257D01*
X147602331Y-117739752D01*
X147623355Y-117788687D01*
X147651812Y-117852365D01*
X147688585Y-117933093D01*
X147708825Y-117977216D01*
X147745375Y-118055985D01*
X147779685Y-118128423D01*
X147810448Y-118191880D01*
X147836352Y-118243708D01*
X147856090Y-118281259D01*
X147868350Y-118301884D01*
X147870776Y-118304733D01*
X147901817Y-118317302D01*
X147936879Y-118315619D01*
X147965000Y-118300332D01*
X147966146Y-118299089D01*
X147977332Y-118282154D01*
X147996096Y-118249170D01*
X148020125Y-118204380D01*
X148047103Y-118152032D01*
X148056799Y-118132742D01*
X148129986Y-117986150D01*
X148209760Y-118145393D01*
X148238233Y-118200415D01*
X148264650Y-118248132D01*
X148286852Y-118284893D01*
X148302681Y-118307044D01*
X148308046Y-118311741D01*
X148349743Y-118318102D01*
X148384151Y-118304733D01*
X148394272Y-118290446D01*
X148411786Y-118258692D01*
X148435265Y-118212597D01*
X148463280Y-118155285D01*
X148494401Y-118089880D01*
X148527201Y-118019507D01*
X148560250Y-117947291D01*
X148592119Y-117876355D01*
X148621381Y-117809825D01*
X148646605Y-117750826D01*
X148666364Y-117702481D01*
X148679228Y-117667915D01*
X148683769Y-117650253D01*
X148683723Y-117649613D01*
X148672674Y-117627388D01*
X148650590Y-117604753D01*
X148649290Y-117603768D01*
X148622147Y-117588425D01*
X148597042Y-117588574D01*
X148587632Y-117591466D01*
X148576166Y-117597718D01*
X148563990Y-117610014D01*
X148549643Y-117630908D01*
X148531664Y-117662949D01*
X148508593Y-117708688D01*
X148478970Y-117770677D01*
X148452255Y-117827898D01*
X148421520Y-117894226D01*
X148393979Y-117953874D01*
X148371062Y-118003725D01*
X148354202Y-118040664D01*
X148344827Y-118061573D01*
X148343460Y-118064845D01*
X148337311Y-118059497D01*
X148323178Y-118037109D01*
X148302943Y-118000946D01*
X148278485Y-117954277D01*
X148268752Y-117935022D01*
X148235783Y-117870004D01*
X148210357Y-117822654D01*
X148190388Y-117790219D01*
X148173790Y-117769946D01*
X148158476Y-117759082D01*
X148142360Y-117754875D01*
X148131857Y-117754400D01*
X148113330Y-117756042D01*
X148097096Y-117762831D01*
X148080965Y-117777566D01*
X148062749Y-117803044D01*
X148040261Y-117842061D01*
X148011311Y-117897414D01*
X147995338Y-117928903D01*
X147969430Y-117979087D01*
X147946833Y-118020704D01*
X147929542Y-118050242D01*
X147919550Y-118064189D01*
X147918191Y-118064770D01*
X147911739Y-118053793D01*
X147897292Y-118025290D01*
X147876297Y-117982244D01*
X147850203Y-117927638D01*
X147820454Y-117864454D01*
X147805820Y-117833071D01*
X147767750Y-117752078D01*
X147737095Y-117689756D01*
X147712263Y-117644071D01*
X147691663Y-117612989D01*
X147673702Y-117594478D01*
X147656790Y-117586504D01*
X147639335Y-117587034D01*
G36*
X147195386Y-117591877D02*
X147171673Y-117606647D01*
X147145022Y-117628227D01*
X147145022Y-117949773D01*
X147145107Y-118043830D01*
X147145471Y-118117932D01*
X147146276Y-118174704D01*
X147147687Y-118216768D01*
X147149867Y-118246748D01*
X147152979Y-118267267D01*
X147157186Y-118280949D01*
X147162652Y-118290416D01*
X147166528Y-118295082D01*
X147197966Y-118315575D01*
X147233767Y-118314739D01*
X147265127Y-118297264D01*
X147291778Y-118275684D01*
X147291778Y-117628227D01*
X147265127Y-117606647D01*
X147239406Y-117590949D01*
X147218400Y-117585067D01*
X147195386Y-117591877D01*
X147195386Y-117591877D01*
G37*
X147195386Y-117591877D02*
X147171673Y-117606647D01*
X147145022Y-117628227D01*
X147145022Y-117949773D01*
X147145107Y-118043830D01*
X147145471Y-118117932D01*
X147146276Y-118174704D01*
X147147687Y-118216768D01*
X147149867Y-118246748D01*
X147152979Y-118267267D01*
X147157186Y-118280949D01*
X147162652Y-118290416D01*
X147166528Y-118295082D01*
X147197966Y-118315575D01*
X147233767Y-118314739D01*
X147265127Y-118297264D01*
X147291778Y-118275684D01*
X147291778Y-117628227D01*
X147265127Y-117606647D01*
X147239406Y-117590949D01*
X147218400Y-117585067D01*
X147195386Y-117591877D01*
G36*
X146420935Y-117585163D02*
X146342228Y-117585542D01*
X146281137Y-117586333D01*
X146235183Y-117587670D01*
X146201886Y-117589683D01*
X146178764Y-117592506D01*
X146163338Y-117596269D01*
X146153129Y-117601105D01*
X146148187Y-117604822D01*
X146122543Y-117637358D01*
X146119441Y-117671138D01*
X146135289Y-117701826D01*
X146145652Y-117714089D01*
X146156804Y-117722450D01*
X146172965Y-117727657D01*
X146198358Y-117730457D01*
X146237202Y-117731596D01*
X146293720Y-117731821D01*
X146304820Y-117731822D01*
X146450756Y-117731822D01*
X146450756Y-118002756D01*
X146450852Y-118088154D01*
X146451289Y-118153864D01*
X146452288Y-118202774D01*
X146454072Y-118237773D01*
X146456863Y-118261749D01*
X146460883Y-118277593D01*
X146466355Y-118288191D01*
X146473334Y-118296267D01*
X146506266Y-118316112D01*
X146540646Y-118314548D01*
X146571824Y-118291906D01*
X146574114Y-118289100D01*
X146581571Y-118278492D01*
X146587253Y-118266081D01*
X146591399Y-118248850D01*
X146594250Y-118223784D01*
X146596046Y-118187867D01*
X146597028Y-118138083D01*
X146597436Y-118071417D01*
X146597511Y-117995589D01*
X146597511Y-117731822D01*
X146736873Y-117731822D01*
X146796678Y-117731418D01*
X146838082Y-117729840D01*
X146865252Y-117726547D01*
X146882354Y-117720992D01*
X146893557Y-117712631D01*
X146894917Y-117711178D01*
X146911275Y-117677939D01*
X146909828Y-117640362D01*
X146891022Y-117607645D01*
X146883750Y-117601298D01*
X146874373Y-117596266D01*
X146860391Y-117592396D01*
X146839304Y-117589537D01*
X146808611Y-117587535D01*
X146765811Y-117586239D01*
X146708405Y-117585498D01*
X146633890Y-117585158D01*
X146539767Y-117585068D01*
X146519740Y-117585067D01*
X146420935Y-117585163D01*
X146420935Y-117585163D01*
G37*
X146420935Y-117585163D02*
X146342228Y-117585542D01*
X146281137Y-117586333D01*
X146235183Y-117587670D01*
X146201886Y-117589683D01*
X146178764Y-117592506D01*
X146163338Y-117596269D01*
X146153129Y-117601105D01*
X146148187Y-117604822D01*
X146122543Y-117637358D01*
X146119441Y-117671138D01*
X146135289Y-117701826D01*
X146145652Y-117714089D01*
X146156804Y-117722450D01*
X146172965Y-117727657D01*
X146198358Y-117730457D01*
X146237202Y-117731596D01*
X146293720Y-117731821D01*
X146304820Y-117731822D01*
X146450756Y-117731822D01*
X146450756Y-118002756D01*
X146450852Y-118088154D01*
X146451289Y-118153864D01*
X146452288Y-118202774D01*
X146454072Y-118237773D01*
X146456863Y-118261749D01*
X146460883Y-118277593D01*
X146466355Y-118288191D01*
X146473334Y-118296267D01*
X146506266Y-118316112D01*
X146540646Y-118314548D01*
X146571824Y-118291906D01*
X146574114Y-118289100D01*
X146581571Y-118278492D01*
X146587253Y-118266081D01*
X146591399Y-118248850D01*
X146594250Y-118223784D01*
X146596046Y-118187867D01*
X146597028Y-118138083D01*
X146597436Y-118071417D01*
X146597511Y-117995589D01*
X146597511Y-117731822D01*
X146736873Y-117731822D01*
X146796678Y-117731418D01*
X146838082Y-117729840D01*
X146865252Y-117726547D01*
X146882354Y-117720992D01*
X146893557Y-117712631D01*
X146894917Y-117711178D01*
X146911275Y-117677939D01*
X146909828Y-117640362D01*
X146891022Y-117607645D01*
X146883750Y-117601298D01*
X146874373Y-117596266D01*
X146860391Y-117592396D01*
X146839304Y-117589537D01*
X146808611Y-117587535D01*
X146765811Y-117586239D01*
X146708405Y-117585498D01*
X146633890Y-117585158D01*
X146539767Y-117585068D01*
X146519740Y-117585067D01*
X146420935Y-117585163D01*
G36*
X145155177Y-117590533D02*
X145123798Y-117612776D01*
X145096089Y-117640485D01*
X145096089Y-117949920D01*
X145096162Y-118041799D01*
X145096505Y-118113840D01*
X145097308Y-118168780D01*
X145098759Y-118209360D01*
X145101048Y-118238317D01*
X145104364Y-118258391D01*
X145108895Y-118272321D01*
X145114831Y-118282845D01*
X145119486Y-118289100D01*
X145150217Y-118313673D01*
X145185504Y-118316341D01*
X145217755Y-118301271D01*
X145228412Y-118292374D01*
X145235536Y-118280557D01*
X145239833Y-118261526D01*
X145242009Y-118230992D01*
X145242772Y-118184662D01*
X145242845Y-118148871D01*
X145242845Y-118014045D01*
X145739556Y-118014045D01*
X145739556Y-118136700D01*
X145740069Y-118192787D01*
X145742124Y-118231333D01*
X145746492Y-118257361D01*
X145753944Y-118275897D01*
X145762953Y-118289100D01*
X145793856Y-118313604D01*
X145828804Y-118316506D01*
X145862262Y-118299089D01*
X145871396Y-118289959D01*
X145877848Y-118277855D01*
X145882103Y-118259001D01*
X145884648Y-118229620D01*
X145885971Y-118185937D01*
X145886557Y-118124175D01*
X145886625Y-118110000D01*
X145887109Y-117993631D01*
X145887359Y-117897727D01*
X145887277Y-117820177D01*
X145886769Y-117758869D01*
X145885738Y-117711690D01*
X145884087Y-117676530D01*
X145881721Y-117651276D01*
X145878543Y-117633817D01*
X145874456Y-117622041D01*
X145869366Y-117613835D01*
X145863734Y-117607645D01*
X145831872Y-117587844D01*
X145798643Y-117590533D01*
X145767265Y-117612776D01*
X145754567Y-117627126D01*
X145746474Y-117642978D01*
X145741958Y-117665554D01*
X145739994Y-117700078D01*
X145739556Y-117751776D01*
X145739556Y-117867289D01*
X145242845Y-117867289D01*
X145242845Y-117748756D01*
X145242338Y-117694148D01*
X145240302Y-117657275D01*
X145235965Y-117633307D01*
X145228553Y-117617415D01*
X145220267Y-117607645D01*
X145188406Y-117587844D01*
X145155177Y-117590533D01*
X145155177Y-117590533D01*
G37*
X145155177Y-117590533D02*
X145123798Y-117612776D01*
X145096089Y-117640485D01*
X145096089Y-117949920D01*
X145096162Y-118041799D01*
X145096505Y-118113840D01*
X145097308Y-118168780D01*
X145098759Y-118209360D01*
X145101048Y-118238317D01*
X145104364Y-118258391D01*
X145108895Y-118272321D01*
X145114831Y-118282845D01*
X145119486Y-118289100D01*
X145150217Y-118313673D01*
X145185504Y-118316341D01*
X145217755Y-118301271D01*
X145228412Y-118292374D01*
X145235536Y-118280557D01*
X145239833Y-118261526D01*
X145242009Y-118230992D01*
X145242772Y-118184662D01*
X145242845Y-118148871D01*
X145242845Y-118014045D01*
X145739556Y-118014045D01*
X145739556Y-118136700D01*
X145740069Y-118192787D01*
X145742124Y-118231333D01*
X145746492Y-118257361D01*
X145753944Y-118275897D01*
X145762953Y-118289100D01*
X145793856Y-118313604D01*
X145828804Y-118316506D01*
X145862262Y-118299089D01*
X145871396Y-118289959D01*
X145877848Y-118277855D01*
X145882103Y-118259001D01*
X145884648Y-118229620D01*
X145885971Y-118185937D01*
X145886557Y-118124175D01*
X145886625Y-118110000D01*
X145887109Y-117993631D01*
X145887359Y-117897727D01*
X145887277Y-117820177D01*
X145886769Y-117758869D01*
X145885738Y-117711690D01*
X145884087Y-117676530D01*
X145881721Y-117651276D01*
X145878543Y-117633817D01*
X145874456Y-117622041D01*
X145869366Y-117613835D01*
X145863734Y-117607645D01*
X145831872Y-117587844D01*
X145798643Y-117590533D01*
X145767265Y-117612776D01*
X145754567Y-117627126D01*
X145746474Y-117642978D01*
X145741958Y-117665554D01*
X145739994Y-117700078D01*
X145739556Y-117751776D01*
X145739556Y-117867289D01*
X145242845Y-117867289D01*
X145242845Y-117748756D01*
X145242338Y-117694148D01*
X145240302Y-117657275D01*
X145235965Y-117633307D01*
X145228553Y-117617415D01*
X145220267Y-117607645D01*
X145188406Y-117587844D01*
X145155177Y-117590533D01*
G36*
X154330400Y-112805054D02*
X154319535Y-112918993D01*
X154287918Y-113026616D01*
X154237015Y-113125615D01*
X154168293Y-113213684D01*
X154083219Y-113288516D01*
X153986232Y-113346384D01*
X153879964Y-113386005D01*
X153772950Y-113404573D01*
X153667300Y-113403434D01*
X153565125Y-113383930D01*
X153468534Y-113347406D01*
X153379638Y-113295205D01*
X153300546Y-113228673D01*
X153233369Y-113149152D01*
X153180217Y-113057987D01*
X153143199Y-112956523D01*
X153124427Y-112846102D01*
X153122489Y-112796206D01*
X153122489Y-112708267D01*
X153070560Y-112708267D01*
X153034253Y-112711111D01*
X153007355Y-112722911D01*
X152980249Y-112746649D01*
X152941867Y-112785031D01*
X152941867Y-114976602D01*
X152941876Y-115238739D01*
X152941908Y-115479241D01*
X152941972Y-115699048D01*
X152942076Y-115899101D01*
X152942227Y-116080344D01*
X152942434Y-116243716D01*
X152942706Y-116390160D01*
X152943050Y-116520617D01*
X152943474Y-116636029D01*
X152943987Y-116737338D01*
X152944597Y-116825484D01*
X152945312Y-116901410D01*
X152946140Y-116966057D01*
X152947089Y-117020367D01*
X152948167Y-117065280D01*
X152949383Y-117101740D01*
X152950745Y-117130687D01*
X152952261Y-117153063D01*
X152953938Y-117169809D01*
X152955786Y-117181868D01*
X152957813Y-117190180D01*
X152960025Y-117195687D01*
X152961108Y-117197537D01*
X152965271Y-117204549D01*
X152968805Y-117210996D01*
X152972635Y-117216900D01*
X152977682Y-117222286D01*
X152984871Y-117227178D01*
X152995123Y-117231598D01*
X153009364Y-117235572D01*
X153028514Y-117239121D01*
X153053499Y-117242270D01*
X153085240Y-117245042D01*
X153124662Y-117247461D01*
X153172686Y-117249551D01*
X153230237Y-117251335D01*
X153298237Y-117252837D01*
X153377610Y-117254080D01*
X153469279Y-117255089D01*
X153574166Y-117255885D01*
X153693196Y-117256494D01*
X153827290Y-117256939D01*
X153977373Y-117257243D01*
X154144367Y-117257430D01*
X154329196Y-117257524D01*
X154532783Y-117257548D01*
X154756050Y-117257525D01*
X154999922Y-117257480D01*
X155265321Y-117257437D01*
X155303704Y-117257432D01*
X155570682Y-117257389D01*
X155816002Y-117257318D01*
X156040583Y-117257213D01*
X156245345Y-117257066D01*
X156431206Y-117256869D01*
X156599088Y-117256616D01*
X156749908Y-117256300D01*
X156884587Y-117255913D01*
X157004044Y-117255447D01*
X157109199Y-117254897D01*
X157200971Y-117254253D01*
X157280279Y-117253511D01*
X157348043Y-117252661D01*
X157405182Y-117251697D01*
X157452617Y-117250611D01*
X157491266Y-117249397D01*
X157522049Y-117248047D01*
X157545885Y-117246555D01*
X157563694Y-117244911D01*
X157576395Y-117243111D01*
X157584908Y-117241145D01*
X157589266Y-117239477D01*
X157597728Y-117235906D01*
X157605497Y-117233270D01*
X157612602Y-117230634D01*
X157619073Y-117227062D01*
X157624939Y-117221621D01*
X157630229Y-117213375D01*
X157634974Y-117201390D01*
X157639202Y-117184731D01*
X157642943Y-117162463D01*
X157646227Y-117133652D01*
X157649083Y-117097363D01*
X157651540Y-117052661D01*
X157653629Y-116998611D01*
X157655378Y-116934279D01*
X157656817Y-116858730D01*
X157657976Y-116771030D01*
X157658883Y-116670243D01*
X157659569Y-116555434D01*
X157660063Y-116425670D01*
X157660395Y-116280015D01*
X157660593Y-116117535D01*
X157660687Y-115937295D01*
X157660708Y-115738360D01*
X157660685Y-115519796D01*
X157660646Y-115280668D01*
X157660622Y-115020040D01*
X157660622Y-114977889D01*
X157660636Y-114714992D01*
X157660661Y-114473732D01*
X157660671Y-114253165D01*
X157660642Y-114052352D01*
X157660548Y-113870349D01*
X157660362Y-113706216D01*
X157660059Y-113559011D01*
X157659614Y-113427792D01*
X157659034Y-113317867D01*
X157356197Y-113317867D01*
X157316407Y-113375711D01*
X157305236Y-113391479D01*
X157295166Y-113405441D01*
X157286138Y-113418784D01*
X157278097Y-113432693D01*
X157270986Y-113448356D01*
X157264747Y-113466958D01*
X157259325Y-113489686D01*
X157254662Y-113517727D01*
X157250701Y-113552267D01*
X157247385Y-113594492D01*
X157244659Y-113645589D01*
X157242464Y-113706744D01*
X157240745Y-113779144D01*
X157239444Y-113863975D01*
X157238505Y-113962422D01*
X157237870Y-114075674D01*
X157237484Y-114204916D01*
X157237288Y-114351334D01*
X157237227Y-114516116D01*
X157237243Y-114700447D01*
X157237280Y-114905513D01*
X157237289Y-115028133D01*
X157237265Y-115245082D01*
X157237231Y-115440642D01*
X157237243Y-115615999D01*
X157237358Y-115772341D01*
X157237630Y-115910857D01*
X157238118Y-116032734D01*
X157238876Y-116139160D01*
X157239962Y-116231322D01*
X157241431Y-116310409D01*
X157243340Y-116377608D01*
X157245744Y-116434107D01*
X157248701Y-116481093D01*
X157252266Y-116519755D01*
X157256495Y-116551280D01*
X157261446Y-116576855D01*
X157267173Y-116597670D01*
X157273733Y-116614911D01*
X157281183Y-116629765D01*
X157289579Y-116643422D01*
X157298976Y-116657069D01*
X157309432Y-116671893D01*
X157315523Y-116680783D01*
X157354296Y-116738400D01*
X156822732Y-116738400D01*
X156699483Y-116738365D01*
X156596987Y-116738215D01*
X156513420Y-116737878D01*
X156446956Y-116737286D01*
X156395771Y-116736367D01*
X156358041Y-116735051D01*
X156331940Y-116733269D01*
X156315644Y-116730951D01*
X156307328Y-116728026D01*
X156305168Y-116724424D01*
X156307339Y-116720075D01*
X156308535Y-116718645D01*
X156333685Y-116681573D01*
X156359583Y-116628772D01*
X156383192Y-116566770D01*
X156391461Y-116540357D01*
X156396078Y-116522416D01*
X156399979Y-116501355D01*
X156403248Y-116475089D01*
X156405966Y-116441532D01*
X156408215Y-116398599D01*
X156410077Y-116344204D01*
X156411636Y-116276262D01*
X156412972Y-116192688D01*
X156414169Y-116091395D01*
X156415308Y-115970300D01*
X156415685Y-115925600D01*
X156416702Y-115800449D01*
X156417460Y-115696082D01*
X156417903Y-115610707D01*
X156417970Y-115542533D01*
X156417605Y-115489765D01*
X156416748Y-115450614D01*
X156415341Y-115423285D01*
X156413325Y-115405986D01*
X156410643Y-115396926D01*
X156407236Y-115394312D01*
X156403044Y-115396351D01*
X156398571Y-115400667D01*
X156388216Y-115413602D01*
X156366158Y-115442676D01*
X156333957Y-115485759D01*
X156293174Y-115540718D01*
X156245370Y-115605423D01*
X156192105Y-115677742D01*
X156134940Y-115755544D01*
X156075437Y-115836698D01*
X156015155Y-115919072D01*
X155955655Y-116000536D01*
X155898498Y-116078957D01*
X155845245Y-116152204D01*
X155797457Y-116218147D01*
X155756693Y-116274654D01*
X155724516Y-116319593D01*
X155702485Y-116350834D01*
X155697917Y-116357466D01*
X155674996Y-116394369D01*
X155648188Y-116442359D01*
X155622789Y-116491897D01*
X155619568Y-116498577D01*
X155597890Y-116546772D01*
X155585304Y-116584334D01*
X155579574Y-116620160D01*
X155578456Y-116662200D01*
X155579090Y-116738400D01*
X154424651Y-116738400D01*
X154515815Y-116644669D01*
X154562612Y-116594775D01*
X154612899Y-116538295D01*
X154658944Y-116484026D01*
X154679369Y-116458673D01*
X154709807Y-116419128D01*
X154749862Y-116365916D01*
X154798361Y-116300667D01*
X154854135Y-116225011D01*
X154916011Y-116140577D01*
X154982819Y-116048994D01*
X155053387Y-115951892D01*
X155126545Y-115850901D01*
X155201121Y-115747650D01*
X155275944Y-115643768D01*
X155349843Y-115540885D01*
X155421646Y-115440631D01*
X155490184Y-115344636D01*
X155554284Y-115254527D01*
X155612775Y-115171936D01*
X155664486Y-115098492D01*
X155708247Y-115035824D01*
X155742885Y-114985561D01*
X155767230Y-114949334D01*
X155780111Y-114928771D01*
X155781869Y-114924668D01*
X155773910Y-114913342D01*
X155753115Y-114886162D01*
X155720847Y-114844829D01*
X155678470Y-114791044D01*
X155627347Y-114726506D01*
X155568841Y-114652918D01*
X155504314Y-114571978D01*
X155435131Y-114485388D01*
X155362653Y-114394848D01*
X155288246Y-114302060D01*
X155228517Y-114227702D01*
X154217511Y-114227702D01*
X154211602Y-114240659D01*
X154197272Y-114262908D01*
X154196225Y-114264391D01*
X154177438Y-114294544D01*
X154157791Y-114331375D01*
X154153892Y-114339511D01*
X154150356Y-114347940D01*
X154147230Y-114358059D01*
X154144486Y-114371260D01*
X154142092Y-114388938D01*
X154140019Y-114412484D01*
X154138235Y-114443293D01*
X154136712Y-114482757D01*
X154135419Y-114532269D01*
X154134326Y-114593223D01*
X154133403Y-114667011D01*
X154132619Y-114755028D01*
X154131945Y-114858665D01*
X154131350Y-114979316D01*
X154130805Y-115118374D01*
X154130279Y-115277232D01*
X154129745Y-115456089D01*
X154129206Y-115641207D01*
X154128772Y-115805145D01*
X154128509Y-115949303D01*
X154128484Y-116075079D01*
X154128765Y-116183871D01*
X154129419Y-116277077D01*
X154130514Y-116356097D01*
X154132118Y-116422328D01*
X154134297Y-116477170D01*
X154137119Y-116522021D01*
X154140651Y-116558278D01*
X154144961Y-116587341D01*
X154150117Y-116610609D01*
X154156185Y-116629479D01*
X154163233Y-116645351D01*
X154171329Y-116659622D01*
X154180540Y-116673691D01*
X154189040Y-116686158D01*
X154206176Y-116712452D01*
X154216322Y-116730037D01*
X154217511Y-116733257D01*
X154206604Y-116734334D01*
X154175411Y-116735335D01*
X154126223Y-116736235D01*
X154061333Y-116737010D01*
X153983030Y-116737637D01*
X153893607Y-116738091D01*
X153795356Y-116738349D01*
X153726445Y-116738400D01*
X153621452Y-116738180D01*
X153524610Y-116737548D01*
X153438107Y-116736549D01*
X153364132Y-116735227D01*
X153304874Y-116733626D01*
X153262520Y-116731791D01*
X153239260Y-116729765D01*
X153235378Y-116728493D01*
X153243076Y-116713591D01*
X153251074Y-116705560D01*
X153264246Y-116688434D01*
X153281485Y-116658183D01*
X153293407Y-116633622D01*
X153320045Y-116574711D01*
X153323120Y-115397845D01*
X153326195Y-114220978D01*
X153771853Y-114220978D01*
X153869670Y-114221142D01*
X153960064Y-114221611D01*
X154040630Y-114222347D01*
X154108962Y-114223316D01*
X154162656Y-114224480D01*
X154199305Y-114225803D01*
X154216504Y-114227249D01*
X154217511Y-114227702D01*
X155228517Y-114227702D01*
X155213270Y-114208722D01*
X155139090Y-114116537D01*
X155067069Y-114027204D01*
X154998569Y-113942424D01*
X154934955Y-113863898D01*
X154877588Y-113793326D01*
X154827833Y-113732409D01*
X154787052Y-113682847D01*
X154769888Y-113662178D01*
X154683596Y-113561516D01*
X154606997Y-113478259D01*
X154538183Y-113410438D01*
X154475248Y-113356089D01*
X154465867Y-113348722D01*
X154426356Y-113318117D01*
X155558116Y-113317867D01*
X155552827Y-113365844D01*
X155556130Y-113423188D01*
X155577661Y-113491463D01*
X155617635Y-113571212D01*
X155662943Y-113643495D01*
X155679161Y-113666140D01*
X155707214Y-113703696D01*
X155745430Y-113754021D01*
X155792137Y-113814973D01*
X155845661Y-113884411D01*
X155904331Y-113960194D01*
X155966475Y-114040180D01*
X156030421Y-114122228D01*
X156094495Y-114204196D01*
X156157027Y-114283943D01*
X156216343Y-114359327D01*
X156270771Y-114428207D01*
X156318639Y-114488442D01*
X156358275Y-114537889D01*
X156388006Y-114574408D01*
X156406161Y-114595858D01*
X156409220Y-114599156D01*
X156412079Y-114591149D01*
X156414293Y-114560855D01*
X156415857Y-114508556D01*
X156416767Y-114434531D01*
X156417020Y-114339063D01*
X156416613Y-114222434D01*
X156415704Y-114102445D01*
X156414382Y-113970333D01*
X156412857Y-113858594D01*
X156410881Y-113765025D01*
X156408206Y-113687419D01*
X156404582Y-113623574D01*
X156399761Y-113571283D01*
X156393494Y-113528344D01*
X156385532Y-113492551D01*
X156375627Y-113461700D01*
X156363531Y-113433586D01*
X156348993Y-113406005D01*
X156334311Y-113380966D01*
X156296314Y-113317867D01*
X157356197Y-113317867D01*
X157659034Y-113317867D01*
X157659001Y-113311617D01*
X157658195Y-113209544D01*
X157657170Y-113120633D01*
X157655900Y-113043941D01*
X157654360Y-112978527D01*
X157652524Y-112923449D01*
X157650367Y-112877765D01*
X157647863Y-112840534D01*
X157644987Y-112810813D01*
X157641713Y-112787662D01*
X157638015Y-112770139D01*
X157633869Y-112757301D01*
X157629247Y-112748208D01*
X157624126Y-112741918D01*
X157618478Y-112737488D01*
X157612279Y-112733978D01*
X157605504Y-112730445D01*
X157599508Y-112726876D01*
X157594275Y-112724300D01*
X157586099Y-112721972D01*
X157573886Y-112719878D01*
X157556541Y-112718007D01*
X157532969Y-112716347D01*
X157502077Y-112714884D01*
X157462768Y-112713608D01*
X157413950Y-112712504D01*
X157354527Y-112711561D01*
X157283404Y-112710767D01*
X157199488Y-112710109D01*
X157101683Y-112709575D01*
X156988894Y-112709153D01*
X156860029Y-112708829D01*
X156713991Y-112708592D01*
X156549686Y-112708430D01*
X156366020Y-112708330D01*
X156161897Y-112708280D01*
X155950753Y-112708267D01*
X154330400Y-112708267D01*
X154330400Y-112805054D01*
X154330400Y-112805054D01*
G37*
X154330400Y-112805054D02*
X154319535Y-112918993D01*
X154287918Y-113026616D01*
X154237015Y-113125615D01*
X154168293Y-113213684D01*
X154083219Y-113288516D01*
X153986232Y-113346384D01*
X153879964Y-113386005D01*
X153772950Y-113404573D01*
X153667300Y-113403434D01*
X153565125Y-113383930D01*
X153468534Y-113347406D01*
X153379638Y-113295205D01*
X153300546Y-113228673D01*
X153233369Y-113149152D01*
X153180217Y-113057987D01*
X153143199Y-112956523D01*
X153124427Y-112846102D01*
X153122489Y-112796206D01*
X153122489Y-112708267D01*
X153070560Y-112708267D01*
X153034253Y-112711111D01*
X153007355Y-112722911D01*
X152980249Y-112746649D01*
X152941867Y-112785031D01*
X152941867Y-114976602D01*
X152941876Y-115238739D01*
X152941908Y-115479241D01*
X152941972Y-115699048D01*
X152942076Y-115899101D01*
X152942227Y-116080344D01*
X152942434Y-116243716D01*
X152942706Y-116390160D01*
X152943050Y-116520617D01*
X152943474Y-116636029D01*
X152943987Y-116737338D01*
X152944597Y-116825484D01*
X152945312Y-116901410D01*
X152946140Y-116966057D01*
X152947089Y-117020367D01*
X152948167Y-117065280D01*
X152949383Y-117101740D01*
X152950745Y-117130687D01*
X152952261Y-117153063D01*
X152953938Y-117169809D01*
X152955786Y-117181868D01*
X152957813Y-117190180D01*
X152960025Y-117195687D01*
X152961108Y-117197537D01*
X152965271Y-117204549D01*
X152968805Y-117210996D01*
X152972635Y-117216900D01*
X152977682Y-117222286D01*
X152984871Y-117227178D01*
X152995123Y-117231598D01*
X153009364Y-117235572D01*
X153028514Y-117239121D01*
X153053499Y-117242270D01*
X153085240Y-117245042D01*
X153124662Y-117247461D01*
X153172686Y-117249551D01*
X153230237Y-117251335D01*
X153298237Y-117252837D01*
X153377610Y-117254080D01*
X153469279Y-117255089D01*
X153574166Y-117255885D01*
X153693196Y-117256494D01*
X153827290Y-117256939D01*
X153977373Y-117257243D01*
X154144367Y-117257430D01*
X154329196Y-117257524D01*
X154532783Y-117257548D01*
X154756050Y-117257525D01*
X154999922Y-117257480D01*
X155265321Y-117257437D01*
X155303704Y-117257432D01*
X155570682Y-117257389D01*
X155816002Y-117257318D01*
X156040583Y-117257213D01*
X156245345Y-117257066D01*
X156431206Y-117256869D01*
X156599088Y-117256616D01*
X156749908Y-117256300D01*
X156884587Y-117255913D01*
X157004044Y-117255447D01*
X157109199Y-117254897D01*
X157200971Y-117254253D01*
X157280279Y-117253511D01*
X157348043Y-117252661D01*
X157405182Y-117251697D01*
X157452617Y-117250611D01*
X157491266Y-117249397D01*
X157522049Y-117248047D01*
X157545885Y-117246555D01*
X157563694Y-117244911D01*
X157576395Y-117243111D01*
X157584908Y-117241145D01*
X157589266Y-117239477D01*
X157597728Y-117235906D01*
X157605497Y-117233270D01*
X157612602Y-117230634D01*
X157619073Y-117227062D01*
X157624939Y-117221621D01*
X157630229Y-117213375D01*
X157634974Y-117201390D01*
X157639202Y-117184731D01*
X157642943Y-117162463D01*
X157646227Y-117133652D01*
X157649083Y-117097363D01*
X157651540Y-117052661D01*
X157653629Y-116998611D01*
X157655378Y-116934279D01*
X157656817Y-116858730D01*
X157657976Y-116771030D01*
X157658883Y-116670243D01*
X157659569Y-116555434D01*
X157660063Y-116425670D01*
X157660395Y-116280015D01*
X157660593Y-116117535D01*
X157660687Y-115937295D01*
X157660708Y-115738360D01*
X157660685Y-115519796D01*
X157660646Y-115280668D01*
X157660622Y-115020040D01*
X157660622Y-114977889D01*
X157660636Y-114714992D01*
X157660661Y-114473732D01*
X157660671Y-114253165D01*
X157660642Y-114052352D01*
X157660548Y-113870349D01*
X157660362Y-113706216D01*
X157660059Y-113559011D01*
X157659614Y-113427792D01*
X157659034Y-113317867D01*
X157356197Y-113317867D01*
X157316407Y-113375711D01*
X157305236Y-113391479D01*
X157295166Y-113405441D01*
X157286138Y-113418784D01*
X157278097Y-113432693D01*
X157270986Y-113448356D01*
X157264747Y-113466958D01*
X157259325Y-113489686D01*
X157254662Y-113517727D01*
X157250701Y-113552267D01*
X157247385Y-113594492D01*
X157244659Y-113645589D01*
X157242464Y-113706744D01*
X157240745Y-113779144D01*
X157239444Y-113863975D01*
X157238505Y-113962422D01*
X157237870Y-114075674D01*
X157237484Y-114204916D01*
X157237288Y-114351334D01*
X157237227Y-114516116D01*
X157237243Y-114700447D01*
X157237280Y-114905513D01*
X157237289Y-115028133D01*
X157237265Y-115245082D01*
X157237231Y-115440642D01*
X157237243Y-115615999D01*
X157237358Y-115772341D01*
X157237630Y-115910857D01*
X157238118Y-116032734D01*
X157238876Y-116139160D01*
X157239962Y-116231322D01*
X157241431Y-116310409D01*
X157243340Y-116377608D01*
X157245744Y-116434107D01*
X157248701Y-116481093D01*
X157252266Y-116519755D01*
X157256495Y-116551280D01*
X157261446Y-116576855D01*
X157267173Y-116597670D01*
X157273733Y-116614911D01*
X157281183Y-116629765D01*
X157289579Y-116643422D01*
X157298976Y-116657069D01*
X157309432Y-116671893D01*
X157315523Y-116680783D01*
X157354296Y-116738400D01*
X156822732Y-116738400D01*
X156699483Y-116738365D01*
X156596987Y-116738215D01*
X156513420Y-116737878D01*
X156446956Y-116737286D01*
X156395771Y-116736367D01*
X156358041Y-116735051D01*
X156331940Y-116733269D01*
X156315644Y-116730951D01*
X156307328Y-116728026D01*
X156305168Y-116724424D01*
X156307339Y-116720075D01*
X156308535Y-116718645D01*
X156333685Y-116681573D01*
X156359583Y-116628772D01*
X156383192Y-116566770D01*
X156391461Y-116540357D01*
X156396078Y-116522416D01*
X156399979Y-116501355D01*
X156403248Y-116475089D01*
X156405966Y-116441532D01*
X156408215Y-116398599D01*
X156410077Y-116344204D01*
X156411636Y-116276262D01*
X156412972Y-116192688D01*
X156414169Y-116091395D01*
X156415308Y-115970300D01*
X156415685Y-115925600D01*
X156416702Y-115800449D01*
X156417460Y-115696082D01*
X156417903Y-115610707D01*
X156417970Y-115542533D01*
X156417605Y-115489765D01*
X156416748Y-115450614D01*
X156415341Y-115423285D01*
X156413325Y-115405986D01*
X156410643Y-115396926D01*
X156407236Y-115394312D01*
X156403044Y-115396351D01*
X156398571Y-115400667D01*
X156388216Y-115413602D01*
X156366158Y-115442676D01*
X156333957Y-115485759D01*
X156293174Y-115540718D01*
X156245370Y-115605423D01*
X156192105Y-115677742D01*
X156134940Y-115755544D01*
X156075437Y-115836698D01*
X156015155Y-115919072D01*
X155955655Y-116000536D01*
X155898498Y-116078957D01*
X155845245Y-116152204D01*
X155797457Y-116218147D01*
X155756693Y-116274654D01*
X155724516Y-116319593D01*
X155702485Y-116350834D01*
X155697917Y-116357466D01*
X155674996Y-116394369D01*
X155648188Y-116442359D01*
X155622789Y-116491897D01*
X155619568Y-116498577D01*
X155597890Y-116546772D01*
X155585304Y-116584334D01*
X155579574Y-116620160D01*
X155578456Y-116662200D01*
X155579090Y-116738400D01*
X154424651Y-116738400D01*
X154515815Y-116644669D01*
X154562612Y-116594775D01*
X154612899Y-116538295D01*
X154658944Y-116484026D01*
X154679369Y-116458673D01*
X154709807Y-116419128D01*
X154749862Y-116365916D01*
X154798361Y-116300667D01*
X154854135Y-116225011D01*
X154916011Y-116140577D01*
X154982819Y-116048994D01*
X155053387Y-115951892D01*
X155126545Y-115850901D01*
X155201121Y-115747650D01*
X155275944Y-115643768D01*
X155349843Y-115540885D01*
X155421646Y-115440631D01*
X155490184Y-115344636D01*
X155554284Y-115254527D01*
X155612775Y-115171936D01*
X155664486Y-115098492D01*
X155708247Y-115035824D01*
X155742885Y-114985561D01*
X155767230Y-114949334D01*
X155780111Y-114928771D01*
X155781869Y-114924668D01*
X155773910Y-114913342D01*
X155753115Y-114886162D01*
X155720847Y-114844829D01*
X155678470Y-114791044D01*
X155627347Y-114726506D01*
X155568841Y-114652918D01*
X155504314Y-114571978D01*
X155435131Y-114485388D01*
X155362653Y-114394848D01*
X155288246Y-114302060D01*
X155228517Y-114227702D01*
X154217511Y-114227702D01*
X154211602Y-114240659D01*
X154197272Y-114262908D01*
X154196225Y-114264391D01*
X154177438Y-114294544D01*
X154157791Y-114331375D01*
X154153892Y-114339511D01*
X154150356Y-114347940D01*
X154147230Y-114358059D01*
X154144486Y-114371260D01*
X154142092Y-114388938D01*
X154140019Y-114412484D01*
X154138235Y-114443293D01*
X154136712Y-114482757D01*
X154135419Y-114532269D01*
X154134326Y-114593223D01*
X154133403Y-114667011D01*
X154132619Y-114755028D01*
X154131945Y-114858665D01*
X154131350Y-114979316D01*
X154130805Y-115118374D01*
X154130279Y-115277232D01*
X154129745Y-115456089D01*
X154129206Y-115641207D01*
X154128772Y-115805145D01*
X154128509Y-115949303D01*
X154128484Y-116075079D01*
X154128765Y-116183871D01*
X154129419Y-116277077D01*
X154130514Y-116356097D01*
X154132118Y-116422328D01*
X154134297Y-116477170D01*
X154137119Y-116522021D01*
X154140651Y-116558278D01*
X154144961Y-116587341D01*
X154150117Y-116610609D01*
X154156185Y-116629479D01*
X154163233Y-116645351D01*
X154171329Y-116659622D01*
X154180540Y-116673691D01*
X154189040Y-116686158D01*
X154206176Y-116712452D01*
X154216322Y-116730037D01*
X154217511Y-116733257D01*
X154206604Y-116734334D01*
X154175411Y-116735335D01*
X154126223Y-116736235D01*
X154061333Y-116737010D01*
X153983030Y-116737637D01*
X153893607Y-116738091D01*
X153795356Y-116738349D01*
X153726445Y-116738400D01*
X153621452Y-116738180D01*
X153524610Y-116737548D01*
X153438107Y-116736549D01*
X153364132Y-116735227D01*
X153304874Y-116733626D01*
X153262520Y-116731791D01*
X153239260Y-116729765D01*
X153235378Y-116728493D01*
X153243076Y-116713591D01*
X153251074Y-116705560D01*
X153264246Y-116688434D01*
X153281485Y-116658183D01*
X153293407Y-116633622D01*
X153320045Y-116574711D01*
X153323120Y-115397845D01*
X153326195Y-114220978D01*
X153771853Y-114220978D01*
X153869670Y-114221142D01*
X153960064Y-114221611D01*
X154040630Y-114222347D01*
X154108962Y-114223316D01*
X154162656Y-114224480D01*
X154199305Y-114225803D01*
X154216504Y-114227249D01*
X154217511Y-114227702D01*
X155228517Y-114227702D01*
X155213270Y-114208722D01*
X155139090Y-114116537D01*
X155067069Y-114027204D01*
X154998569Y-113942424D01*
X154934955Y-113863898D01*
X154877588Y-113793326D01*
X154827833Y-113732409D01*
X154787052Y-113682847D01*
X154769888Y-113662178D01*
X154683596Y-113561516D01*
X154606997Y-113478259D01*
X154538183Y-113410438D01*
X154475248Y-113356089D01*
X154465867Y-113348722D01*
X154426356Y-113318117D01*
X155558116Y-113317867D01*
X155552827Y-113365844D01*
X155556130Y-113423188D01*
X155577661Y-113491463D01*
X155617635Y-113571212D01*
X155662943Y-113643495D01*
X155679161Y-113666140D01*
X155707214Y-113703696D01*
X155745430Y-113754021D01*
X155792137Y-113814973D01*
X155845661Y-113884411D01*
X155904331Y-113960194D01*
X155966475Y-114040180D01*
X156030421Y-114122228D01*
X156094495Y-114204196D01*
X156157027Y-114283943D01*
X156216343Y-114359327D01*
X156270771Y-114428207D01*
X156318639Y-114488442D01*
X156358275Y-114537889D01*
X156388006Y-114574408D01*
X156406161Y-114595858D01*
X156409220Y-114599156D01*
X156412079Y-114591149D01*
X156414293Y-114560855D01*
X156415857Y-114508556D01*
X156416767Y-114434531D01*
X156417020Y-114339063D01*
X156416613Y-114222434D01*
X156415704Y-114102445D01*
X156414382Y-113970333D01*
X156412857Y-113858594D01*
X156410881Y-113765025D01*
X156408206Y-113687419D01*
X156404582Y-113623574D01*
X156399761Y-113571283D01*
X156393494Y-113528344D01*
X156385532Y-113492551D01*
X156375627Y-113461700D01*
X156363531Y-113433586D01*
X156348993Y-113406005D01*
X156334311Y-113380966D01*
X156296314Y-113317867D01*
X157356197Y-113317867D01*
X157659034Y-113317867D01*
X157659001Y-113311617D01*
X157658195Y-113209544D01*
X157657170Y-113120633D01*
X157655900Y-113043941D01*
X157654360Y-112978527D01*
X157652524Y-112923449D01*
X157650367Y-112877765D01*
X157647863Y-112840534D01*
X157644987Y-112810813D01*
X157641713Y-112787662D01*
X157638015Y-112770139D01*
X157633869Y-112757301D01*
X157629247Y-112748208D01*
X157624126Y-112741918D01*
X157618478Y-112737488D01*
X157612279Y-112733978D01*
X157605504Y-112730445D01*
X157599508Y-112726876D01*
X157594275Y-112724300D01*
X157586099Y-112721972D01*
X157573886Y-112719878D01*
X157556541Y-112718007D01*
X157532969Y-112716347D01*
X157502077Y-112714884D01*
X157462768Y-112713608D01*
X157413950Y-112712504D01*
X157354527Y-112711561D01*
X157283404Y-112710767D01*
X157199488Y-112710109D01*
X157101683Y-112709575D01*
X156988894Y-112709153D01*
X156860029Y-112708829D01*
X156713991Y-112708592D01*
X156549686Y-112708430D01*
X156366020Y-112708330D01*
X156161897Y-112708280D01*
X155950753Y-112708267D01*
X154330400Y-112708267D01*
X154330400Y-112805054D01*
G36*
X151055571Y-113265071D02*
X150895430Y-113286245D01*
X150731490Y-113326385D01*
X150561687Y-113385889D01*
X150383957Y-113465154D01*
X150372690Y-113470699D01*
X150314995Y-113498725D01*
X150263448Y-113522802D01*
X150221809Y-113541249D01*
X150193838Y-113552386D01*
X150184267Y-113554933D01*
X150165050Y-113559941D01*
X150160439Y-113564147D01*
X150165542Y-113574580D01*
X150181582Y-113600868D01*
X150206712Y-113640257D01*
X150239086Y-113689991D01*
X150276857Y-113747315D01*
X150318178Y-113809476D01*
X150361202Y-113873718D01*
X150404083Y-113937285D01*
X150444974Y-113997425D01*
X150482029Y-114051380D01*
X150513400Y-114096397D01*
X150537241Y-114129721D01*
X150551706Y-114148597D01*
X150553691Y-114150787D01*
X150563809Y-114146138D01*
X150586150Y-114128962D01*
X150616720Y-114102440D01*
X150632464Y-114087964D01*
X150728953Y-114012682D01*
X150835664Y-113957241D01*
X150951168Y-113922141D01*
X151074038Y-113907880D01*
X151143439Y-113909051D01*
X151264577Y-113926212D01*
X151373795Y-113962094D01*
X151471418Y-114016959D01*
X151557772Y-114091070D01*
X151633185Y-114184688D01*
X151697982Y-114298076D01*
X151735399Y-114384667D01*
X151779252Y-114520366D01*
X151811572Y-114667850D01*
X151832443Y-114823314D01*
X151841949Y-114982956D01*
X151840173Y-115142973D01*
X151827197Y-115299561D01*
X151803106Y-115448918D01*
X151767982Y-115587240D01*
X151721908Y-115710724D01*
X151705627Y-115744978D01*
X151637380Y-115859064D01*
X151556921Y-115955557D01*
X151465430Y-116033670D01*
X151364089Y-116092617D01*
X151254080Y-116131612D01*
X151136585Y-116149868D01*
X151095117Y-116151211D01*
X150973559Y-116140290D01*
X150853122Y-116107474D01*
X150735334Y-116053439D01*
X150621723Y-115978865D01*
X150530315Y-115900539D01*
X150483785Y-115856008D01*
X150302517Y-116153271D01*
X150257420Y-116227433D01*
X150216181Y-116295646D01*
X150180265Y-116355459D01*
X150151134Y-116404420D01*
X150130250Y-116440079D01*
X150119076Y-116459984D01*
X150117625Y-116463079D01*
X150125854Y-116472718D01*
X150151433Y-116489999D01*
X150191127Y-116513283D01*
X150241703Y-116540934D01*
X150299926Y-116571315D01*
X150362563Y-116602790D01*
X150426379Y-116633722D01*
X150488140Y-116662473D01*
X150544612Y-116687408D01*
X150592562Y-116706889D01*
X150616014Y-116715318D01*
X150749779Y-116753133D01*
X150887673Y-116778136D01*
X151035378Y-116791140D01*
X151162167Y-116793468D01*
X151230122Y-116792373D01*
X151295723Y-116790275D01*
X151353153Y-116787434D01*
X151396597Y-116784106D01*
X151410702Y-116782422D01*
X151549716Y-116753587D01*
X151691243Y-116708468D01*
X151828725Y-116649750D01*
X151955606Y-116580120D01*
X152033111Y-116527441D01*
X152160519Y-116419239D01*
X152278822Y-116292671D01*
X152385828Y-116150866D01*
X152479348Y-115996951D01*
X152557190Y-115834053D01*
X152601044Y-115716756D01*
X152651292Y-115533128D01*
X152684791Y-115338581D01*
X152701551Y-115137325D01*
X152701584Y-114933568D01*
X152684899Y-114731521D01*
X152651507Y-114535392D01*
X152601420Y-114349391D01*
X152597603Y-114337803D01*
X152534719Y-114175750D01*
X152457972Y-114027832D01*
X152364758Y-113889865D01*
X152252473Y-113757661D01*
X152208608Y-113712399D01*
X152072466Y-113588457D01*
X151932509Y-113485915D01*
X151786589Y-113403656D01*
X151632558Y-113340564D01*
X151468268Y-113295523D01*
X151372711Y-113278033D01*
X151213977Y-113262466D01*
X151055571Y-113265071D01*
X151055571Y-113265071D01*
G37*
X151055571Y-113265071D02*
X150895430Y-113286245D01*
X150731490Y-113326385D01*
X150561687Y-113385889D01*
X150383957Y-113465154D01*
X150372690Y-113470699D01*
X150314995Y-113498725D01*
X150263448Y-113522802D01*
X150221809Y-113541249D01*
X150193838Y-113552386D01*
X150184267Y-113554933D01*
X150165050Y-113559941D01*
X150160439Y-113564147D01*
X150165542Y-113574580D01*
X150181582Y-113600868D01*
X150206712Y-113640257D01*
X150239086Y-113689991D01*
X150276857Y-113747315D01*
X150318178Y-113809476D01*
X150361202Y-113873718D01*
X150404083Y-113937285D01*
X150444974Y-113997425D01*
X150482029Y-114051380D01*
X150513400Y-114096397D01*
X150537241Y-114129721D01*
X150551706Y-114148597D01*
X150553691Y-114150787D01*
X150563809Y-114146138D01*
X150586150Y-114128962D01*
X150616720Y-114102440D01*
X150632464Y-114087964D01*
X150728953Y-114012682D01*
X150835664Y-113957241D01*
X150951168Y-113922141D01*
X151074038Y-113907880D01*
X151143439Y-113909051D01*
X151264577Y-113926212D01*
X151373795Y-113962094D01*
X151471418Y-114016959D01*
X151557772Y-114091070D01*
X151633185Y-114184688D01*
X151697982Y-114298076D01*
X151735399Y-114384667D01*
X151779252Y-114520366D01*
X151811572Y-114667850D01*
X151832443Y-114823314D01*
X151841949Y-114982956D01*
X151840173Y-115142973D01*
X151827197Y-115299561D01*
X151803106Y-115448918D01*
X151767982Y-115587240D01*
X151721908Y-115710724D01*
X151705627Y-115744978D01*
X151637380Y-115859064D01*
X151556921Y-115955557D01*
X151465430Y-116033670D01*
X151364089Y-116092617D01*
X151254080Y-116131612D01*
X151136585Y-116149868D01*
X151095117Y-116151211D01*
X150973559Y-116140290D01*
X150853122Y-116107474D01*
X150735334Y-116053439D01*
X150621723Y-115978865D01*
X150530315Y-115900539D01*
X150483785Y-115856008D01*
X150302517Y-116153271D01*
X150257420Y-116227433D01*
X150216181Y-116295646D01*
X150180265Y-116355459D01*
X150151134Y-116404420D01*
X150130250Y-116440079D01*
X150119076Y-116459984D01*
X150117625Y-116463079D01*
X150125854Y-116472718D01*
X150151433Y-116489999D01*
X150191127Y-116513283D01*
X150241703Y-116540934D01*
X150299926Y-116571315D01*
X150362563Y-116602790D01*
X150426379Y-116633722D01*
X150488140Y-116662473D01*
X150544612Y-116687408D01*
X150592562Y-116706889D01*
X150616014Y-116715318D01*
X150749779Y-116753133D01*
X150887673Y-116778136D01*
X151035378Y-116791140D01*
X151162167Y-116793468D01*
X151230122Y-116792373D01*
X151295723Y-116790275D01*
X151353153Y-116787434D01*
X151396597Y-116784106D01*
X151410702Y-116782422D01*
X151549716Y-116753587D01*
X151691243Y-116708468D01*
X151828725Y-116649750D01*
X151955606Y-116580120D01*
X152033111Y-116527441D01*
X152160519Y-116419239D01*
X152278822Y-116292671D01*
X152385828Y-116150866D01*
X152479348Y-115996951D01*
X152557190Y-115834053D01*
X152601044Y-115716756D01*
X152651292Y-115533128D01*
X152684791Y-115338581D01*
X152701551Y-115137325D01*
X152701584Y-114933568D01*
X152684899Y-114731521D01*
X152651507Y-114535392D01*
X152601420Y-114349391D01*
X152597603Y-114337803D01*
X152534719Y-114175750D01*
X152457972Y-114027832D01*
X152364758Y-113889865D01*
X152252473Y-113757661D01*
X152208608Y-113712399D01*
X152072466Y-113588457D01*
X151932509Y-113485915D01*
X151786589Y-113403656D01*
X151632558Y-113340564D01*
X151468268Y-113295523D01*
X151372711Y-113278033D01*
X151213977Y-113262466D01*
X151055571Y-113265071D01*
G36*
X148710426Y-114182552D02*
X148558508Y-114202567D01*
X148423244Y-114236202D01*
X148303761Y-114283725D01*
X148199185Y-114345405D01*
X148121576Y-114408965D01*
X148052735Y-114483099D01*
X147998994Y-114562871D01*
X147956090Y-114655091D01*
X147940616Y-114698161D01*
X147927756Y-114737142D01*
X147916554Y-114773289D01*
X147906880Y-114808434D01*
X147898604Y-114844410D01*
X147891597Y-114883050D01*
X147885728Y-114926185D01*
X147880869Y-114975649D01*
X147876890Y-115033273D01*
X147873660Y-115100891D01*
X147871051Y-115180334D01*
X147868933Y-115273436D01*
X147867176Y-115382027D01*
X147865651Y-115507942D01*
X147864228Y-115653012D01*
X147862975Y-115795778D01*
X147861649Y-115951968D01*
X147860444Y-116087239D01*
X147859234Y-116203246D01*
X147857894Y-116301645D01*
X147856300Y-116384093D01*
X147854325Y-116452246D01*
X147851844Y-116507760D01*
X147848731Y-116552292D01*
X147844862Y-116587498D01*
X147840111Y-116615034D01*
X147834352Y-116636556D01*
X147827461Y-116653722D01*
X147819311Y-116668186D01*
X147809777Y-116681606D01*
X147798734Y-116695638D01*
X147794434Y-116701071D01*
X147778614Y-116723910D01*
X147771578Y-116739463D01*
X147771556Y-116739922D01*
X147782433Y-116742121D01*
X147813418Y-116744147D01*
X147862043Y-116745942D01*
X147925837Y-116747451D01*
X148002331Y-116748616D01*
X148089056Y-116749380D01*
X148183543Y-116749686D01*
X148194450Y-116749689D01*
X148617343Y-116749689D01*
X148620605Y-116653622D01*
X148623867Y-116557556D01*
X148685956Y-116608543D01*
X148783286Y-116676057D01*
X148893187Y-116730749D01*
X148979651Y-116760978D01*
X149048722Y-116775666D01*
X149132075Y-116785659D01*
X149221841Y-116790646D01*
X149310155Y-116790313D01*
X149389149Y-116784351D01*
X149425378Y-116778638D01*
X149565397Y-116740776D01*
X149691822Y-116685932D01*
X149803740Y-116614924D01*
X149900238Y-116528568D01*
X149980400Y-116427679D01*
X150043313Y-116313076D01*
X150087688Y-116186984D01*
X150100022Y-116130401D01*
X150107632Y-116068202D01*
X150111261Y-115993363D01*
X150111755Y-115959467D01*
X150111690Y-115956282D01*
X149351752Y-115956282D01*
X149342459Y-116031333D01*
X149314272Y-116095160D01*
X149265803Y-116150798D01*
X149260746Y-116155211D01*
X149212452Y-116190037D01*
X149160743Y-116212620D01*
X149100011Y-116224540D01*
X149024648Y-116227383D01*
X149006541Y-116226978D01*
X148952722Y-116224325D01*
X148912692Y-116218909D01*
X148877676Y-116208745D01*
X148838897Y-116191850D01*
X148828255Y-116186672D01*
X148767604Y-116150844D01*
X148720785Y-116108212D01*
X148708048Y-116092973D01*
X148663378Y-116036462D01*
X148663378Y-115840586D01*
X148663914Y-115761939D01*
X148665604Y-115703988D01*
X148668572Y-115664875D01*
X148672943Y-115642741D01*
X148677028Y-115636274D01*
X148692953Y-115633111D01*
X148726736Y-115630488D01*
X148773660Y-115628655D01*
X148829007Y-115627857D01*
X148837894Y-115627842D01*
X148958670Y-115633096D01*
X149061340Y-115649263D01*
X149147894Y-115676961D01*
X149220319Y-115716808D01*
X149275249Y-115763758D01*
X149319796Y-115821645D01*
X149344520Y-115884693D01*
X149351752Y-115956282D01*
X150111690Y-115956282D01*
X150109822Y-115865712D01*
X150101478Y-115786812D01*
X150085232Y-115715590D01*
X150059595Y-115644864D01*
X150035599Y-115592493D01*
X149976980Y-115497196D01*
X149898883Y-115409170D01*
X149803685Y-115330017D01*
X149693762Y-115261340D01*
X149571490Y-115204741D01*
X149439245Y-115161821D01*
X149374578Y-115146882D01*
X149238396Y-115124777D01*
X149089951Y-115110194D01*
X148938495Y-115103813D01*
X148811936Y-115105445D01*
X148650050Y-115112224D01*
X148657470Y-115053245D01*
X148676762Y-114954092D01*
X148707896Y-114873372D01*
X148751731Y-114810466D01*
X148809129Y-114764756D01*
X148880952Y-114735622D01*
X148968059Y-114722447D01*
X149071314Y-114724611D01*
X149109289Y-114728612D01*
X149250480Y-114753780D01*
X149387293Y-114794814D01*
X149481822Y-114832815D01*
X149526982Y-114852190D01*
X149565415Y-114867760D01*
X149591766Y-114877405D01*
X149599454Y-114879452D01*
X149609198Y-114870374D01*
X149625917Y-114841405D01*
X149649768Y-114792217D01*
X149680907Y-114722484D01*
X149719493Y-114631879D01*
X149726090Y-114616089D01*
X149756147Y-114543772D01*
X149783126Y-114478425D01*
X149805864Y-114422906D01*
X149823194Y-114380072D01*
X149833952Y-114352781D01*
X149837059Y-114343942D01*
X149827060Y-114339187D01*
X149800783Y-114333910D01*
X149772511Y-114330231D01*
X149742354Y-114325474D01*
X149694567Y-114316028D01*
X149633388Y-114302820D01*
X149563054Y-114286776D01*
X149487806Y-114268820D01*
X149459245Y-114261797D01*
X149354184Y-114236209D01*
X149266520Y-114216147D01*
X149191932Y-114200969D01*
X149126097Y-114190035D01*
X149064693Y-114182704D01*
X149003398Y-114178335D01*
X148937890Y-114176287D01*
X148879872Y-114175889D01*
X148710426Y-114182552D01*
X148710426Y-114182552D01*
G37*
X148710426Y-114182552D02*
X148558508Y-114202567D01*
X148423244Y-114236202D01*
X148303761Y-114283725D01*
X148199185Y-114345405D01*
X148121576Y-114408965D01*
X148052735Y-114483099D01*
X147998994Y-114562871D01*
X147956090Y-114655091D01*
X147940616Y-114698161D01*
X147927756Y-114737142D01*
X147916554Y-114773289D01*
X147906880Y-114808434D01*
X147898604Y-114844410D01*
X147891597Y-114883050D01*
X147885728Y-114926185D01*
X147880869Y-114975649D01*
X147876890Y-115033273D01*
X147873660Y-115100891D01*
X147871051Y-115180334D01*
X147868933Y-115273436D01*
X147867176Y-115382027D01*
X147865651Y-115507942D01*
X147864228Y-115653012D01*
X147862975Y-115795778D01*
X147861649Y-115951968D01*
X147860444Y-116087239D01*
X147859234Y-116203246D01*
X147857894Y-116301645D01*
X147856300Y-116384093D01*
X147854325Y-116452246D01*
X147851844Y-116507760D01*
X147848731Y-116552292D01*
X147844862Y-116587498D01*
X147840111Y-116615034D01*
X147834352Y-116636556D01*
X147827461Y-116653722D01*
X147819311Y-116668186D01*
X147809777Y-116681606D01*
X147798734Y-116695638D01*
X147794434Y-116701071D01*
X147778614Y-116723910D01*
X147771578Y-116739463D01*
X147771556Y-116739922D01*
X147782433Y-116742121D01*
X147813418Y-116744147D01*
X147862043Y-116745942D01*
X147925837Y-116747451D01*
X148002331Y-116748616D01*
X148089056Y-116749380D01*
X148183543Y-116749686D01*
X148194450Y-116749689D01*
X148617343Y-116749689D01*
X148620605Y-116653622D01*
X148623867Y-116557556D01*
X148685956Y-116608543D01*
X148783286Y-116676057D01*
X148893187Y-116730749D01*
X148979651Y-116760978D01*
X149048722Y-116775666D01*
X149132075Y-116785659D01*
X149221841Y-116790646D01*
X149310155Y-116790313D01*
X149389149Y-116784351D01*
X149425378Y-116778638D01*
X149565397Y-116740776D01*
X149691822Y-116685932D01*
X149803740Y-116614924D01*
X149900238Y-116528568D01*
X149980400Y-116427679D01*
X150043313Y-116313076D01*
X150087688Y-116186984D01*
X150100022Y-116130401D01*
X150107632Y-116068202D01*
X150111261Y-115993363D01*
X150111755Y-115959467D01*
X150111690Y-115956282D01*
X149351752Y-115956282D01*
X149342459Y-116031333D01*
X149314272Y-116095160D01*
X149265803Y-116150798D01*
X149260746Y-116155211D01*
X149212452Y-116190037D01*
X149160743Y-116212620D01*
X149100011Y-116224540D01*
X149024648Y-116227383D01*
X149006541Y-116226978D01*
X148952722Y-116224325D01*
X148912692Y-116218909D01*
X148877676Y-116208745D01*
X148838897Y-116191850D01*
X148828255Y-116186672D01*
X148767604Y-116150844D01*
X148720785Y-116108212D01*
X148708048Y-116092973D01*
X148663378Y-116036462D01*
X148663378Y-115840586D01*
X148663914Y-115761939D01*
X148665604Y-115703988D01*
X148668572Y-115664875D01*
X148672943Y-115642741D01*
X148677028Y-115636274D01*
X148692953Y-115633111D01*
X148726736Y-115630488D01*
X148773660Y-115628655D01*
X148829007Y-115627857D01*
X148837894Y-115627842D01*
X148958670Y-115633096D01*
X149061340Y-115649263D01*
X149147894Y-115676961D01*
X149220319Y-115716808D01*
X149275249Y-115763758D01*
X149319796Y-115821645D01*
X149344520Y-115884693D01*
X149351752Y-115956282D01*
X150111690Y-115956282D01*
X150109822Y-115865712D01*
X150101478Y-115786812D01*
X150085232Y-115715590D01*
X150059595Y-115644864D01*
X150035599Y-115592493D01*
X149976980Y-115497196D01*
X149898883Y-115409170D01*
X149803685Y-115330017D01*
X149693762Y-115261340D01*
X149571490Y-115204741D01*
X149439245Y-115161821D01*
X149374578Y-115146882D01*
X149238396Y-115124777D01*
X149089951Y-115110194D01*
X148938495Y-115103813D01*
X148811936Y-115105445D01*
X148650050Y-115112224D01*
X148657470Y-115053245D01*
X148676762Y-114954092D01*
X148707896Y-114873372D01*
X148751731Y-114810466D01*
X148809129Y-114764756D01*
X148880952Y-114735622D01*
X148968059Y-114722447D01*
X149071314Y-114724611D01*
X149109289Y-114728612D01*
X149250480Y-114753780D01*
X149387293Y-114794814D01*
X149481822Y-114832815D01*
X149526982Y-114852190D01*
X149565415Y-114867760D01*
X149591766Y-114877405D01*
X149599454Y-114879452D01*
X149609198Y-114870374D01*
X149625917Y-114841405D01*
X149649768Y-114792217D01*
X149680907Y-114722484D01*
X149719493Y-114631879D01*
X149726090Y-114616089D01*
X149756147Y-114543772D01*
X149783126Y-114478425D01*
X149805864Y-114422906D01*
X149823194Y-114380072D01*
X149833952Y-114352781D01*
X149837059Y-114343942D01*
X149827060Y-114339187D01*
X149800783Y-114333910D01*
X149772511Y-114330231D01*
X149742354Y-114325474D01*
X149694567Y-114316028D01*
X149633388Y-114302820D01*
X149563054Y-114286776D01*
X149487806Y-114268820D01*
X149459245Y-114261797D01*
X149354184Y-114236209D01*
X149266520Y-114216147D01*
X149191932Y-114200969D01*
X149126097Y-114190035D01*
X149064693Y-114182704D01*
X149003398Y-114178335D01*
X148937890Y-114176287D01*
X148879872Y-114175889D01*
X148710426Y-114182552D01*
G36*
X145197493Y-114788245D02*
X145197474Y-115022662D01*
X145197448Y-115235603D01*
X145197375Y-115428168D01*
X145197218Y-115601459D01*
X145196936Y-115756576D01*
X145196491Y-115894620D01*
X145195844Y-116016692D01*
X145194955Y-116123894D01*
X145193787Y-116217326D01*
X145192299Y-116298090D01*
X145190454Y-116367286D01*
X145188211Y-116426015D01*
X145185531Y-116475379D01*
X145182377Y-116516478D01*
X145178708Y-116550413D01*
X145174487Y-116578286D01*
X145169673Y-116601198D01*
X145164227Y-116620249D01*
X145158112Y-116636540D01*
X145151288Y-116651173D01*
X145143715Y-116665249D01*
X145135355Y-116679868D01*
X145130161Y-116688974D01*
X145095896Y-116749689D01*
X145954045Y-116749689D01*
X145954045Y-116653733D01*
X145954776Y-116610370D01*
X145956728Y-116577205D01*
X145959537Y-116559424D01*
X145960779Y-116557778D01*
X145972201Y-116564662D01*
X145994916Y-116582505D01*
X146017615Y-116601879D01*
X146072200Y-116642614D01*
X146141679Y-116683617D01*
X146218730Y-116721123D01*
X146296035Y-116751364D01*
X146326887Y-116761012D01*
X146395384Y-116775578D01*
X146478236Y-116785539D01*
X146567629Y-116790583D01*
X146655752Y-116790396D01*
X146734793Y-116784666D01*
X146772489Y-116778858D01*
X146910586Y-116740797D01*
X147037887Y-116683073D01*
X147153708Y-116606211D01*
X147257363Y-116510739D01*
X147348167Y-116397179D01*
X147414969Y-116286381D01*
X147469836Y-116169625D01*
X147511837Y-116050276D01*
X147541833Y-115924283D01*
X147560689Y-115787594D01*
X147569268Y-115636158D01*
X147569994Y-115558711D01*
X147567900Y-115501934D01*
X146738783Y-115501934D01*
X146738576Y-115595002D01*
X146735663Y-115682692D01*
X146730000Y-115759772D01*
X146721545Y-115821009D01*
X146718962Y-115833350D01*
X146687160Y-115940633D01*
X146645502Y-116027658D01*
X146593637Y-116094642D01*
X146531219Y-116141805D01*
X146457900Y-116169365D01*
X146373331Y-116177541D01*
X146277165Y-116166551D01*
X146213689Y-116150829D01*
X146164546Y-116132639D01*
X146110417Y-116106791D01*
X146069756Y-116083089D01*
X145999200Y-116036721D01*
X145999200Y-114886530D01*
X146066608Y-114842962D01*
X146145133Y-114802040D01*
X146229319Y-114775389D01*
X146314443Y-114763465D01*
X146395784Y-114766722D01*
X146468620Y-114785615D01*
X146500574Y-114801184D01*
X146558499Y-114844181D01*
X146607456Y-114900953D01*
X146648610Y-114973575D01*
X146683126Y-115064121D01*
X146712167Y-115174666D01*
X146713448Y-115180533D01*
X146723619Y-115242788D01*
X146731261Y-115320594D01*
X146736330Y-115408720D01*
X146738783Y-115501934D01*
X147567900Y-115501934D01*
X147562143Y-115345895D01*
X147540198Y-115150059D01*
X147504214Y-114971332D01*
X147454241Y-114809845D01*
X147390332Y-114665726D01*
X147312538Y-114539106D01*
X147220911Y-114430115D01*
X147115503Y-114338883D01*
X147070338Y-114307932D01*
X146969389Y-114251785D01*
X146866099Y-114212174D01*
X146756011Y-114188014D01*
X146634670Y-114178219D01*
X146542164Y-114179265D01*
X146412510Y-114190231D01*
X146299916Y-114212046D01*
X146201125Y-114245714D01*
X146112879Y-114292236D01*
X146064014Y-114326448D01*
X146034647Y-114348362D01*
X146012957Y-114363333D01*
X146004747Y-114367733D01*
X146003132Y-114356904D01*
X146001841Y-114326251D01*
X146000862Y-114278526D01*
X146000183Y-114216479D01*
X145999790Y-114142862D01*
X145999670Y-114060427D01*
X145999812Y-113971925D01*
X146000203Y-113880107D01*
X146000829Y-113787724D01*
X146001680Y-113697528D01*
X146002740Y-113612271D01*
X146003999Y-113534703D01*
X146005444Y-113467576D01*
X146007062Y-113413641D01*
X146008839Y-113375650D01*
X146009331Y-113368667D01*
X146016908Y-113298251D01*
X146028469Y-113243102D01*
X146046208Y-113195981D01*
X146072318Y-113149647D01*
X146078585Y-113140067D01*
X146103017Y-113103378D01*
X145197689Y-113103378D01*
X145197493Y-114788245D01*
X145197493Y-114788245D01*
G37*
X145197493Y-114788245D02*
X145197474Y-115022662D01*
X145197448Y-115235603D01*
X145197375Y-115428168D01*
X145197218Y-115601459D01*
X145196936Y-115756576D01*
X145196491Y-115894620D01*
X145195844Y-116016692D01*
X145194955Y-116123894D01*
X145193787Y-116217326D01*
X145192299Y-116298090D01*
X145190454Y-116367286D01*
X145188211Y-116426015D01*
X145185531Y-116475379D01*
X145182377Y-116516478D01*
X145178708Y-116550413D01*
X145174487Y-116578286D01*
X145169673Y-116601198D01*
X145164227Y-116620249D01*
X145158112Y-116636540D01*
X145151288Y-116651173D01*
X145143715Y-116665249D01*
X145135355Y-116679868D01*
X145130161Y-116688974D01*
X145095896Y-116749689D01*
X145954045Y-116749689D01*
X145954045Y-116653733D01*
X145954776Y-116610370D01*
X145956728Y-116577205D01*
X145959537Y-116559424D01*
X145960779Y-116557778D01*
X145972201Y-116564662D01*
X145994916Y-116582505D01*
X146017615Y-116601879D01*
X146072200Y-116642614D01*
X146141679Y-116683617D01*
X146218730Y-116721123D01*
X146296035Y-116751364D01*
X146326887Y-116761012D01*
X146395384Y-116775578D01*
X146478236Y-116785539D01*
X146567629Y-116790583D01*
X146655752Y-116790396D01*
X146734793Y-116784666D01*
X146772489Y-116778858D01*
X146910586Y-116740797D01*
X147037887Y-116683073D01*
X147153708Y-116606211D01*
X147257363Y-116510739D01*
X147348167Y-116397179D01*
X147414969Y-116286381D01*
X147469836Y-116169625D01*
X147511837Y-116050276D01*
X147541833Y-115924283D01*
X147560689Y-115787594D01*
X147569268Y-115636158D01*
X147569994Y-115558711D01*
X147567900Y-115501934D01*
X146738783Y-115501934D01*
X146738576Y-115595002D01*
X146735663Y-115682692D01*
X146730000Y-115759772D01*
X146721545Y-115821009D01*
X146718962Y-115833350D01*
X146687160Y-115940633D01*
X146645502Y-116027658D01*
X146593637Y-116094642D01*
X146531219Y-116141805D01*
X146457900Y-116169365D01*
X146373331Y-116177541D01*
X146277165Y-116166551D01*
X146213689Y-116150829D01*
X146164546Y-116132639D01*
X146110417Y-116106791D01*
X146069756Y-116083089D01*
X145999200Y-116036721D01*
X145999200Y-114886530D01*
X146066608Y-114842962D01*
X146145133Y-114802040D01*
X146229319Y-114775389D01*
X146314443Y-114763465D01*
X146395784Y-114766722D01*
X146468620Y-114785615D01*
X146500574Y-114801184D01*
X146558499Y-114844181D01*
X146607456Y-114900953D01*
X146648610Y-114973575D01*
X146683126Y-115064121D01*
X146712167Y-115174666D01*
X146713448Y-115180533D01*
X146723619Y-115242788D01*
X146731261Y-115320594D01*
X146736330Y-115408720D01*
X146738783Y-115501934D01*
X147567900Y-115501934D01*
X147562143Y-115345895D01*
X147540198Y-115150059D01*
X147504214Y-114971332D01*
X147454241Y-114809845D01*
X147390332Y-114665726D01*
X147312538Y-114539106D01*
X147220911Y-114430115D01*
X147115503Y-114338883D01*
X147070338Y-114307932D01*
X146969389Y-114251785D01*
X146866099Y-114212174D01*
X146756011Y-114188014D01*
X146634670Y-114178219D01*
X146542164Y-114179265D01*
X146412510Y-114190231D01*
X146299916Y-114212046D01*
X146201125Y-114245714D01*
X146112879Y-114292236D01*
X146064014Y-114326448D01*
X146034647Y-114348362D01*
X146012957Y-114363333D01*
X146004747Y-114367733D01*
X146003132Y-114356904D01*
X146001841Y-114326251D01*
X146000862Y-114278526D01*
X146000183Y-114216479D01*
X145999790Y-114142862D01*
X145999670Y-114060427D01*
X145999812Y-113971925D01*
X146000203Y-113880107D01*
X146000829Y-113787724D01*
X146001680Y-113697528D01*
X146002740Y-113612271D01*
X146003999Y-113534703D01*
X146005444Y-113467576D01*
X146007062Y-113413641D01*
X146008839Y-113375650D01*
X146009331Y-113368667D01*
X146016908Y-113298251D01*
X146028469Y-113243102D01*
X146046208Y-113195981D01*
X146072318Y-113149647D01*
X146078585Y-113140067D01*
X146103017Y-113103378D01*
X145197689Y-113103378D01*
X145197493Y-114788245D01*
G36*
X153657043Y-112342571D02*
X153560768Y-112366809D01*
X153474184Y-112409641D01*
X153399373Y-112469419D01*
X153338418Y-112544494D01*
X153293399Y-112633220D01*
X153267136Y-112729530D01*
X153261286Y-112826795D01*
X153276140Y-112920654D01*
X153309840Y-113008511D01*
X153360528Y-113087770D01*
X153426345Y-113155836D01*
X153505434Y-113210112D01*
X153595934Y-113248002D01*
X153647200Y-113260426D01*
X153691698Y-113267947D01*
X153725999Y-113270919D01*
X153758960Y-113269094D01*
X153799434Y-113262225D01*
X153832531Y-113255250D01*
X153925947Y-113223741D01*
X154009619Y-113172617D01*
X154081665Y-113103429D01*
X154140200Y-113017728D01*
X154154148Y-112990489D01*
X154170586Y-112954122D01*
X154180894Y-112923582D01*
X154186460Y-112891450D01*
X154188669Y-112850307D01*
X154188948Y-112804222D01*
X154184861Y-112719865D01*
X154171446Y-112650586D01*
X154146256Y-112589961D01*
X154106846Y-112531567D01*
X154068298Y-112487302D01*
X153996406Y-112421484D01*
X153921313Y-112376053D01*
X153838562Y-112348850D01*
X153760928Y-112338576D01*
X153657043Y-112342571D01*
X153657043Y-112342571D01*
G37*
X153657043Y-112342571D02*
X153560768Y-112366809D01*
X153474184Y-112409641D01*
X153399373Y-112469419D01*
X153338418Y-112544494D01*
X153293399Y-112633220D01*
X153267136Y-112729530D01*
X153261286Y-112826795D01*
X153276140Y-112920654D01*
X153309840Y-113008511D01*
X153360528Y-113087770D01*
X153426345Y-113155836D01*
X153505434Y-113210112D01*
X153595934Y-113248002D01*
X153647200Y-113260426D01*
X153691698Y-113267947D01*
X153725999Y-113270919D01*
X153758960Y-113269094D01*
X153799434Y-113262225D01*
X153832531Y-113255250D01*
X153925947Y-113223741D01*
X154009619Y-113172617D01*
X154081665Y-113103429D01*
X154140200Y-113017728D01*
X154154148Y-112990489D01*
X154170586Y-112954122D01*
X154180894Y-112923582D01*
X154186460Y-112891450D01*
X154188669Y-112850307D01*
X154188948Y-112804222D01*
X154184861Y-112719865D01*
X154171446Y-112650586D01*
X154146256Y-112589961D01*
X154106846Y-112531567D01*
X154068298Y-112487302D01*
X153996406Y-112421484D01*
X153921313Y-112376053D01*
X153838562Y-112348850D01*
X153760928Y-112338576D01*
X153657043Y-112342571D01*
D13*
G36*
X149095622Y-103205918D02*
X149097762Y-103799576D01*
X149098000Y-103984445D01*
X149099968Y-104624717D01*
X149106635Y-105114953D01*
X149119144Y-105474414D01*
X149138639Y-105722361D01*
X149166265Y-105878054D01*
X149203165Y-105960752D01*
X149216169Y-105974170D01*
X149383404Y-106045642D01*
X149521333Y-106075974D01*
X149521333Y-105622248D01*
X149521333Y-104028871D01*
X149525389Y-103508409D01*
X149536750Y-103058832D01*
X149554205Y-102705165D01*
X149576547Y-102472437D01*
X149600725Y-102386426D01*
X149712173Y-102355592D01*
X149954448Y-102309119D01*
X150290507Y-102253595D01*
X150637892Y-102201985D01*
X151266360Y-102140036D01*
X151993949Y-102111745D01*
X152763863Y-102115997D01*
X153519308Y-102151679D01*
X154203486Y-102217676D01*
X154601333Y-102279737D01*
X155151667Y-102384359D01*
X155174634Y-104005643D01*
X155197601Y-105626926D01*
X154624301Y-105717698D01*
X154288387Y-105770428D01*
X153983576Y-105817502D01*
X153797000Y-105845591D01*
X153556831Y-105863239D01*
X153185475Y-105869661D01*
X152720617Y-105866117D01*
X152199943Y-105853864D01*
X151661138Y-105834160D01*
X151141888Y-105808261D01*
X150679878Y-105777426D01*
X150312794Y-105742912D01*
X150177500Y-105724806D01*
X149521333Y-105622248D01*
X149521333Y-106075974D01*
X149692725Y-106113666D01*
X150116887Y-106175537D01*
X150628644Y-106228551D01*
X151200751Y-106270004D01*
X151805961Y-106297192D01*
X152417031Y-106307410D01*
X152569333Y-106306983D01*
X153054331Y-106301760D01*
X153493111Y-106293701D01*
X153851846Y-106283683D01*
X154096708Y-106272580D01*
X154178000Y-106265316D01*
X154684572Y-106181736D01*
X155092361Y-106099208D01*
X155377538Y-106023132D01*
X155511500Y-105963174D01*
X155548535Y-105885349D01*
X155576694Y-105710290D01*
X155596802Y-105422575D01*
X155609683Y-105006784D01*
X155616163Y-104447496D01*
X155617333Y-103984445D01*
X155616382Y-103368099D01*
X155612423Y-102899664D01*
X155603800Y-102557724D01*
X155588856Y-102320862D01*
X155565934Y-102167660D01*
X155533378Y-102076703D01*
X155489532Y-102026573D01*
X155464688Y-102011097D01*
X155198800Y-101917679D01*
X154793239Y-101837675D01*
X154277227Y-101772330D01*
X153679985Y-101722889D01*
X153030736Y-101690599D01*
X152358702Y-101676704D01*
X151693104Y-101682450D01*
X151063166Y-101709082D01*
X150498109Y-101757846D01*
X150259807Y-101789283D01*
X149894342Y-101840923D01*
X149614238Y-101885852D01*
X149408234Y-101945347D01*
X149265071Y-102040682D01*
X149173488Y-102193132D01*
X149122225Y-102423971D01*
X149100023Y-102754475D01*
X149095622Y-103205918D01*
X149095622Y-103205918D01*
X149095622Y-103205918D01*
G37*
X149095622Y-103205918D02*
X149097762Y-103799576D01*
X149098000Y-103984445D01*
X149099968Y-104624717D01*
X149106635Y-105114953D01*
X149119144Y-105474414D01*
X149138639Y-105722361D01*
X149166265Y-105878054D01*
X149203165Y-105960752D01*
X149216169Y-105974170D01*
X149383404Y-106045642D01*
X149521333Y-106075974D01*
X149521333Y-105622248D01*
X149521333Y-104028871D01*
X149525389Y-103508409D01*
X149536750Y-103058832D01*
X149554205Y-102705165D01*
X149576547Y-102472437D01*
X149600725Y-102386426D01*
X149712173Y-102355592D01*
X149954448Y-102309119D01*
X150290507Y-102253595D01*
X150637892Y-102201985D01*
X151266360Y-102140036D01*
X151993949Y-102111745D01*
X152763863Y-102115997D01*
X153519308Y-102151679D01*
X154203486Y-102217676D01*
X154601333Y-102279737D01*
X155151667Y-102384359D01*
X155174634Y-104005643D01*
X155197601Y-105626926D01*
X154624301Y-105717698D01*
X154288387Y-105770428D01*
X153983576Y-105817502D01*
X153797000Y-105845591D01*
X153556831Y-105863239D01*
X153185475Y-105869661D01*
X152720617Y-105866117D01*
X152199943Y-105853864D01*
X151661138Y-105834160D01*
X151141888Y-105808261D01*
X150679878Y-105777426D01*
X150312794Y-105742912D01*
X150177500Y-105724806D01*
X149521333Y-105622248D01*
X149521333Y-106075974D01*
X149692725Y-106113666D01*
X150116887Y-106175537D01*
X150628644Y-106228551D01*
X151200751Y-106270004D01*
X151805961Y-106297192D01*
X152417031Y-106307410D01*
X152569333Y-106306983D01*
X153054331Y-106301760D01*
X153493111Y-106293701D01*
X153851846Y-106283683D01*
X154096708Y-106272580D01*
X154178000Y-106265316D01*
X154684572Y-106181736D01*
X155092361Y-106099208D01*
X155377538Y-106023132D01*
X155511500Y-105963174D01*
X155548535Y-105885349D01*
X155576694Y-105710290D01*
X155596802Y-105422575D01*
X155609683Y-105006784D01*
X155616163Y-104447496D01*
X155617333Y-103984445D01*
X155616382Y-103368099D01*
X155612423Y-102899664D01*
X155603800Y-102557724D01*
X155588856Y-102320862D01*
X155565934Y-102167660D01*
X155533378Y-102076703D01*
X155489532Y-102026573D01*
X155464688Y-102011097D01*
X155198800Y-101917679D01*
X154793239Y-101837675D01*
X154277227Y-101772330D01*
X153679985Y-101722889D01*
X153030736Y-101690599D01*
X152358702Y-101676704D01*
X151693104Y-101682450D01*
X151063166Y-101709082D01*
X150498109Y-101757846D01*
X150259807Y-101789283D01*
X149894342Y-101840923D01*
X149614238Y-101885852D01*
X149408234Y-101945347D01*
X149265071Y-102040682D01*
X149173488Y-102193132D01*
X149122225Y-102423971D01*
X149100023Y-102754475D01*
X149095622Y-103205918D01*
X149095622Y-103205918D01*
G36*
X152057330Y-104350896D02*
X152104811Y-104734450D01*
X152269553Y-105083981D01*
X152543839Y-105353311D01*
X152685097Y-105426668D01*
X152873433Y-105476605D01*
X153144285Y-105508378D01*
X153533089Y-105527242D01*
X153754667Y-105532893D01*
X154151061Y-105537191D01*
X154489353Y-105533229D01*
X154731130Y-105521950D01*
X154834167Y-105506453D01*
X154923029Y-105389385D01*
X154931116Y-105211260D01*
X154863306Y-105057096D01*
X154806075Y-105016891D01*
X154667273Y-104994878D01*
X154403201Y-104977577D01*
X154057907Y-104967313D01*
X153832409Y-104965500D01*
X153350865Y-104949929D01*
X153014329Y-104895981D01*
X152800728Y-104792799D01*
X152687987Y-104629528D01*
X152654033Y-104395311D01*
X152654000Y-104385955D01*
X152720498Y-104121992D01*
X152925142Y-103935144D01*
X153275658Y-103819820D01*
X153477076Y-103790404D01*
X153752639Y-103754563D01*
X153899307Y-103708556D01*
X153957127Y-103630755D01*
X153966333Y-103526166D01*
X153955369Y-103411768D01*
X153897036Y-103345455D01*
X153753176Y-103310666D01*
X153485631Y-103290841D01*
X153416000Y-103287317D01*
X152999720Y-103291344D01*
X152700020Y-103355745D01*
X152605721Y-103398286D01*
X152309058Y-103642594D01*
X152125837Y-103973537D01*
X152057330Y-104350896D01*
X152057330Y-104350896D01*
X152057330Y-104350896D01*
G37*
X152057330Y-104350896D02*
X152104811Y-104734450D01*
X152269553Y-105083981D01*
X152543839Y-105353311D01*
X152685097Y-105426668D01*
X152873433Y-105476605D01*
X153144285Y-105508378D01*
X153533089Y-105527242D01*
X153754667Y-105532893D01*
X154151061Y-105537191D01*
X154489353Y-105533229D01*
X154731130Y-105521950D01*
X154834167Y-105506453D01*
X154923029Y-105389385D01*
X154931116Y-105211260D01*
X154863306Y-105057096D01*
X154806075Y-105016891D01*
X154667273Y-104994878D01*
X154403201Y-104977577D01*
X154057907Y-104967313D01*
X153832409Y-104965500D01*
X153350865Y-104949929D01*
X153014329Y-104895981D01*
X152800728Y-104792799D01*
X152687987Y-104629528D01*
X152654033Y-104395311D01*
X152654000Y-104385955D01*
X152720498Y-104121992D01*
X152925142Y-103935144D01*
X153275658Y-103819820D01*
X153477076Y-103790404D01*
X153752639Y-103754563D01*
X153899307Y-103708556D01*
X153957127Y-103630755D01*
X153966333Y-103526166D01*
X153955369Y-103411768D01*
X153897036Y-103345455D01*
X153753176Y-103310666D01*
X153485631Y-103290841D01*
X153416000Y-103287317D01*
X152999720Y-103291344D01*
X152700020Y-103355745D01*
X152605721Y-103398286D01*
X152309058Y-103642594D01*
X152125837Y-103973537D01*
X152057330Y-104350896D01*
X152057330Y-104350896D01*
G36*
X149860932Y-104441899D02*
X149880862Y-104964657D01*
X149941661Y-105327569D01*
X150042706Y-105529346D01*
X150183376Y-105568703D01*
X150351067Y-105456566D01*
X150404318Y-105310988D01*
X150438314Y-105004382D01*
X150452324Y-104544037D01*
X150452667Y-104444550D01*
X150461236Y-104047235D01*
X150484370Y-103694907D01*
X150518210Y-103433377D01*
X150546759Y-103327624D01*
X150690325Y-103158154D01*
X150924672Y-103011065D01*
X150970092Y-102991784D01*
X151191162Y-102881286D01*
X151285993Y-102755472D01*
X151299333Y-102650185D01*
X151235361Y-102473743D01*
X151067431Y-102390167D01*
X150831525Y-102396981D01*
X150563626Y-102491705D01*
X150299716Y-102671861D01*
X150245722Y-102722755D01*
X150094440Y-102899485D01*
X149987784Y-103099297D01*
X149918483Y-103354686D01*
X149879263Y-103698149D01*
X149862851Y-104162182D01*
X149860932Y-104441899D01*
X149860932Y-104441899D01*
X149860932Y-104441899D01*
G37*
X149860932Y-104441899D02*
X149880862Y-104964657D01*
X149941661Y-105327569D01*
X150042706Y-105529346D01*
X150183376Y-105568703D01*
X150351067Y-105456566D01*
X150404318Y-105310988D01*
X150438314Y-105004382D01*
X150452324Y-104544037D01*
X150452667Y-104444550D01*
X150461236Y-104047235D01*
X150484370Y-103694907D01*
X150518210Y-103433377D01*
X150546759Y-103327624D01*
X150690325Y-103158154D01*
X150924672Y-103011065D01*
X150970092Y-102991784D01*
X151191162Y-102881286D01*
X151285993Y-102755472D01*
X151299333Y-102650185D01*
X151235361Y-102473743D01*
X151067431Y-102390167D01*
X150831525Y-102396981D01*
X150563626Y-102491705D01*
X150299716Y-102671861D01*
X150245722Y-102722755D01*
X150094440Y-102899485D01*
X149987784Y-103099297D01*
X149918483Y-103354686D01*
X149879263Y-103698149D01*
X149862851Y-104162182D01*
X149860932Y-104441899D01*
X149860932Y-104441899D01*
G36*
X151204801Y-104076020D02*
X151228826Y-104373019D01*
X151280783Y-104582827D01*
X151341667Y-104657451D01*
X151533695Y-104687523D01*
X151654143Y-104591121D01*
X151712889Y-104354374D01*
X151722667Y-104122409D01*
X151757746Y-103626912D01*
X151865015Y-103277437D01*
X152047521Y-103065431D01*
X152111865Y-103029836D01*
X152289306Y-102986901D01*
X152584414Y-102953819D01*
X152945592Y-102935558D01*
X153112233Y-102933500D01*
X153503858Y-102939048D01*
X153768654Y-102960580D01*
X153948902Y-103005427D01*
X154086886Y-103080922D01*
X154124249Y-103108978D01*
X154303246Y-103338239D01*
X154340798Y-103601450D01*
X154233614Y-103848450D01*
X154176688Y-103908354D01*
X153953794Y-104022954D01*
X153604358Y-104094008D01*
X153520521Y-104102144D01*
X153156152Y-104158577D01*
X152955352Y-104256106D01*
X152917192Y-104395655D01*
X153040743Y-104578147D01*
X153041048Y-104578452D01*
X153238147Y-104676449D01*
X153560777Y-104694215D01*
X154020879Y-104632360D01*
X154037249Y-104629219D01*
X154416998Y-104482580D01*
X154695444Y-104231001D01*
X154868504Y-103908186D01*
X154932099Y-103547835D01*
X154882146Y-103183651D01*
X154714565Y-102849337D01*
X154425274Y-102578594D01*
X154294472Y-102505069D01*
X154111140Y-102425687D01*
X153927711Y-102375324D01*
X153702663Y-102349375D01*
X153394472Y-102343234D01*
X152961616Y-102352296D01*
X152926509Y-102353352D01*
X152433514Y-102375766D01*
X152075565Y-102416323D01*
X151818477Y-102487216D01*
X151628068Y-102600637D01*
X151470155Y-102768777D01*
X151372375Y-102907671D01*
X151292495Y-103107654D01*
X151237418Y-103398759D01*
X151207926Y-103736407D01*
X151204801Y-104076020D01*
X151204801Y-104076020D01*
X151204801Y-104076020D01*
G37*
X151204801Y-104076020D02*
X151228826Y-104373019D01*
X151280783Y-104582827D01*
X151341667Y-104657451D01*
X151533695Y-104687523D01*
X151654143Y-104591121D01*
X151712889Y-104354374D01*
X151722667Y-104122409D01*
X151757746Y-103626912D01*
X151865015Y-103277437D01*
X152047521Y-103065431D01*
X152111865Y-103029836D01*
X152289306Y-102986901D01*
X152584414Y-102953819D01*
X152945592Y-102935558D01*
X153112233Y-102933500D01*
X153503858Y-102939048D01*
X153768654Y-102960580D01*
X153948902Y-103005427D01*
X154086886Y-103080922D01*
X154124249Y-103108978D01*
X154303246Y-103338239D01*
X154340798Y-103601450D01*
X154233614Y-103848450D01*
X154176688Y-103908354D01*
X153953794Y-104022954D01*
X153604358Y-104094008D01*
X153520521Y-104102144D01*
X153156152Y-104158577D01*
X152955352Y-104256106D01*
X152917192Y-104395655D01*
X153040743Y-104578147D01*
X153041048Y-104578452D01*
X153238147Y-104676449D01*
X153560777Y-104694215D01*
X154020879Y-104632360D01*
X154037249Y-104629219D01*
X154416998Y-104482580D01*
X154695444Y-104231001D01*
X154868504Y-103908186D01*
X154932099Y-103547835D01*
X154882146Y-103183651D01*
X154714565Y-102849337D01*
X154425274Y-102578594D01*
X154294472Y-102505069D01*
X154111140Y-102425687D01*
X153927711Y-102375324D01*
X153702663Y-102349375D01*
X153394472Y-102343234D01*
X152961616Y-102352296D01*
X152926509Y-102353352D01*
X152433514Y-102375766D01*
X152075565Y-102416323D01*
X151818477Y-102487216D01*
X151628068Y-102600637D01*
X151470155Y-102768777D01*
X151372375Y-102907671D01*
X151292495Y-103107654D01*
X151237418Y-103398759D01*
X151207926Y-103736407D01*
X151204801Y-104076020D01*
X151204801Y-104076020D01*
D14*
X143430000Y-100330000D02*
X143430000Y-97670000D01*
X158730000Y-100330000D02*
X143430000Y-100330000D01*
X158730000Y-97670000D02*
X143430000Y-97670000D01*
X158730000Y-100330000D02*
X158730000Y-97670000D01*
X160000000Y-100330000D02*
X161330000Y-100330000D01*
X161330000Y-100330000D02*
X161330000Y-99000000D01*
D11*
X162753999Y-99582714D02*
X162753999Y-100127000D01*
X162790285Y-100235857D01*
X162862856Y-100308429D01*
X162971713Y-100344714D01*
X163044285Y-100344714D01*
X161992000Y-100344714D02*
X162427428Y-100344714D01*
X162209714Y-100344714D02*
X162209714Y-99582714D01*
X162282285Y-99691571D01*
X162354857Y-99764143D01*
X162427428Y-99800429D01*
M02*
