G04 #@! TF.FileFunction,Legend,Top*
%FSLAX46Y46*%
G04 Gerber Fmt 4.6, Leading zero omitted, Abs format (unit mm)*
G04 Created by KiCad (PCBNEW 4.0.7) date 01/27/18 18:52:57*
%MOMM*%
%LPD*%
G01*
G04 APERTURE LIST*
%ADD10C,0.076200*%
%ADD11C,0.127000*%
%ADD12C,0.150000*%
%ADD13C,0.120000*%
%ADD14C,0.100000*%
G04 APERTURE END LIST*
D10*
D11*
X164431738Y-111227810D02*
X164262405Y-110985905D01*
X164141452Y-111227810D02*
X164141452Y-110719810D01*
X164334976Y-110719810D01*
X164383357Y-110744000D01*
X164407548Y-110768190D01*
X164431738Y-110816571D01*
X164431738Y-110889143D01*
X164407548Y-110937524D01*
X164383357Y-110961714D01*
X164334976Y-110985905D01*
X164141452Y-110985905D01*
X164601071Y-110719810D02*
X164915548Y-110719810D01*
X164746214Y-110913333D01*
X164818786Y-110913333D01*
X164867167Y-110937524D01*
X164891357Y-110961714D01*
X164915548Y-111010095D01*
X164915548Y-111131048D01*
X164891357Y-111179429D01*
X164867167Y-111203619D01*
X164818786Y-111227810D01*
X164673643Y-111227810D01*
X164625262Y-111203619D01*
X164601071Y-111179429D01*
X165520310Y-111034286D02*
X165907358Y-111034286D01*
X164141452Y-112116810D02*
X164141452Y-111608810D01*
X164431738Y-112116810D01*
X164431738Y-111608810D01*
X164770404Y-111608810D02*
X164867166Y-111608810D01*
X164915547Y-111633000D01*
X164963928Y-111681381D01*
X164988119Y-111778143D01*
X164988119Y-111947476D01*
X164963928Y-112044238D01*
X164915547Y-112092619D01*
X164867166Y-112116810D01*
X164770404Y-112116810D01*
X164722023Y-112092619D01*
X164673642Y-112044238D01*
X164649452Y-111947476D01*
X164649452Y-111778143D01*
X164673642Y-111681381D01*
X164722023Y-111633000D01*
X164770404Y-111608810D01*
X165205832Y-112116810D02*
X165205832Y-111608810D01*
X165399356Y-111608810D01*
X165447737Y-111633000D01*
X165471928Y-111657190D01*
X165496118Y-111705571D01*
X165496118Y-111778143D01*
X165471928Y-111826524D01*
X165447737Y-111850714D01*
X165399356Y-111874905D01*
X165205832Y-111874905D01*
X165810594Y-111608810D02*
X165907356Y-111608810D01*
X165955737Y-111633000D01*
X166004118Y-111681381D01*
X166028309Y-111778143D01*
X166028309Y-111947476D01*
X166004118Y-112044238D01*
X165955737Y-112092619D01*
X165907356Y-112116810D01*
X165810594Y-112116810D01*
X165762213Y-112092619D01*
X165713832Y-112044238D01*
X165689642Y-111947476D01*
X165689642Y-111778143D01*
X165713832Y-111681381D01*
X165762213Y-111633000D01*
X165810594Y-111608810D01*
X166246022Y-112116810D02*
X166246022Y-111608810D01*
X166439546Y-111608810D01*
X166487927Y-111633000D01*
X166512118Y-111657190D01*
X166536308Y-111705571D01*
X166536308Y-111778143D01*
X166512118Y-111826524D01*
X166487927Y-111850714D01*
X166439546Y-111874905D01*
X166246022Y-111874905D01*
X164068881Y-112667143D02*
X164262405Y-112667143D01*
X164141452Y-113005810D02*
X164141452Y-112570381D01*
X164165643Y-112522000D01*
X164214024Y-112497810D01*
X164262405Y-112497810D01*
X164504310Y-113005810D02*
X164455929Y-112981619D01*
X164431738Y-112957429D01*
X164407548Y-112909048D01*
X164407548Y-112763905D01*
X164431738Y-112715524D01*
X164455929Y-112691333D01*
X164504310Y-112667143D01*
X164576881Y-112667143D01*
X164625262Y-112691333D01*
X164649453Y-112715524D01*
X164673643Y-112763905D01*
X164673643Y-112909048D01*
X164649453Y-112957429D01*
X164625262Y-112981619D01*
X164576881Y-113005810D01*
X164504310Y-113005810D01*
X164891357Y-113005810D02*
X164891357Y-112667143D01*
X164891357Y-112763905D02*
X164915548Y-112715524D01*
X164939738Y-112691333D01*
X164988119Y-112667143D01*
X165036500Y-112667143D01*
X165568691Y-112860667D02*
X165810596Y-112860667D01*
X165520310Y-113005810D02*
X165689643Y-112497810D01*
X165858977Y-113005810D01*
X166028310Y-113005810D02*
X166028310Y-112667143D01*
X166028310Y-112715524D02*
X166052501Y-112691333D01*
X166100882Y-112667143D01*
X166173453Y-112667143D01*
X166221834Y-112691333D01*
X166246025Y-112739714D01*
X166246025Y-113005810D01*
X166246025Y-112739714D02*
X166270215Y-112691333D01*
X166318596Y-112667143D01*
X166391168Y-112667143D01*
X166439548Y-112691333D01*
X166463739Y-112739714D01*
X166463739Y-113005810D01*
X166705643Y-113005810D02*
X166705643Y-112497810D01*
X166705643Y-112691333D02*
X166754024Y-112667143D01*
X166850786Y-112667143D01*
X166899167Y-112691333D01*
X166923358Y-112715524D01*
X166947548Y-112763905D01*
X166947548Y-112909048D01*
X166923358Y-112957429D01*
X166899167Y-112981619D01*
X166850786Y-113005810D01*
X166754024Y-113005810D01*
X166705643Y-112981619D01*
X167358786Y-112981619D02*
X167310405Y-113005810D01*
X167213643Y-113005810D01*
X167165262Y-112981619D01*
X167141072Y-112933238D01*
X167141072Y-112739714D01*
X167165262Y-112691333D01*
X167213643Y-112667143D01*
X167310405Y-112667143D01*
X167358786Y-112691333D01*
X167382977Y-112739714D01*
X167382977Y-112788095D01*
X167141072Y-112836476D01*
X167600691Y-113005810D02*
X167600691Y-112667143D01*
X167600691Y-112763905D02*
X167624882Y-112715524D01*
X167649072Y-112691333D01*
X167697453Y-112667143D01*
X167745834Y-112667143D01*
X149660429Y-116420900D02*
X150023286Y-116420900D01*
X149587857Y-116638614D02*
X149841857Y-115876614D01*
X150095857Y-116638614D01*
X150349858Y-116638614D02*
X150349858Y-116130614D01*
X150349858Y-116203186D02*
X150386143Y-116166900D01*
X150458715Y-116130614D01*
X150567572Y-116130614D01*
X150640143Y-116166900D01*
X150676429Y-116239471D01*
X150676429Y-116638614D01*
X150676429Y-116239471D02*
X150712715Y-116166900D01*
X150785286Y-116130614D01*
X150894143Y-116130614D01*
X150966715Y-116166900D01*
X151003000Y-116239471D01*
X151003000Y-116638614D01*
X151365858Y-116638614D02*
X151365858Y-115876614D01*
X151365858Y-116166900D02*
X151438429Y-116130614D01*
X151583572Y-116130614D01*
X151656143Y-116166900D01*
X151692429Y-116203186D01*
X151728715Y-116275757D01*
X151728715Y-116493471D01*
X151692429Y-116566043D01*
X151656143Y-116602329D01*
X151583572Y-116638614D01*
X151438429Y-116638614D01*
X151365858Y-116602329D01*
X152345572Y-116602329D02*
X152273001Y-116638614D01*
X152127858Y-116638614D01*
X152055287Y-116602329D01*
X152019001Y-116529757D01*
X152019001Y-116239471D01*
X152055287Y-116166900D01*
X152127858Y-116130614D01*
X152273001Y-116130614D01*
X152345572Y-116166900D01*
X152381858Y-116239471D01*
X152381858Y-116312043D01*
X152019001Y-116384614D01*
X152708430Y-116638614D02*
X152708430Y-116130614D01*
X152708430Y-116275757D02*
X152744715Y-116203186D01*
X152781001Y-116166900D01*
X152853572Y-116130614D01*
X152926144Y-116130614D01*
X147310929Y-107387571D02*
X147564929Y-107387571D01*
X147673786Y-107786714D02*
X147310929Y-107786714D01*
X147310929Y-107024714D01*
X147673786Y-107024714D01*
X147964072Y-107569000D02*
X148326929Y-107569000D01*
X147891500Y-107786714D02*
X148145500Y-107024714D01*
X148399500Y-107786714D01*
X149234072Y-107786714D02*
X149234072Y-107024714D01*
X149415500Y-107024714D01*
X149524357Y-107061000D01*
X149596929Y-107133571D01*
X149633214Y-107206143D01*
X149669500Y-107351286D01*
X149669500Y-107460143D01*
X149633214Y-107605286D01*
X149596929Y-107677857D01*
X149524357Y-107750429D01*
X149415500Y-107786714D01*
X149234072Y-107786714D01*
X150141214Y-107024714D02*
X150286357Y-107024714D01*
X150358929Y-107061000D01*
X150431500Y-107133571D01*
X150467786Y-107278714D01*
X150467786Y-107532714D01*
X150431500Y-107677857D01*
X150358929Y-107750429D01*
X150286357Y-107786714D01*
X150141214Y-107786714D01*
X150068643Y-107750429D01*
X149996072Y-107677857D01*
X149959786Y-107532714D01*
X149959786Y-107278714D01*
X149996072Y-107133571D01*
X150068643Y-107061000D01*
X150141214Y-107024714D01*
X151193500Y-107061000D02*
X151120929Y-107024714D01*
X151012072Y-107024714D01*
X150903215Y-107061000D01*
X150830643Y-107133571D01*
X150794358Y-107206143D01*
X150758072Y-107351286D01*
X150758072Y-107460143D01*
X150794358Y-107605286D01*
X150830643Y-107677857D01*
X150903215Y-107750429D01*
X151012072Y-107786714D01*
X151084643Y-107786714D01*
X151193500Y-107750429D01*
X151229786Y-107714143D01*
X151229786Y-107460143D01*
X151084643Y-107460143D01*
X151520072Y-107750429D02*
X151628929Y-107786714D01*
X151810358Y-107786714D01*
X151882929Y-107750429D01*
X151919215Y-107714143D01*
X151955500Y-107641571D01*
X151955500Y-107569000D01*
X151919215Y-107496429D01*
X151882929Y-107460143D01*
X151810358Y-107423857D01*
X151665215Y-107387571D01*
X151592643Y-107351286D01*
X151556358Y-107315000D01*
X151520072Y-107242429D01*
X151520072Y-107169857D01*
X151556358Y-107097286D01*
X151592643Y-107061000D01*
X151665215Y-107024714D01*
X151846643Y-107024714D01*
X151955500Y-107061000D01*
X152681214Y-107786714D02*
X152245786Y-107786714D01*
X152463500Y-107786714D02*
X152463500Y-107024714D01*
X152390929Y-107133571D01*
X152318357Y-107206143D01*
X152245786Y-107242429D01*
X153152928Y-107024714D02*
X153225500Y-107024714D01*
X153298071Y-107061000D01*
X153334357Y-107097286D01*
X153370643Y-107169857D01*
X153406928Y-107315000D01*
X153406928Y-107496429D01*
X153370643Y-107641571D01*
X153334357Y-107714143D01*
X153298071Y-107750429D01*
X153225500Y-107786714D01*
X153152928Y-107786714D01*
X153080357Y-107750429D01*
X153044071Y-107714143D01*
X153007786Y-107641571D01*
X152971500Y-107496429D01*
X152971500Y-107315000D01*
X153007786Y-107169857D01*
X153044071Y-107097286D01*
X153080357Y-107061000D01*
X153152928Y-107024714D01*
X154060071Y-107278714D02*
X154060071Y-107786714D01*
X153878642Y-106988429D02*
X153697214Y-107532714D01*
X154168928Y-107532714D01*
X154386642Y-107786714D02*
X154785785Y-107278714D01*
X154386642Y-107278714D02*
X154785785Y-107786714D01*
X155076071Y-107496429D02*
X155656642Y-107496429D01*
X155983214Y-107569000D02*
X156346071Y-107569000D01*
X155910642Y-107786714D02*
X156164642Y-107024714D01*
X156418642Y-107786714D01*
X147274643Y-109020429D02*
X147383500Y-109056714D01*
X147564929Y-109056714D01*
X147637500Y-109020429D01*
X147673786Y-108984143D01*
X147710071Y-108911571D01*
X147710071Y-108839000D01*
X147673786Y-108766429D01*
X147637500Y-108730143D01*
X147564929Y-108693857D01*
X147419786Y-108657571D01*
X147347214Y-108621286D01*
X147310929Y-108585000D01*
X147274643Y-108512429D01*
X147274643Y-108439857D01*
X147310929Y-108367286D01*
X147347214Y-108331000D01*
X147419786Y-108294714D01*
X147601214Y-108294714D01*
X147710071Y-108331000D01*
X148036643Y-109056714D02*
X148036643Y-108294714D01*
X148326928Y-108294714D01*
X148399500Y-108331000D01*
X148435785Y-108367286D01*
X148472071Y-108439857D01*
X148472071Y-108548714D01*
X148435785Y-108621286D01*
X148399500Y-108657571D01*
X148326928Y-108693857D01*
X148036643Y-108693857D01*
X148798643Y-109056714D02*
X148798643Y-108294714D01*
X149705785Y-108839000D02*
X150068642Y-108839000D01*
X149633213Y-109056714D02*
X149887213Y-108294714D01*
X150141213Y-109056714D01*
X150721785Y-109056714D02*
X150721785Y-108294714D01*
X150721785Y-109020429D02*
X150649214Y-109056714D01*
X150504071Y-109056714D01*
X150431499Y-109020429D01*
X150395214Y-108984143D01*
X150358928Y-108911571D01*
X150358928Y-108693857D01*
X150395214Y-108621286D01*
X150431499Y-108585000D01*
X150504071Y-108548714D01*
X150649214Y-108548714D01*
X150721785Y-108585000D01*
X151411214Y-109056714D02*
X151411214Y-108657571D01*
X151374928Y-108585000D01*
X151302357Y-108548714D01*
X151157214Y-108548714D01*
X151084643Y-108585000D01*
X151411214Y-109020429D02*
X151338643Y-109056714D01*
X151157214Y-109056714D01*
X151084643Y-109020429D01*
X151048357Y-108947857D01*
X151048357Y-108875286D01*
X151084643Y-108802714D01*
X151157214Y-108766429D01*
X151338643Y-108766429D01*
X151411214Y-108730143D01*
X151774072Y-108548714D02*
X151774072Y-109310714D01*
X151774072Y-108585000D02*
X151846643Y-108548714D01*
X151991786Y-108548714D01*
X152064357Y-108585000D01*
X152100643Y-108621286D01*
X152136929Y-108693857D01*
X152136929Y-108911571D01*
X152100643Y-108984143D01*
X152064357Y-109020429D01*
X151991786Y-109056714D01*
X151846643Y-109056714D01*
X151774072Y-109020429D01*
X152354643Y-108548714D02*
X152644929Y-108548714D01*
X152463501Y-108294714D02*
X152463501Y-108947857D01*
X152499786Y-109020429D01*
X152572358Y-109056714D01*
X152644929Y-109056714D01*
X153189215Y-109020429D02*
X153116644Y-109056714D01*
X152971501Y-109056714D01*
X152898930Y-109020429D01*
X152862644Y-108947857D01*
X152862644Y-108657571D01*
X152898930Y-108585000D01*
X152971501Y-108548714D01*
X153116644Y-108548714D01*
X153189215Y-108585000D01*
X153225501Y-108657571D01*
X153225501Y-108730143D01*
X152862644Y-108802714D01*
X153552073Y-109056714D02*
X153552073Y-108548714D01*
X153552073Y-108693857D02*
X153588358Y-108621286D01*
X153624644Y-108585000D01*
X153697215Y-108548714D01*
X153769787Y-108548714D01*
X155003500Y-109056714D02*
X154568072Y-109056714D01*
X154785786Y-109056714D02*
X154785786Y-108294714D01*
X154713215Y-108403571D01*
X154640643Y-108476143D01*
X154568072Y-108512429D01*
X155692929Y-109056714D02*
X155330072Y-109056714D01*
X155330072Y-108294714D01*
X155765500Y-109129286D02*
X156346071Y-109129286D01*
X156491214Y-108367286D02*
X156527500Y-108331000D01*
X156600071Y-108294714D01*
X156781500Y-108294714D01*
X156854071Y-108331000D01*
X156890357Y-108367286D01*
X156926642Y-108439857D01*
X156926642Y-108512429D01*
X156890357Y-108621286D01*
X156454928Y-109056714D01*
X156926642Y-109056714D01*
D12*
X143500000Y-116400000D02*
X159300000Y-116400000D01*
X139000000Y-116400000D02*
X133400000Y-116400000D01*
X139000000Y-91000000D02*
X133400000Y-91000000D01*
X169400000Y-116400000D02*
X163800000Y-116400000D01*
X169400000Y-91000000D02*
X163800000Y-91000000D01*
X169400000Y-91000000D02*
X169400000Y-116400000D01*
X133400000Y-91000000D02*
X133400000Y-116400000D01*
D13*
X159469200Y-94842700D02*
X160469200Y-94842700D01*
X160469200Y-93142700D02*
X159469200Y-93142700D01*
X164330000Y-93130000D02*
X163330000Y-93130000D01*
X163330000Y-94830000D02*
X164330000Y-94830000D01*
D14*
G36*
X155640878Y-103269418D02*
X155638738Y-103863076D01*
X155638500Y-104047945D01*
X155636532Y-104688217D01*
X155629865Y-105178453D01*
X155617356Y-105537914D01*
X155597861Y-105785861D01*
X155570235Y-105941554D01*
X155533335Y-106024252D01*
X155520331Y-106037670D01*
X155353096Y-106109142D01*
X155215167Y-106139474D01*
X155215167Y-105685748D01*
X155215167Y-104092371D01*
X155211111Y-103571909D01*
X155199750Y-103122332D01*
X155182295Y-102768665D01*
X155159953Y-102535937D01*
X155135775Y-102449926D01*
X155024327Y-102419092D01*
X154782052Y-102372619D01*
X154445993Y-102317095D01*
X154098608Y-102265485D01*
X153470140Y-102203536D01*
X152742551Y-102175245D01*
X151972637Y-102179497D01*
X151217192Y-102215179D01*
X150533014Y-102281176D01*
X150135167Y-102343237D01*
X149584833Y-102447859D01*
X149561866Y-104069143D01*
X149538899Y-105690426D01*
X150112199Y-105781198D01*
X150448113Y-105833928D01*
X150752924Y-105881002D01*
X150939500Y-105909091D01*
X151179669Y-105926739D01*
X151551025Y-105933161D01*
X152015883Y-105929617D01*
X152536557Y-105917364D01*
X153075362Y-105897660D01*
X153594612Y-105871761D01*
X154056622Y-105840926D01*
X154423706Y-105806412D01*
X154559000Y-105788306D01*
X155215167Y-105685748D01*
X155215167Y-106139474D01*
X155043775Y-106177166D01*
X154619613Y-106239037D01*
X154107856Y-106292051D01*
X153535749Y-106333504D01*
X152930539Y-106360692D01*
X152319469Y-106370910D01*
X152167167Y-106370483D01*
X151682169Y-106365260D01*
X151243389Y-106357201D01*
X150884654Y-106347183D01*
X150639792Y-106336080D01*
X150558500Y-106328816D01*
X150051928Y-106245236D01*
X149644139Y-106162708D01*
X149358962Y-106086632D01*
X149225000Y-106026674D01*
X149187965Y-105948849D01*
X149159806Y-105773790D01*
X149139698Y-105486075D01*
X149126817Y-105070284D01*
X149120337Y-104510996D01*
X149119167Y-104047945D01*
X149120118Y-103431599D01*
X149124077Y-102963164D01*
X149132700Y-102621224D01*
X149147644Y-102384362D01*
X149170566Y-102231160D01*
X149203122Y-102140203D01*
X149246968Y-102090073D01*
X149271812Y-102074597D01*
X149537700Y-101981179D01*
X149943261Y-101901175D01*
X150459273Y-101835830D01*
X151056515Y-101786389D01*
X151705764Y-101754099D01*
X152377798Y-101740204D01*
X153043396Y-101745950D01*
X153673334Y-101772582D01*
X154238391Y-101821346D01*
X154476693Y-101852783D01*
X154842158Y-101904423D01*
X155122262Y-101949352D01*
X155328266Y-102008847D01*
X155471429Y-102104182D01*
X155563012Y-102256632D01*
X155614275Y-102487471D01*
X155636477Y-102817975D01*
X155640878Y-103269418D01*
X155640878Y-103269418D01*
X155640878Y-103269418D01*
G37*
X155640878Y-103269418D02*
X155638738Y-103863076D01*
X155638500Y-104047945D01*
X155636532Y-104688217D01*
X155629865Y-105178453D01*
X155617356Y-105537914D01*
X155597861Y-105785861D01*
X155570235Y-105941554D01*
X155533335Y-106024252D01*
X155520331Y-106037670D01*
X155353096Y-106109142D01*
X155215167Y-106139474D01*
X155215167Y-105685748D01*
X155215167Y-104092371D01*
X155211111Y-103571909D01*
X155199750Y-103122332D01*
X155182295Y-102768665D01*
X155159953Y-102535937D01*
X155135775Y-102449926D01*
X155024327Y-102419092D01*
X154782052Y-102372619D01*
X154445993Y-102317095D01*
X154098608Y-102265485D01*
X153470140Y-102203536D01*
X152742551Y-102175245D01*
X151972637Y-102179497D01*
X151217192Y-102215179D01*
X150533014Y-102281176D01*
X150135167Y-102343237D01*
X149584833Y-102447859D01*
X149561866Y-104069143D01*
X149538899Y-105690426D01*
X150112199Y-105781198D01*
X150448113Y-105833928D01*
X150752924Y-105881002D01*
X150939500Y-105909091D01*
X151179669Y-105926739D01*
X151551025Y-105933161D01*
X152015883Y-105929617D01*
X152536557Y-105917364D01*
X153075362Y-105897660D01*
X153594612Y-105871761D01*
X154056622Y-105840926D01*
X154423706Y-105806412D01*
X154559000Y-105788306D01*
X155215167Y-105685748D01*
X155215167Y-106139474D01*
X155043775Y-106177166D01*
X154619613Y-106239037D01*
X154107856Y-106292051D01*
X153535749Y-106333504D01*
X152930539Y-106360692D01*
X152319469Y-106370910D01*
X152167167Y-106370483D01*
X151682169Y-106365260D01*
X151243389Y-106357201D01*
X150884654Y-106347183D01*
X150639792Y-106336080D01*
X150558500Y-106328816D01*
X150051928Y-106245236D01*
X149644139Y-106162708D01*
X149358962Y-106086632D01*
X149225000Y-106026674D01*
X149187965Y-105948849D01*
X149159806Y-105773790D01*
X149139698Y-105486075D01*
X149126817Y-105070284D01*
X149120337Y-104510996D01*
X149119167Y-104047945D01*
X149120118Y-103431599D01*
X149124077Y-102963164D01*
X149132700Y-102621224D01*
X149147644Y-102384362D01*
X149170566Y-102231160D01*
X149203122Y-102140203D01*
X149246968Y-102090073D01*
X149271812Y-102074597D01*
X149537700Y-101981179D01*
X149943261Y-101901175D01*
X150459273Y-101835830D01*
X151056515Y-101786389D01*
X151705764Y-101754099D01*
X152377798Y-101740204D01*
X153043396Y-101745950D01*
X153673334Y-101772582D01*
X154238391Y-101821346D01*
X154476693Y-101852783D01*
X154842158Y-101904423D01*
X155122262Y-101949352D01*
X155328266Y-102008847D01*
X155471429Y-102104182D01*
X155563012Y-102256632D01*
X155614275Y-102487471D01*
X155636477Y-102817975D01*
X155640878Y-103269418D01*
X155640878Y-103269418D01*
G36*
X152679170Y-104414396D02*
X152631689Y-104797950D01*
X152466947Y-105147481D01*
X152192661Y-105416811D01*
X152051403Y-105490168D01*
X151863067Y-105540105D01*
X151592215Y-105571878D01*
X151203411Y-105590742D01*
X150981833Y-105596393D01*
X150585439Y-105600691D01*
X150247147Y-105596729D01*
X150005370Y-105585450D01*
X149902333Y-105569953D01*
X149813471Y-105452885D01*
X149805384Y-105274760D01*
X149873194Y-105120596D01*
X149930425Y-105080391D01*
X150069227Y-105058378D01*
X150333299Y-105041077D01*
X150678593Y-105030813D01*
X150904091Y-105029000D01*
X151385635Y-105013429D01*
X151722171Y-104959481D01*
X151935772Y-104856299D01*
X152048513Y-104693028D01*
X152082467Y-104458811D01*
X152082500Y-104449455D01*
X152016002Y-104185492D01*
X151811358Y-103998644D01*
X151460842Y-103883320D01*
X151259424Y-103853904D01*
X150983861Y-103818063D01*
X150837193Y-103772056D01*
X150779373Y-103694255D01*
X150770167Y-103589666D01*
X150781131Y-103475268D01*
X150839464Y-103408955D01*
X150983324Y-103374166D01*
X151250869Y-103354341D01*
X151320500Y-103350817D01*
X151736780Y-103354844D01*
X152036480Y-103419245D01*
X152130779Y-103461786D01*
X152427442Y-103706094D01*
X152610663Y-104037037D01*
X152679170Y-104414396D01*
X152679170Y-104414396D01*
X152679170Y-104414396D01*
G37*
X152679170Y-104414396D02*
X152631689Y-104797950D01*
X152466947Y-105147481D01*
X152192661Y-105416811D01*
X152051403Y-105490168D01*
X151863067Y-105540105D01*
X151592215Y-105571878D01*
X151203411Y-105590742D01*
X150981833Y-105596393D01*
X150585439Y-105600691D01*
X150247147Y-105596729D01*
X150005370Y-105585450D01*
X149902333Y-105569953D01*
X149813471Y-105452885D01*
X149805384Y-105274760D01*
X149873194Y-105120596D01*
X149930425Y-105080391D01*
X150069227Y-105058378D01*
X150333299Y-105041077D01*
X150678593Y-105030813D01*
X150904091Y-105029000D01*
X151385635Y-105013429D01*
X151722171Y-104959481D01*
X151935772Y-104856299D01*
X152048513Y-104693028D01*
X152082467Y-104458811D01*
X152082500Y-104449455D01*
X152016002Y-104185492D01*
X151811358Y-103998644D01*
X151460842Y-103883320D01*
X151259424Y-103853904D01*
X150983861Y-103818063D01*
X150837193Y-103772056D01*
X150779373Y-103694255D01*
X150770167Y-103589666D01*
X150781131Y-103475268D01*
X150839464Y-103408955D01*
X150983324Y-103374166D01*
X151250869Y-103354341D01*
X151320500Y-103350817D01*
X151736780Y-103354844D01*
X152036480Y-103419245D01*
X152130779Y-103461786D01*
X152427442Y-103706094D01*
X152610663Y-104037037D01*
X152679170Y-104414396D01*
X152679170Y-104414396D01*
G36*
X154875568Y-104505399D02*
X154855638Y-105028157D01*
X154794839Y-105391069D01*
X154693794Y-105592846D01*
X154553124Y-105632203D01*
X154385433Y-105520066D01*
X154332182Y-105374488D01*
X154298186Y-105067882D01*
X154284176Y-104607537D01*
X154283833Y-104508050D01*
X154275264Y-104110735D01*
X154252130Y-103758407D01*
X154218290Y-103496877D01*
X154189741Y-103391124D01*
X154046175Y-103221654D01*
X153811828Y-103074565D01*
X153766408Y-103055284D01*
X153545338Y-102944786D01*
X153450507Y-102818972D01*
X153437167Y-102713685D01*
X153501139Y-102537243D01*
X153669069Y-102453667D01*
X153904975Y-102460481D01*
X154172874Y-102555205D01*
X154436784Y-102735361D01*
X154490778Y-102786255D01*
X154642060Y-102962985D01*
X154748716Y-103162797D01*
X154818017Y-103418186D01*
X154857237Y-103761649D01*
X154873649Y-104225682D01*
X154875568Y-104505399D01*
X154875568Y-104505399D01*
X154875568Y-104505399D01*
G37*
X154875568Y-104505399D02*
X154855638Y-105028157D01*
X154794839Y-105391069D01*
X154693794Y-105592846D01*
X154553124Y-105632203D01*
X154385433Y-105520066D01*
X154332182Y-105374488D01*
X154298186Y-105067882D01*
X154284176Y-104607537D01*
X154283833Y-104508050D01*
X154275264Y-104110735D01*
X154252130Y-103758407D01*
X154218290Y-103496877D01*
X154189741Y-103391124D01*
X154046175Y-103221654D01*
X153811828Y-103074565D01*
X153766408Y-103055284D01*
X153545338Y-102944786D01*
X153450507Y-102818972D01*
X153437167Y-102713685D01*
X153501139Y-102537243D01*
X153669069Y-102453667D01*
X153904975Y-102460481D01*
X154172874Y-102555205D01*
X154436784Y-102735361D01*
X154490778Y-102786255D01*
X154642060Y-102962985D01*
X154748716Y-103162797D01*
X154818017Y-103418186D01*
X154857237Y-103761649D01*
X154873649Y-104225682D01*
X154875568Y-104505399D01*
X154875568Y-104505399D01*
G36*
X153531699Y-104139520D02*
X153507674Y-104436519D01*
X153455717Y-104646327D01*
X153394833Y-104720951D01*
X153202805Y-104751023D01*
X153082357Y-104654621D01*
X153023611Y-104417874D01*
X153013833Y-104185909D01*
X152978754Y-103690412D01*
X152871485Y-103340937D01*
X152688979Y-103128931D01*
X152624635Y-103093336D01*
X152447194Y-103050401D01*
X152152086Y-103017319D01*
X151790908Y-102999058D01*
X151624267Y-102997000D01*
X151232642Y-103002548D01*
X150967846Y-103024080D01*
X150787598Y-103068927D01*
X150649614Y-103144422D01*
X150612251Y-103172478D01*
X150433254Y-103401739D01*
X150395702Y-103664950D01*
X150502886Y-103911950D01*
X150559812Y-103971854D01*
X150782706Y-104086454D01*
X151132142Y-104157508D01*
X151215979Y-104165644D01*
X151580348Y-104222077D01*
X151781148Y-104319606D01*
X151819308Y-104459155D01*
X151695757Y-104641647D01*
X151695452Y-104641952D01*
X151498353Y-104739949D01*
X151175723Y-104757715D01*
X150715621Y-104695860D01*
X150699251Y-104692719D01*
X150319502Y-104546080D01*
X150041056Y-104294501D01*
X149867996Y-103971686D01*
X149804401Y-103611335D01*
X149854354Y-103247151D01*
X150021935Y-102912837D01*
X150311226Y-102642094D01*
X150442028Y-102568569D01*
X150625360Y-102489187D01*
X150808789Y-102438824D01*
X151033837Y-102412875D01*
X151342028Y-102406734D01*
X151774884Y-102415796D01*
X151809991Y-102416852D01*
X152302986Y-102439266D01*
X152660935Y-102479823D01*
X152918023Y-102550716D01*
X153108432Y-102664137D01*
X153266345Y-102832277D01*
X153364125Y-102971171D01*
X153444005Y-103171154D01*
X153499082Y-103462259D01*
X153528574Y-103799907D01*
X153531699Y-104139520D01*
X153531699Y-104139520D01*
X153531699Y-104139520D01*
G37*
X153531699Y-104139520D02*
X153507674Y-104436519D01*
X153455717Y-104646327D01*
X153394833Y-104720951D01*
X153202805Y-104751023D01*
X153082357Y-104654621D01*
X153023611Y-104417874D01*
X153013833Y-104185909D01*
X152978754Y-103690412D01*
X152871485Y-103340937D01*
X152688979Y-103128931D01*
X152624635Y-103093336D01*
X152447194Y-103050401D01*
X152152086Y-103017319D01*
X151790908Y-102999058D01*
X151624267Y-102997000D01*
X151232642Y-103002548D01*
X150967846Y-103024080D01*
X150787598Y-103068927D01*
X150649614Y-103144422D01*
X150612251Y-103172478D01*
X150433254Y-103401739D01*
X150395702Y-103664950D01*
X150502886Y-103911950D01*
X150559812Y-103971854D01*
X150782706Y-104086454D01*
X151132142Y-104157508D01*
X151215979Y-104165644D01*
X151580348Y-104222077D01*
X151781148Y-104319606D01*
X151819308Y-104459155D01*
X151695757Y-104641647D01*
X151695452Y-104641952D01*
X151498353Y-104739949D01*
X151175723Y-104757715D01*
X150715621Y-104695860D01*
X150699251Y-104692719D01*
X150319502Y-104546080D01*
X150041056Y-104294501D01*
X149867996Y-103971686D01*
X149804401Y-103611335D01*
X149854354Y-103247151D01*
X150021935Y-102912837D01*
X150311226Y-102642094D01*
X150442028Y-102568569D01*
X150625360Y-102489187D01*
X150808789Y-102438824D01*
X151033837Y-102412875D01*
X151342028Y-102406734D01*
X151774884Y-102415796D01*
X151809991Y-102416852D01*
X152302986Y-102439266D01*
X152660935Y-102479823D01*
X152918023Y-102550716D01*
X153108432Y-102664137D01*
X153266345Y-102832277D01*
X153364125Y-102971171D01*
X153444005Y-103171154D01*
X153499082Y-103462259D01*
X153528574Y-103799907D01*
X153531699Y-104139520D01*
X153531699Y-104139520D01*
D13*
X142764400Y-104873500D02*
X142764400Y-106073500D01*
X141004400Y-106073500D02*
X141004400Y-104873500D01*
X161934000Y-112969600D02*
X161934000Y-111769600D01*
X163694000Y-111769600D02*
X163694000Y-112969600D01*
X141626700Y-112982300D02*
X141626700Y-111782300D01*
X143386700Y-111782300D02*
X143386700Y-112982300D01*
X145946400Y-106647100D02*
X145946400Y-105717100D01*
X145946400Y-103487100D02*
X145946400Y-104417100D01*
X145946400Y-103487100D02*
X143786400Y-103487100D01*
X145946400Y-106647100D02*
X144486400Y-106647100D01*
X159394000Y-112982300D02*
X159394000Y-111782300D01*
X161154000Y-111782300D02*
X161154000Y-112982300D01*
D11*
X166819429Y-116882714D02*
X166819429Y-117499571D01*
X166855714Y-117572143D01*
X166892000Y-117608429D01*
X166964571Y-117644714D01*
X167109714Y-117644714D01*
X167182286Y-117608429D01*
X167218571Y-117572143D01*
X167254857Y-117499571D01*
X167254857Y-116882714D01*
X168016857Y-117644714D02*
X167581429Y-117644714D01*
X167799143Y-117644714D02*
X167799143Y-116882714D01*
X167726572Y-116991571D01*
X167654000Y-117064143D01*
X167581429Y-117100429D01*
X140217714Y-114944714D02*
X139782286Y-114944714D01*
X140000000Y-114944714D02*
X140000000Y-114182714D01*
X139927429Y-114291571D01*
X139854857Y-114364143D01*
X139782286Y-114400429D01*
X159842200Y-95764843D02*
X159805914Y-95801129D01*
X159697057Y-95837414D01*
X159624486Y-95837414D01*
X159515629Y-95801129D01*
X159443057Y-95728557D01*
X159406772Y-95655986D01*
X159370486Y-95510843D01*
X159370486Y-95401986D01*
X159406772Y-95256843D01*
X159443057Y-95184271D01*
X159515629Y-95111700D01*
X159624486Y-95075414D01*
X159697057Y-95075414D01*
X159805914Y-95111700D01*
X159842200Y-95147986D01*
X160567914Y-95837414D02*
X160132486Y-95837414D01*
X160350200Y-95837414D02*
X160350200Y-95075414D01*
X160277629Y-95184271D01*
X160205057Y-95256843D01*
X160132486Y-95293129D01*
X163703000Y-95776143D02*
X163666714Y-95812429D01*
X163557857Y-95848714D01*
X163485286Y-95848714D01*
X163376429Y-95812429D01*
X163303857Y-95739857D01*
X163267572Y-95667286D01*
X163231286Y-95522143D01*
X163231286Y-95413286D01*
X163267572Y-95268143D01*
X163303857Y-95195571D01*
X163376429Y-95123000D01*
X163485286Y-95086714D01*
X163557857Y-95086714D01*
X163666714Y-95123000D01*
X163703000Y-95159286D01*
X163993286Y-95159286D02*
X164029572Y-95123000D01*
X164102143Y-95086714D01*
X164283572Y-95086714D01*
X164356143Y-95123000D01*
X164392429Y-95159286D01*
X164428714Y-95231857D01*
X164428714Y-95304429D01*
X164392429Y-95413286D01*
X163957000Y-95848714D01*
X164428714Y-95848714D01*
X153377901Y-117565714D02*
X153377901Y-118110000D01*
X153341615Y-118218857D01*
X153269044Y-118291429D01*
X153160187Y-118327714D01*
X153087615Y-118327714D01*
X153704472Y-117638286D02*
X153740758Y-117602000D01*
X153813329Y-117565714D01*
X153994758Y-117565714D01*
X154067329Y-117602000D01*
X154103615Y-117638286D01*
X154139900Y-117710857D01*
X154139900Y-117783429D01*
X154103615Y-117892286D01*
X153668186Y-118327714D01*
X154139900Y-118327714D01*
X141757400Y-102998814D02*
X141503400Y-102635957D01*
X141321972Y-102998814D02*
X141321972Y-102236814D01*
X141612257Y-102236814D01*
X141684829Y-102273100D01*
X141721114Y-102309386D01*
X141757400Y-102381957D01*
X141757400Y-102490814D01*
X141721114Y-102563386D01*
X141684829Y-102599671D01*
X141612257Y-102635957D01*
X141321972Y-102635957D01*
X142483114Y-102998814D02*
X142047686Y-102998814D01*
X142265400Y-102998814D02*
X142265400Y-102236814D01*
X142192829Y-102345671D01*
X142120257Y-102418243D01*
X142047686Y-102454529D01*
X163158714Y-109347000D02*
X162795857Y-109601000D01*
X163158714Y-109782428D02*
X162396714Y-109782428D01*
X162396714Y-109492143D01*
X162433000Y-109419571D01*
X162469286Y-109383286D01*
X162541857Y-109347000D01*
X162650714Y-109347000D01*
X162723286Y-109383286D01*
X162759571Y-109419571D01*
X162795857Y-109492143D01*
X162795857Y-109782428D01*
X162469286Y-109056714D02*
X162433000Y-109020428D01*
X162396714Y-108947857D01*
X162396714Y-108766428D01*
X162433000Y-108693857D01*
X162469286Y-108657571D01*
X162541857Y-108621286D01*
X162614429Y-108621286D01*
X162723286Y-108657571D01*
X163158714Y-109093000D01*
X163158714Y-108621286D01*
X144068800Y-112727014D02*
X143814800Y-112364157D01*
X143633372Y-112727014D02*
X143633372Y-111965014D01*
X143923657Y-111965014D01*
X143996229Y-112001300D01*
X144032514Y-112037586D01*
X144068800Y-112110157D01*
X144068800Y-112219014D01*
X144032514Y-112291586D01*
X143996229Y-112327871D01*
X143923657Y-112364157D01*
X143633372Y-112364157D01*
X144322800Y-111965014D02*
X144794514Y-111965014D01*
X144540514Y-112255300D01*
X144649372Y-112255300D01*
X144721943Y-112291586D01*
X144758229Y-112327871D01*
X144794514Y-112400443D01*
X144794514Y-112581871D01*
X144758229Y-112654443D01*
X144721943Y-112690729D01*
X144649372Y-112727014D01*
X144431657Y-112727014D01*
X144359086Y-112690729D01*
X144322800Y-112654443D01*
X145113829Y-102984386D02*
X145041257Y-102948100D01*
X144968686Y-102875529D01*
X144859829Y-102766671D01*
X144787257Y-102730386D01*
X144714686Y-102730386D01*
X144750971Y-102911814D02*
X144678400Y-102875529D01*
X144605829Y-102802957D01*
X144569543Y-102657814D01*
X144569543Y-102403814D01*
X144605829Y-102258671D01*
X144678400Y-102186100D01*
X144750971Y-102149814D01*
X144896114Y-102149814D01*
X144968686Y-102186100D01*
X145041257Y-102258671D01*
X145077543Y-102403814D01*
X145077543Y-102657814D01*
X145041257Y-102802957D01*
X144968686Y-102875529D01*
X144896114Y-102911814D01*
X144750971Y-102911814D01*
X145803257Y-102911814D02*
X145367829Y-102911814D01*
X145585543Y-102911814D02*
X145585543Y-102149814D01*
X145512972Y-102258671D01*
X145440400Y-102331243D01*
X145367829Y-102367529D01*
X160618714Y-109169200D02*
X160255857Y-109423200D01*
X160618714Y-109604628D02*
X159856714Y-109604628D01*
X159856714Y-109314343D01*
X159893000Y-109241771D01*
X159929286Y-109205486D01*
X160001857Y-109169200D01*
X160110714Y-109169200D01*
X160183286Y-109205486D01*
X160219571Y-109241771D01*
X160255857Y-109314343D01*
X160255857Y-109604628D01*
X160110714Y-108516057D02*
X160618714Y-108516057D01*
X159820429Y-108697486D02*
X160364714Y-108878914D01*
X160364714Y-108407200D01*
M02*
