M48
;DRILL file {KiCad 4.0.7} date 10/30/17 19:48:05
;FORMAT={2:4/ absolute / inch / suppress leading zeros}
FMAT,2
INCH,TZ
T1C0.030
T2C0.039
T3C0.126
%
G90
G05
M72
T1
X55106Y-35827
X55106Y-45827
X56106Y-35827
X56106Y-45827
X57106Y-35827
X58106Y-35827
X59106Y-35827
X60106Y-35827
X61106Y-35827
X62106Y-35827
X63106Y-35827
X63106Y-45827
X64106Y-35827
X64106Y-45827
T2
X56992Y-38976
X57992Y-38976
X58992Y-38976
X59992Y-38976
X60992Y-38976
X61992Y-38976
X62992Y-38976
T3
X53937Y-41339
X65354Y-41339
T0
M30
