M48
; DRILL file {KiCad (5.1.6-0)} date Tuesday, October 20, 2020 at 09:46:23 PM
; FORMAT={-:-/ absolute / inch / decimal}
; #@! TF.CreationDate,2020-10-20T21:46:23+02:00
; #@! TF.GenerationSoftware,Kicad,Pcbnew,(5.1.6-0)
FMAT,2
INCH
T1C0.0130
T2C0.0300
T3C0.0394
%
G90
G05
T1
X6.4764Y-3.937
X6.6535Y-4.3898
T2
X5.5106Y-3.5827
X5.5106Y-4.5827
X5.6106Y-3.5827
X5.6106Y-4.5827
X5.7106Y-3.5827
X5.8106Y-3.5827
X5.9106Y-3.5827
X6.0106Y-3.5827
X6.1106Y-3.5827
X6.2106Y-3.5827
X6.3106Y-3.5827
X6.3106Y-4.5827
X6.4106Y-3.5827
X6.4106Y-4.5827
T3
X5.6102Y-3.7339
X5.6102Y-3.8339
X5.6102Y-3.9339
X5.6102Y-4.0339
X5.6102Y-4.1339
X5.6102Y-4.2339
X5.6102Y-4.3339
T0
M30
