%TF.GenerationSoftware,KiCad,Pcbnew,(5.1.6-0)*%
%TF.CreationDate,2020-10-20T21:46:17+02:00*%
%TF.ProjectId,DisplayAdapter_DOGS104,44697370-6c61-4794-9164-61707465725f,rev?*%
%TF.SameCoordinates,Original*%
%TF.FileFunction,Legend,Top*%
%TF.FilePolarity,Positive*%
%FSLAX46Y46*%
G04 Gerber Fmt 4.6, Leading zero omitted, Abs format (unit mm)*
G04 Created by KiCad (PCBNEW (5.1.6-0)) date 2020-10-20 21:46:17*
%MOMM*%
%LPD*%
G01*
G04 APERTURE LIST*
%ADD10C,0.127000*%
%ADD11C,0.076200*%
%ADD12C,0.100000*%
%ADD13C,0.120000*%
%ADD14C,0.150000*%
G04 APERTURE END LIST*
D10*
X144582550Y-94166260D02*
X145344550Y-94166260D01*
X145199407Y-95224714D02*
X144945407Y-94861857D01*
X144763978Y-95224714D02*
X144763978Y-94462714D01*
X145054264Y-94462714D01*
X145126835Y-94499000D01*
X145163121Y-94535285D01*
X145199407Y-94607857D01*
X145199407Y-94716714D01*
X145163121Y-94789285D01*
X145126835Y-94825571D01*
X145054264Y-94861857D01*
X144763978Y-94861857D01*
X145344550Y-94166260D02*
X146033978Y-94166260D01*
X145525978Y-94825571D02*
X145779978Y-94825571D01*
X145888835Y-95224714D02*
X145525978Y-95224714D01*
X145525978Y-94462714D01*
X145888835Y-94462714D01*
X146033978Y-94166260D02*
X146759692Y-94166260D01*
X146179121Y-95188428D02*
X146287978Y-95224714D01*
X146469407Y-95224714D01*
X146541978Y-95188428D01*
X146578264Y-95152142D01*
X146614550Y-95079571D01*
X146614550Y-95007000D01*
X146578264Y-94934428D01*
X146541978Y-94898142D01*
X146469407Y-94861857D01*
X146324264Y-94825571D01*
X146251692Y-94789285D01*
X146215407Y-94753000D01*
X146179121Y-94680428D01*
X146179121Y-94607857D01*
X146215407Y-94535285D01*
X146251692Y-94499000D01*
X146324264Y-94462714D01*
X146505692Y-94462714D01*
X146614550Y-94499000D01*
X146759692Y-94166260D02*
X147449121Y-94166260D01*
X146941121Y-94825571D02*
X147195121Y-94825571D01*
X147303978Y-95224714D02*
X146941121Y-95224714D01*
X146941121Y-94462714D01*
X147303978Y-94462714D01*
X147449121Y-94166260D02*
X148029692Y-94166260D01*
X147521692Y-94462714D02*
X147957121Y-94462714D01*
X147739407Y-95224714D02*
X147739407Y-94462714D01*
X145163121Y-97039000D02*
X145090550Y-97002714D01*
X144981692Y-97002714D01*
X144872835Y-97039000D01*
X144800264Y-97111571D01*
X144763978Y-97184142D01*
X144727692Y-97329285D01*
X144727692Y-97438142D01*
X144763978Y-97583285D01*
X144800264Y-97655857D01*
X144872835Y-97728428D01*
X144981692Y-97764714D01*
X145054264Y-97764714D01*
X145163121Y-97728428D01*
X145199407Y-97692142D01*
X145199407Y-97438142D01*
X145054264Y-97438142D01*
X145525978Y-97764714D02*
X145525978Y-97002714D01*
X145961407Y-97764714D01*
X145961407Y-97002714D01*
X146324264Y-97764714D02*
X146324264Y-97002714D01*
X146505692Y-97002714D01*
X146614550Y-97039000D01*
X146687121Y-97111571D01*
X146723407Y-97184142D01*
X146759692Y-97329285D01*
X146759692Y-97438142D01*
X146723407Y-97583285D01*
X146687121Y-97655857D01*
X146614550Y-97728428D01*
X146505692Y-97764714D01*
X146324264Y-97764714D01*
X144582550Y-99246260D02*
X145344550Y-99246260D01*
X145199407Y-100232142D02*
X145163121Y-100268428D01*
X145054264Y-100304714D01*
X144981692Y-100304714D01*
X144872835Y-100268428D01*
X144800264Y-100195857D01*
X144763978Y-100123285D01*
X144727692Y-99978142D01*
X144727692Y-99869285D01*
X144763978Y-99724142D01*
X144800264Y-99651571D01*
X144872835Y-99579000D01*
X144981692Y-99542714D01*
X145054264Y-99542714D01*
X145163121Y-99579000D01*
X145199407Y-99615285D01*
X145344550Y-99246260D02*
X146070264Y-99246260D01*
X145489692Y-100268428D02*
X145598550Y-100304714D01*
X145779978Y-100304714D01*
X145852550Y-100268428D01*
X145888835Y-100232142D01*
X145925121Y-100159571D01*
X145925121Y-100087000D01*
X145888835Y-100014428D01*
X145852550Y-99978142D01*
X145779978Y-99941857D01*
X145634835Y-99905571D01*
X145562264Y-99869285D01*
X145525978Y-99833000D01*
X145489692Y-99760428D01*
X145489692Y-99687857D01*
X145525978Y-99615285D01*
X145562264Y-99579000D01*
X145634835Y-99542714D01*
X145816264Y-99542714D01*
X145925121Y-99579000D01*
X145199407Y-102772142D02*
X145163121Y-102808428D01*
X145054264Y-102844714D01*
X144981692Y-102844714D01*
X144872835Y-102808428D01*
X144800264Y-102735857D01*
X144763978Y-102663285D01*
X144727692Y-102518142D01*
X144727692Y-102409285D01*
X144763978Y-102264142D01*
X144800264Y-102191571D01*
X144872835Y-102119000D01*
X144981692Y-102082714D01*
X145054264Y-102082714D01*
X145163121Y-102119000D01*
X145199407Y-102155285D01*
X145888835Y-102844714D02*
X145525978Y-102844714D01*
X145525978Y-102082714D01*
X146142835Y-102844714D02*
X146142835Y-102082714D01*
X146578264Y-102844714D02*
X146251692Y-102409285D01*
X146578264Y-102082714D02*
X146142835Y-102518142D01*
X144763978Y-105384714D02*
X144763978Y-104622714D01*
X145017978Y-105167000D01*
X145271978Y-104622714D01*
X145271978Y-105384714D01*
X145779978Y-104622714D02*
X145925121Y-104622714D01*
X145997692Y-104659000D01*
X146070264Y-104731571D01*
X146106550Y-104876714D01*
X146106550Y-105130714D01*
X146070264Y-105275857D01*
X145997692Y-105348428D01*
X145925121Y-105384714D01*
X145779978Y-105384714D01*
X145707407Y-105348428D01*
X145634835Y-105275857D01*
X145598550Y-105130714D01*
X145598550Y-104876714D01*
X145634835Y-104731571D01*
X145707407Y-104659000D01*
X145779978Y-104622714D01*
X146396835Y-105348428D02*
X146505692Y-105384714D01*
X146687121Y-105384714D01*
X146759692Y-105348428D01*
X146795978Y-105312142D01*
X146832264Y-105239571D01*
X146832264Y-105167000D01*
X146795978Y-105094428D01*
X146759692Y-105058142D01*
X146687121Y-105021857D01*
X146541978Y-104985571D01*
X146469407Y-104949285D01*
X146433121Y-104913000D01*
X146396835Y-104840428D01*
X146396835Y-104767857D01*
X146433121Y-104695285D01*
X146469407Y-104659000D01*
X146541978Y-104622714D01*
X146723407Y-104622714D01*
X146832264Y-104659000D01*
X147158835Y-105384714D02*
X147158835Y-104622714D01*
X144763978Y-107924714D02*
X144763978Y-107162714D01*
X145017978Y-107707000D01*
X145271978Y-107162714D01*
X145271978Y-107924714D01*
X145634835Y-107924714D02*
X145634835Y-107162714D01*
X145961407Y-107888428D02*
X146070264Y-107924714D01*
X146251692Y-107924714D01*
X146324264Y-107888428D01*
X146360550Y-107852142D01*
X146396835Y-107779571D01*
X146396835Y-107707000D01*
X146360550Y-107634428D01*
X146324264Y-107598142D01*
X146251692Y-107561857D01*
X146106550Y-107525571D01*
X146033978Y-107489285D01*
X145997692Y-107453000D01*
X145961407Y-107380428D01*
X145961407Y-107307857D01*
X145997692Y-107235285D01*
X146033978Y-107199000D01*
X146106550Y-107162714D01*
X146287978Y-107162714D01*
X146396835Y-107199000D01*
X146868550Y-107162714D02*
X147013692Y-107162714D01*
X147086264Y-107199000D01*
X147158835Y-107271571D01*
X147195121Y-107416714D01*
X147195121Y-107670714D01*
X147158835Y-107815857D01*
X147086264Y-107888428D01*
X147013692Y-107924714D01*
X146868550Y-107924714D01*
X146795978Y-107888428D01*
X146723407Y-107815857D01*
X146687121Y-107670714D01*
X146687121Y-107416714D01*
X146723407Y-107271571D01*
X146795978Y-107199000D01*
X146868550Y-107162714D01*
X144655121Y-109702714D02*
X144909121Y-110464714D01*
X145163121Y-109702714D01*
X145743692Y-110464714D02*
X145743692Y-109702714D01*
X145743692Y-110428428D02*
X145671121Y-110464714D01*
X145525978Y-110464714D01*
X145453407Y-110428428D01*
X145417121Y-110392142D01*
X145380835Y-110319571D01*
X145380835Y-110101857D01*
X145417121Y-110029285D01*
X145453407Y-109993000D01*
X145525978Y-109956714D01*
X145671121Y-109956714D01*
X145743692Y-109993000D01*
X146433121Y-110464714D02*
X146433121Y-109702714D01*
X146433121Y-110428428D02*
X146360550Y-110464714D01*
X146215407Y-110464714D01*
X146142835Y-110428428D01*
X146106550Y-110392142D01*
X146070264Y-110319571D01*
X146070264Y-110101857D01*
X146106550Y-110029285D01*
X146142835Y-109993000D01*
X146215407Y-109956714D01*
X146360550Y-109956714D01*
X146433121Y-109993000D01*
X137470307Y-94166260D02*
X138232307Y-94166260D01*
X138087164Y-95224714D02*
X137833164Y-94861857D01*
X137651735Y-95224714D02*
X137651735Y-94462714D01*
X137942021Y-94462714D01*
X138014592Y-94499000D01*
X138050878Y-94535285D01*
X138087164Y-94607857D01*
X138087164Y-94716714D01*
X138050878Y-94789285D01*
X138014592Y-94825571D01*
X137942021Y-94861857D01*
X137651735Y-94861857D01*
X138232307Y-94166260D02*
X138921735Y-94166260D01*
X138413735Y-94825571D02*
X138667735Y-94825571D01*
X138776592Y-95224714D02*
X138413735Y-95224714D01*
X138413735Y-94462714D01*
X138776592Y-94462714D01*
X138921735Y-94166260D02*
X139647450Y-94166260D01*
X139066878Y-95188428D02*
X139175735Y-95224714D01*
X139357164Y-95224714D01*
X139429735Y-95188428D01*
X139466021Y-95152142D01*
X139502307Y-95079571D01*
X139502307Y-95007000D01*
X139466021Y-94934428D01*
X139429735Y-94898142D01*
X139357164Y-94861857D01*
X139212021Y-94825571D01*
X139139450Y-94789285D01*
X139103164Y-94753000D01*
X139066878Y-94680428D01*
X139066878Y-94607857D01*
X139103164Y-94535285D01*
X139139450Y-94499000D01*
X139212021Y-94462714D01*
X139393450Y-94462714D01*
X139502307Y-94499000D01*
X139647450Y-94166260D02*
X140336878Y-94166260D01*
X139828878Y-94825571D02*
X140082878Y-94825571D01*
X140191735Y-95224714D02*
X139828878Y-95224714D01*
X139828878Y-94462714D01*
X140191735Y-94462714D01*
X140336878Y-94166260D02*
X140917450Y-94166260D01*
X140409450Y-94462714D02*
X140844878Y-94462714D01*
X140627164Y-95224714D02*
X140627164Y-94462714D01*
X139175735Y-97039000D02*
X139103164Y-97002714D01*
X138994307Y-97002714D01*
X138885450Y-97039000D01*
X138812878Y-97111571D01*
X138776592Y-97184142D01*
X138740307Y-97329285D01*
X138740307Y-97438142D01*
X138776592Y-97583285D01*
X138812878Y-97655857D01*
X138885450Y-97728428D01*
X138994307Y-97764714D01*
X139066878Y-97764714D01*
X139175735Y-97728428D01*
X139212021Y-97692142D01*
X139212021Y-97438142D01*
X139066878Y-97438142D01*
X139538592Y-97764714D02*
X139538592Y-97002714D01*
X139974021Y-97764714D01*
X139974021Y-97002714D01*
X140336878Y-97764714D02*
X140336878Y-97002714D01*
X140518307Y-97002714D01*
X140627164Y-97039000D01*
X140699735Y-97111571D01*
X140736021Y-97184142D01*
X140772307Y-97329285D01*
X140772307Y-97438142D01*
X140736021Y-97583285D01*
X140699735Y-97655857D01*
X140627164Y-97728428D01*
X140518307Y-97764714D01*
X140336878Y-97764714D01*
X139429735Y-99246260D02*
X140191735Y-99246260D01*
X140046592Y-100232142D02*
X140010307Y-100268428D01*
X139901450Y-100304714D01*
X139828878Y-100304714D01*
X139720021Y-100268428D01*
X139647450Y-100195857D01*
X139611164Y-100123285D01*
X139574878Y-99978142D01*
X139574878Y-99869285D01*
X139611164Y-99724142D01*
X139647450Y-99651571D01*
X139720021Y-99579000D01*
X139828878Y-99542714D01*
X139901450Y-99542714D01*
X140010307Y-99579000D01*
X140046592Y-99615285D01*
X140191735Y-99246260D02*
X140917450Y-99246260D01*
X140336878Y-100268428D02*
X140445735Y-100304714D01*
X140627164Y-100304714D01*
X140699735Y-100268428D01*
X140736021Y-100232142D01*
X140772307Y-100159571D01*
X140772307Y-100087000D01*
X140736021Y-100014428D01*
X140699735Y-99978142D01*
X140627164Y-99941857D01*
X140482021Y-99905571D01*
X140409450Y-99869285D01*
X140373164Y-99833000D01*
X140336878Y-99760428D01*
X140336878Y-99687857D01*
X140373164Y-99615285D01*
X140409450Y-99579000D01*
X140482021Y-99542714D01*
X140663450Y-99542714D01*
X140772307Y-99579000D01*
X139393450Y-102772142D02*
X139357164Y-102808428D01*
X139248307Y-102844714D01*
X139175735Y-102844714D01*
X139066878Y-102808428D01*
X138994307Y-102735857D01*
X138958021Y-102663285D01*
X138921735Y-102518142D01*
X138921735Y-102409285D01*
X138958021Y-102264142D01*
X138994307Y-102191571D01*
X139066878Y-102119000D01*
X139175735Y-102082714D01*
X139248307Y-102082714D01*
X139357164Y-102119000D01*
X139393450Y-102155285D01*
X140082878Y-102844714D02*
X139720021Y-102844714D01*
X139720021Y-102082714D01*
X140336878Y-102844714D02*
X140336878Y-102082714D01*
X140772307Y-102844714D02*
X140445735Y-102409285D01*
X140772307Y-102082714D02*
X140336878Y-102518142D01*
X138341164Y-105384714D02*
X138341164Y-104622714D01*
X138595164Y-105167000D01*
X138849164Y-104622714D01*
X138849164Y-105384714D01*
X139357164Y-104622714D02*
X139502307Y-104622714D01*
X139574878Y-104659000D01*
X139647450Y-104731571D01*
X139683735Y-104876714D01*
X139683735Y-105130714D01*
X139647450Y-105275857D01*
X139574878Y-105348428D01*
X139502307Y-105384714D01*
X139357164Y-105384714D01*
X139284592Y-105348428D01*
X139212021Y-105275857D01*
X139175735Y-105130714D01*
X139175735Y-104876714D01*
X139212021Y-104731571D01*
X139284592Y-104659000D01*
X139357164Y-104622714D01*
X139974021Y-105348428D02*
X140082878Y-105384714D01*
X140264307Y-105384714D01*
X140336878Y-105348428D01*
X140373164Y-105312142D01*
X140409450Y-105239571D01*
X140409450Y-105167000D01*
X140373164Y-105094428D01*
X140336878Y-105058142D01*
X140264307Y-105021857D01*
X140119164Y-104985571D01*
X140046592Y-104949285D01*
X140010307Y-104913000D01*
X139974021Y-104840428D01*
X139974021Y-104767857D01*
X140010307Y-104695285D01*
X140046592Y-104659000D01*
X140119164Y-104622714D01*
X140300592Y-104622714D01*
X140409450Y-104659000D01*
X140736021Y-105384714D02*
X140736021Y-104622714D01*
X138341164Y-107924714D02*
X138341164Y-107162714D01*
X138595164Y-107707000D01*
X138849164Y-107162714D01*
X138849164Y-107924714D01*
X139212021Y-107924714D02*
X139212021Y-107162714D01*
X139538592Y-107888428D02*
X139647450Y-107924714D01*
X139828878Y-107924714D01*
X139901450Y-107888428D01*
X139937735Y-107852142D01*
X139974021Y-107779571D01*
X139974021Y-107707000D01*
X139937735Y-107634428D01*
X139901450Y-107598142D01*
X139828878Y-107561857D01*
X139683735Y-107525571D01*
X139611164Y-107489285D01*
X139574878Y-107453000D01*
X139538592Y-107380428D01*
X139538592Y-107307857D01*
X139574878Y-107235285D01*
X139611164Y-107199000D01*
X139683735Y-107162714D01*
X139865164Y-107162714D01*
X139974021Y-107199000D01*
X140445735Y-107162714D02*
X140590878Y-107162714D01*
X140663450Y-107199000D01*
X140736021Y-107271571D01*
X140772307Y-107416714D01*
X140772307Y-107670714D01*
X140736021Y-107815857D01*
X140663450Y-107888428D01*
X140590878Y-107924714D01*
X140445735Y-107924714D01*
X140373164Y-107888428D01*
X140300592Y-107815857D01*
X140264307Y-107670714D01*
X140264307Y-107416714D01*
X140300592Y-107271571D01*
X140373164Y-107199000D01*
X140445735Y-107162714D01*
X138958021Y-109702714D02*
X139212021Y-110464714D01*
X139466021Y-109702714D01*
X140046592Y-110464714D02*
X140046592Y-109702714D01*
X140046592Y-110428428D02*
X139974021Y-110464714D01*
X139828878Y-110464714D01*
X139756307Y-110428428D01*
X139720021Y-110392142D01*
X139683735Y-110319571D01*
X139683735Y-110101857D01*
X139720021Y-110029285D01*
X139756307Y-109993000D01*
X139828878Y-109956714D01*
X139974021Y-109956714D01*
X140046592Y-109993000D01*
X140736021Y-110464714D02*
X140736021Y-109702714D01*
X140736021Y-110428428D02*
X140663450Y-110464714D01*
X140518307Y-110464714D01*
X140445735Y-110428428D01*
X140409450Y-110392142D01*
X140373164Y-110319571D01*
X140373164Y-110101857D01*
X140409450Y-110029285D01*
X140445735Y-109993000D01*
X140518307Y-109956714D01*
X140663450Y-109956714D01*
X140736021Y-109993000D01*
X161219857Y-101808428D02*
X161328714Y-101844714D01*
X161510142Y-101844714D01*
X161582714Y-101808428D01*
X161619000Y-101772142D01*
X161655285Y-101699571D01*
X161655285Y-101627000D01*
X161619000Y-101554428D01*
X161582714Y-101518142D01*
X161510142Y-101481857D01*
X161365000Y-101445571D01*
X161292428Y-101409285D01*
X161256142Y-101373000D01*
X161219857Y-101300428D01*
X161219857Y-101227857D01*
X161256142Y-101155285D01*
X161292428Y-101119000D01*
X161365000Y-101082714D01*
X161546428Y-101082714D01*
X161655285Y-101119000D01*
X161981857Y-101844714D02*
X161981857Y-101082714D01*
X162272142Y-101082714D01*
X162344714Y-101119000D01*
X162381000Y-101155285D01*
X162417285Y-101227857D01*
X162417285Y-101336714D01*
X162381000Y-101409285D01*
X162344714Y-101445571D01*
X162272142Y-101481857D01*
X161981857Y-101481857D01*
X162743857Y-101844714D02*
X162743857Y-101082714D01*
X157437571Y-101844714D02*
X157437571Y-101082714D01*
X157800428Y-101844714D02*
X157800428Y-101082714D01*
X158598714Y-101772142D02*
X158562428Y-101808428D01*
X158453571Y-101844714D01*
X158381000Y-101844714D01*
X158272142Y-101808428D01*
X158199571Y-101735857D01*
X158163285Y-101663285D01*
X158127000Y-101518142D01*
X158127000Y-101409285D01*
X158163285Y-101264142D01*
X158199571Y-101191571D01*
X158272142Y-101119000D01*
X158381000Y-101082714D01*
X158453571Y-101082714D01*
X158562428Y-101119000D01*
X158598714Y-101155285D01*
D11*
X155460768Y-108891609D02*
X155291434Y-108649704D01*
X155170482Y-108891609D02*
X155170482Y-108383609D01*
X155364006Y-108383609D01*
X155412387Y-108407800D01*
X155436577Y-108431990D01*
X155460768Y-108480371D01*
X155460768Y-108552942D01*
X155436577Y-108601323D01*
X155412387Y-108625514D01*
X155364006Y-108649704D01*
X155170482Y-108649704D01*
X155630101Y-108383609D02*
X155944577Y-108383609D01*
X155775244Y-108577133D01*
X155847815Y-108577133D01*
X155896196Y-108601323D01*
X155920387Y-108625514D01*
X155944577Y-108673895D01*
X155944577Y-108794847D01*
X155920387Y-108843228D01*
X155896196Y-108867419D01*
X155847815Y-108891609D01*
X155702672Y-108891609D01*
X155654291Y-108867419D01*
X155630101Y-108843228D01*
X156549339Y-108698085D02*
X156936387Y-108698085D01*
X155170482Y-109729809D02*
X155170482Y-109221809D01*
X155460768Y-109729809D01*
X155460768Y-109221809D01*
X155799434Y-109221809D02*
X155896196Y-109221809D01*
X155944577Y-109246000D01*
X155992958Y-109294380D01*
X156017149Y-109391142D01*
X156017149Y-109560476D01*
X155992958Y-109657238D01*
X155944577Y-109705619D01*
X155896196Y-109729809D01*
X155799434Y-109729809D01*
X155751053Y-109705619D01*
X155702672Y-109657238D01*
X155678482Y-109560476D01*
X155678482Y-109391142D01*
X155702672Y-109294380D01*
X155751053Y-109246000D01*
X155799434Y-109221809D01*
X156234863Y-109729809D02*
X156234863Y-109221809D01*
X156428387Y-109221809D01*
X156476768Y-109246000D01*
X156500958Y-109270190D01*
X156525149Y-109318571D01*
X156525149Y-109391142D01*
X156500958Y-109439523D01*
X156476768Y-109463714D01*
X156428387Y-109487904D01*
X156234863Y-109487904D01*
X156839625Y-109221809D02*
X156936387Y-109221809D01*
X156984768Y-109246000D01*
X157033149Y-109294380D01*
X157057339Y-109391142D01*
X157057339Y-109560476D01*
X157033149Y-109657238D01*
X156984768Y-109705619D01*
X156936387Y-109729809D01*
X156839625Y-109729809D01*
X156791244Y-109705619D01*
X156742863Y-109657238D01*
X156718672Y-109560476D01*
X156718672Y-109391142D01*
X156742863Y-109294380D01*
X156791244Y-109246000D01*
X156839625Y-109221809D01*
X157275053Y-109729809D02*
X157275053Y-109221809D01*
X157468577Y-109221809D01*
X157516958Y-109246000D01*
X157541149Y-109270190D01*
X157565339Y-109318571D01*
X157565339Y-109391142D01*
X157541149Y-109439523D01*
X157516958Y-109463714D01*
X157468577Y-109487904D01*
X157275053Y-109487904D01*
X155097910Y-110229342D02*
X155291434Y-110229342D01*
X155170482Y-110568009D02*
X155170482Y-110132580D01*
X155194672Y-110084200D01*
X155243053Y-110060009D01*
X155291434Y-110060009D01*
X155533339Y-110568009D02*
X155484958Y-110543819D01*
X155460768Y-110519628D01*
X155436577Y-110471247D01*
X155436577Y-110326104D01*
X155460768Y-110277723D01*
X155484958Y-110253533D01*
X155533339Y-110229342D01*
X155605910Y-110229342D01*
X155654291Y-110253533D01*
X155678482Y-110277723D01*
X155702672Y-110326104D01*
X155702672Y-110471247D01*
X155678482Y-110519628D01*
X155654291Y-110543819D01*
X155605910Y-110568009D01*
X155533339Y-110568009D01*
X155920387Y-110568009D02*
X155920387Y-110229342D01*
X155920387Y-110326104D02*
X155944577Y-110277723D01*
X155968768Y-110253533D01*
X156017149Y-110229342D01*
X156065530Y-110229342D01*
X156597720Y-110422866D02*
X156839625Y-110422866D01*
X156549339Y-110568009D02*
X156718672Y-110060009D01*
X156888006Y-110568009D01*
X157057339Y-110568009D02*
X157057339Y-110229342D01*
X157057339Y-110277723D02*
X157081530Y-110253533D01*
X157129910Y-110229342D01*
X157202482Y-110229342D01*
X157250863Y-110253533D01*
X157275053Y-110301914D01*
X157275053Y-110568009D01*
X157275053Y-110301914D02*
X157299244Y-110253533D01*
X157347625Y-110229342D01*
X157420196Y-110229342D01*
X157468577Y-110253533D01*
X157492768Y-110301914D01*
X157492768Y-110568009D01*
X157734672Y-110568009D02*
X157734672Y-110060009D01*
X157734672Y-110253533D02*
X157783053Y-110229342D01*
X157879815Y-110229342D01*
X157928196Y-110253533D01*
X157952387Y-110277723D01*
X157976577Y-110326104D01*
X157976577Y-110471247D01*
X157952387Y-110519628D01*
X157928196Y-110543819D01*
X157879815Y-110568009D01*
X157783053Y-110568009D01*
X157734672Y-110543819D01*
X158387815Y-110543819D02*
X158339434Y-110568009D01*
X158242672Y-110568009D01*
X158194291Y-110543819D01*
X158170101Y-110495438D01*
X158170101Y-110301914D01*
X158194291Y-110253533D01*
X158242672Y-110229342D01*
X158339434Y-110229342D01*
X158387815Y-110253533D01*
X158412006Y-110301914D01*
X158412006Y-110350295D01*
X158170101Y-110398676D01*
X158629720Y-110568009D02*
X158629720Y-110229342D01*
X158629720Y-110326104D02*
X158653910Y-110277723D01*
X158678101Y-110253533D01*
X158726482Y-110229342D01*
X158774863Y-110229342D01*
D10*
X165403428Y-112627000D02*
X165766285Y-112627000D01*
X165330857Y-112844714D02*
X165584857Y-112082714D01*
X165838857Y-112844714D01*
X166092857Y-112844714D02*
X166092857Y-112336714D01*
X166092857Y-112409285D02*
X166129142Y-112373000D01*
X166201714Y-112336714D01*
X166310571Y-112336714D01*
X166383142Y-112373000D01*
X166419428Y-112445571D01*
X166419428Y-112844714D01*
X166419428Y-112445571D02*
X166455714Y-112373000D01*
X166528285Y-112336714D01*
X166637142Y-112336714D01*
X166709714Y-112373000D01*
X166746000Y-112445571D01*
X166746000Y-112844714D01*
X167108857Y-112844714D02*
X167108857Y-112082714D01*
X167108857Y-112373000D02*
X167181428Y-112336714D01*
X167326571Y-112336714D01*
X167399142Y-112373000D01*
X167435428Y-112409285D01*
X167471714Y-112481857D01*
X167471714Y-112699571D01*
X167435428Y-112772142D01*
X167399142Y-112808428D01*
X167326571Y-112844714D01*
X167181428Y-112844714D01*
X167108857Y-112808428D01*
X168088571Y-112808428D02*
X168016000Y-112844714D01*
X167870857Y-112844714D01*
X167798285Y-112808428D01*
X167762000Y-112735857D01*
X167762000Y-112445571D01*
X167798285Y-112373000D01*
X167870857Y-112336714D01*
X168016000Y-112336714D01*
X168088571Y-112373000D01*
X168124857Y-112445571D01*
X168124857Y-112518142D01*
X167762000Y-112590714D01*
X168451428Y-112844714D02*
X168451428Y-112336714D01*
X168451428Y-112481857D02*
X168487714Y-112409285D01*
X168524000Y-112373000D01*
X168596571Y-112336714D01*
X168669142Y-112336714D01*
X158263978Y-105310571D02*
X158517978Y-105310571D01*
X158626835Y-105709714D02*
X158263978Y-105709714D01*
X158263978Y-104947714D01*
X158626835Y-104947714D01*
X158917121Y-105492000D02*
X159279978Y-105492000D01*
X158844550Y-105709714D02*
X159098550Y-104947714D01*
X159352550Y-105709714D01*
X160187121Y-105709714D02*
X160187121Y-104947714D01*
X160368550Y-104947714D01*
X160477407Y-104984000D01*
X160549978Y-105056571D01*
X160586264Y-105129142D01*
X160622550Y-105274285D01*
X160622550Y-105383142D01*
X160586264Y-105528285D01*
X160549978Y-105600857D01*
X160477407Y-105673428D01*
X160368550Y-105709714D01*
X160187121Y-105709714D01*
X161094264Y-104947714D02*
X161239407Y-104947714D01*
X161311978Y-104984000D01*
X161384550Y-105056571D01*
X161420835Y-105201714D01*
X161420835Y-105455714D01*
X161384550Y-105600857D01*
X161311978Y-105673428D01*
X161239407Y-105709714D01*
X161094264Y-105709714D01*
X161021692Y-105673428D01*
X160949121Y-105600857D01*
X160912835Y-105455714D01*
X160912835Y-105201714D01*
X160949121Y-105056571D01*
X161021692Y-104984000D01*
X161094264Y-104947714D01*
X162146550Y-104984000D02*
X162073978Y-104947714D01*
X161965121Y-104947714D01*
X161856264Y-104984000D01*
X161783692Y-105056571D01*
X161747407Y-105129142D01*
X161711121Y-105274285D01*
X161711121Y-105383142D01*
X161747407Y-105528285D01*
X161783692Y-105600857D01*
X161856264Y-105673428D01*
X161965121Y-105709714D01*
X162037692Y-105709714D01*
X162146550Y-105673428D01*
X162182835Y-105637142D01*
X162182835Y-105383142D01*
X162037692Y-105383142D01*
X162473121Y-105673428D02*
X162581978Y-105709714D01*
X162763407Y-105709714D01*
X162835978Y-105673428D01*
X162872264Y-105637142D01*
X162908550Y-105564571D01*
X162908550Y-105492000D01*
X162872264Y-105419428D01*
X162835978Y-105383142D01*
X162763407Y-105346857D01*
X162618264Y-105310571D01*
X162545692Y-105274285D01*
X162509407Y-105238000D01*
X162473121Y-105165428D01*
X162473121Y-105092857D01*
X162509407Y-105020285D01*
X162545692Y-104984000D01*
X162618264Y-104947714D01*
X162799692Y-104947714D01*
X162908550Y-104984000D01*
X163634264Y-105709714D02*
X163198835Y-105709714D01*
X163416550Y-105709714D02*
X163416550Y-104947714D01*
X163343978Y-105056571D01*
X163271407Y-105129142D01*
X163198835Y-105165428D01*
X164105978Y-104947714D02*
X164178550Y-104947714D01*
X164251121Y-104984000D01*
X164287407Y-105020285D01*
X164323692Y-105092857D01*
X164359978Y-105238000D01*
X164359978Y-105419428D01*
X164323692Y-105564571D01*
X164287407Y-105637142D01*
X164251121Y-105673428D01*
X164178550Y-105709714D01*
X164105978Y-105709714D01*
X164033407Y-105673428D01*
X163997121Y-105637142D01*
X163960835Y-105564571D01*
X163924550Y-105419428D01*
X163924550Y-105238000D01*
X163960835Y-105092857D01*
X163997121Y-105020285D01*
X164033407Y-104984000D01*
X164105978Y-104947714D01*
X165013121Y-105201714D02*
X165013121Y-105709714D01*
X164831692Y-104911428D02*
X164650264Y-105455714D01*
X165121978Y-105455714D01*
X165339692Y-105709714D02*
X165738835Y-105201714D01*
X165339692Y-105201714D02*
X165738835Y-105709714D01*
X166029121Y-105419428D02*
X166609692Y-105419428D01*
X166936264Y-105492000D02*
X167299121Y-105492000D01*
X166863692Y-105709714D02*
X167117692Y-104947714D01*
X167371692Y-105709714D01*
X158227692Y-106943428D02*
X158336550Y-106979714D01*
X158517978Y-106979714D01*
X158590550Y-106943428D01*
X158626835Y-106907142D01*
X158663121Y-106834571D01*
X158663121Y-106762000D01*
X158626835Y-106689428D01*
X158590550Y-106653142D01*
X158517978Y-106616857D01*
X158372835Y-106580571D01*
X158300264Y-106544285D01*
X158263978Y-106508000D01*
X158227692Y-106435428D01*
X158227692Y-106362857D01*
X158263978Y-106290285D01*
X158300264Y-106254000D01*
X158372835Y-106217714D01*
X158554264Y-106217714D01*
X158663121Y-106254000D01*
X158989692Y-106979714D02*
X158989692Y-106217714D01*
X159279978Y-106217714D01*
X159352550Y-106254000D01*
X159388835Y-106290285D01*
X159425121Y-106362857D01*
X159425121Y-106471714D01*
X159388835Y-106544285D01*
X159352550Y-106580571D01*
X159279978Y-106616857D01*
X158989692Y-106616857D01*
X159751692Y-106979714D02*
X159751692Y-106217714D01*
X160658835Y-106762000D02*
X161021692Y-106762000D01*
X160586264Y-106979714D02*
X160840264Y-106217714D01*
X161094264Y-106979714D01*
X161674835Y-106979714D02*
X161674835Y-106217714D01*
X161674835Y-106943428D02*
X161602264Y-106979714D01*
X161457121Y-106979714D01*
X161384550Y-106943428D01*
X161348264Y-106907142D01*
X161311978Y-106834571D01*
X161311978Y-106616857D01*
X161348264Y-106544285D01*
X161384550Y-106508000D01*
X161457121Y-106471714D01*
X161602264Y-106471714D01*
X161674835Y-106508000D01*
X162364264Y-106979714D02*
X162364264Y-106580571D01*
X162327978Y-106508000D01*
X162255407Y-106471714D01*
X162110264Y-106471714D01*
X162037692Y-106508000D01*
X162364264Y-106943428D02*
X162291692Y-106979714D01*
X162110264Y-106979714D01*
X162037692Y-106943428D01*
X162001407Y-106870857D01*
X162001407Y-106798285D01*
X162037692Y-106725714D01*
X162110264Y-106689428D01*
X162291692Y-106689428D01*
X162364264Y-106653142D01*
X162727121Y-106471714D02*
X162727121Y-107233714D01*
X162727121Y-106508000D02*
X162799692Y-106471714D01*
X162944835Y-106471714D01*
X163017407Y-106508000D01*
X163053692Y-106544285D01*
X163089978Y-106616857D01*
X163089978Y-106834571D01*
X163053692Y-106907142D01*
X163017407Y-106943428D01*
X162944835Y-106979714D01*
X162799692Y-106979714D01*
X162727121Y-106943428D01*
X163307692Y-106471714D02*
X163597978Y-106471714D01*
X163416550Y-106217714D02*
X163416550Y-106870857D01*
X163452835Y-106943428D01*
X163525407Y-106979714D01*
X163597978Y-106979714D01*
X164142264Y-106943428D02*
X164069692Y-106979714D01*
X163924550Y-106979714D01*
X163851978Y-106943428D01*
X163815692Y-106870857D01*
X163815692Y-106580571D01*
X163851978Y-106508000D01*
X163924550Y-106471714D01*
X164069692Y-106471714D01*
X164142264Y-106508000D01*
X164178550Y-106580571D01*
X164178550Y-106653142D01*
X163815692Y-106725714D01*
X164505121Y-106979714D02*
X164505121Y-106471714D01*
X164505121Y-106616857D02*
X164541407Y-106544285D01*
X164577692Y-106508000D01*
X164650264Y-106471714D01*
X164722835Y-106471714D01*
X165956550Y-106979714D02*
X165521121Y-106979714D01*
X165738835Y-106979714D02*
X165738835Y-106217714D01*
X165666264Y-106326571D01*
X165593692Y-106399142D01*
X165521121Y-106435428D01*
X166645978Y-106979714D02*
X166283121Y-106979714D01*
X166283121Y-106217714D01*
X166718550Y-107052285D02*
X167299121Y-107052285D01*
X167407978Y-106217714D02*
X167879692Y-106217714D01*
X167625692Y-106508000D01*
X167734550Y-106508000D01*
X167807121Y-106544285D01*
X167843407Y-106580571D01*
X167879692Y-106653142D01*
X167879692Y-106834571D01*
X167843407Y-106907142D01*
X167807121Y-106943428D01*
X167734550Y-106979714D01*
X167516835Y-106979714D01*
X167444264Y-106943428D01*
X167407978Y-106907142D01*
D12*
%TO.C,G\u002A\u002A\u002A*%
G36*
X157304378Y-104256418D02*
G01*
X157302238Y-104850076D01*
X157302000Y-105034945D01*
X157300032Y-105675217D01*
X157293365Y-106165453D01*
X157280856Y-106524914D01*
X157261361Y-106772861D01*
X157233735Y-106928554D01*
X157196835Y-107011252D01*
X157183831Y-107024670D01*
X157016596Y-107096142D01*
X156878667Y-107126474D01*
X156878667Y-106672748D01*
X156878667Y-105079371D01*
X156874611Y-104558909D01*
X156863250Y-104109332D01*
X156845795Y-103755665D01*
X156823453Y-103522937D01*
X156799275Y-103436926D01*
X156687827Y-103406092D01*
X156445552Y-103359619D01*
X156109493Y-103304095D01*
X155762108Y-103252485D01*
X155133640Y-103190536D01*
X154406051Y-103162245D01*
X153636137Y-103166497D01*
X152880692Y-103202179D01*
X152196514Y-103268176D01*
X151798667Y-103330237D01*
X151248333Y-103434859D01*
X151225366Y-105056143D01*
X151202399Y-106677426D01*
X151775699Y-106768198D01*
X152111613Y-106820928D01*
X152416424Y-106868002D01*
X152603000Y-106896091D01*
X152843169Y-106913739D01*
X153214525Y-106920161D01*
X153679383Y-106916617D01*
X154200057Y-106904364D01*
X154738862Y-106884660D01*
X155258112Y-106858761D01*
X155720122Y-106827926D01*
X156087206Y-106793412D01*
X156222500Y-106775306D01*
X156878667Y-106672748D01*
X156878667Y-107126474D01*
X156707275Y-107164166D01*
X156283113Y-107226037D01*
X155771356Y-107279051D01*
X155199249Y-107320504D01*
X154594039Y-107347692D01*
X153982969Y-107357910D01*
X153830667Y-107357483D01*
X153345669Y-107352260D01*
X152906889Y-107344201D01*
X152548154Y-107334183D01*
X152303292Y-107323080D01*
X152222000Y-107315816D01*
X151715428Y-107232236D01*
X151307639Y-107149708D01*
X151022462Y-107073632D01*
X150888500Y-107013674D01*
X150851465Y-106935849D01*
X150823306Y-106760790D01*
X150803198Y-106473075D01*
X150790317Y-106057284D01*
X150783837Y-105497996D01*
X150782667Y-105034945D01*
X150783618Y-104418599D01*
X150787577Y-103950164D01*
X150796200Y-103608224D01*
X150811144Y-103371362D01*
X150834066Y-103218160D01*
X150866622Y-103127203D01*
X150910468Y-103077073D01*
X150935312Y-103061597D01*
X151201200Y-102968179D01*
X151606761Y-102888175D01*
X152122773Y-102822830D01*
X152720015Y-102773389D01*
X153369264Y-102741099D01*
X154041298Y-102727204D01*
X154706896Y-102732950D01*
X155336834Y-102759582D01*
X155901891Y-102808346D01*
X156140193Y-102839783D01*
X156505658Y-102891423D01*
X156785762Y-102936352D01*
X156991766Y-102995847D01*
X157134929Y-103091182D01*
X157226512Y-103243632D01*
X157277775Y-103474471D01*
X157299977Y-103804975D01*
X157304378Y-104256418D01*
G37*
X157304378Y-104256418D02*
X157302238Y-104850076D01*
X157302000Y-105034945D01*
X157300032Y-105675217D01*
X157293365Y-106165453D01*
X157280856Y-106524914D01*
X157261361Y-106772861D01*
X157233735Y-106928554D01*
X157196835Y-107011252D01*
X157183831Y-107024670D01*
X157016596Y-107096142D01*
X156878667Y-107126474D01*
X156878667Y-106672748D01*
X156878667Y-105079371D01*
X156874611Y-104558909D01*
X156863250Y-104109332D01*
X156845795Y-103755665D01*
X156823453Y-103522937D01*
X156799275Y-103436926D01*
X156687827Y-103406092D01*
X156445552Y-103359619D01*
X156109493Y-103304095D01*
X155762108Y-103252485D01*
X155133640Y-103190536D01*
X154406051Y-103162245D01*
X153636137Y-103166497D01*
X152880692Y-103202179D01*
X152196514Y-103268176D01*
X151798667Y-103330237D01*
X151248333Y-103434859D01*
X151225366Y-105056143D01*
X151202399Y-106677426D01*
X151775699Y-106768198D01*
X152111613Y-106820928D01*
X152416424Y-106868002D01*
X152603000Y-106896091D01*
X152843169Y-106913739D01*
X153214525Y-106920161D01*
X153679383Y-106916617D01*
X154200057Y-106904364D01*
X154738862Y-106884660D01*
X155258112Y-106858761D01*
X155720122Y-106827926D01*
X156087206Y-106793412D01*
X156222500Y-106775306D01*
X156878667Y-106672748D01*
X156878667Y-107126474D01*
X156707275Y-107164166D01*
X156283113Y-107226037D01*
X155771356Y-107279051D01*
X155199249Y-107320504D01*
X154594039Y-107347692D01*
X153982969Y-107357910D01*
X153830667Y-107357483D01*
X153345669Y-107352260D01*
X152906889Y-107344201D01*
X152548154Y-107334183D01*
X152303292Y-107323080D01*
X152222000Y-107315816D01*
X151715428Y-107232236D01*
X151307639Y-107149708D01*
X151022462Y-107073632D01*
X150888500Y-107013674D01*
X150851465Y-106935849D01*
X150823306Y-106760790D01*
X150803198Y-106473075D01*
X150790317Y-106057284D01*
X150783837Y-105497996D01*
X150782667Y-105034945D01*
X150783618Y-104418599D01*
X150787577Y-103950164D01*
X150796200Y-103608224D01*
X150811144Y-103371362D01*
X150834066Y-103218160D01*
X150866622Y-103127203D01*
X150910468Y-103077073D01*
X150935312Y-103061597D01*
X151201200Y-102968179D01*
X151606761Y-102888175D01*
X152122773Y-102822830D01*
X152720015Y-102773389D01*
X153369264Y-102741099D01*
X154041298Y-102727204D01*
X154706896Y-102732950D01*
X155336834Y-102759582D01*
X155901891Y-102808346D01*
X156140193Y-102839783D01*
X156505658Y-102891423D01*
X156785762Y-102936352D01*
X156991766Y-102995847D01*
X157134929Y-103091182D01*
X157226512Y-103243632D01*
X157277775Y-103474471D01*
X157299977Y-103804975D01*
X157304378Y-104256418D01*
G36*
X154342670Y-105401396D02*
G01*
X154295189Y-105784950D01*
X154130447Y-106134481D01*
X153856161Y-106403811D01*
X153714903Y-106477168D01*
X153526567Y-106527105D01*
X153255715Y-106558878D01*
X152866911Y-106577742D01*
X152645333Y-106583393D01*
X152248939Y-106587691D01*
X151910647Y-106583729D01*
X151668870Y-106572450D01*
X151565833Y-106556953D01*
X151476971Y-106439885D01*
X151468884Y-106261760D01*
X151536694Y-106107596D01*
X151593925Y-106067391D01*
X151732727Y-106045378D01*
X151996799Y-106028077D01*
X152342093Y-106017813D01*
X152567591Y-106016000D01*
X153049135Y-106000429D01*
X153385671Y-105946481D01*
X153599272Y-105843299D01*
X153712013Y-105680028D01*
X153745967Y-105445811D01*
X153746000Y-105436455D01*
X153679502Y-105172492D01*
X153474858Y-104985644D01*
X153124342Y-104870320D01*
X152922924Y-104840904D01*
X152647361Y-104805063D01*
X152500693Y-104759056D01*
X152442873Y-104681255D01*
X152433667Y-104576666D01*
X152444631Y-104462268D01*
X152502964Y-104395955D01*
X152646824Y-104361166D01*
X152914369Y-104341341D01*
X152984000Y-104337817D01*
X153400280Y-104341844D01*
X153699980Y-104406245D01*
X153794279Y-104448786D01*
X154090942Y-104693094D01*
X154274163Y-105024037D01*
X154342670Y-105401396D01*
G37*
X154342670Y-105401396D02*
X154295189Y-105784950D01*
X154130447Y-106134481D01*
X153856161Y-106403811D01*
X153714903Y-106477168D01*
X153526567Y-106527105D01*
X153255715Y-106558878D01*
X152866911Y-106577742D01*
X152645333Y-106583393D01*
X152248939Y-106587691D01*
X151910647Y-106583729D01*
X151668870Y-106572450D01*
X151565833Y-106556953D01*
X151476971Y-106439885D01*
X151468884Y-106261760D01*
X151536694Y-106107596D01*
X151593925Y-106067391D01*
X151732727Y-106045378D01*
X151996799Y-106028077D01*
X152342093Y-106017813D01*
X152567591Y-106016000D01*
X153049135Y-106000429D01*
X153385671Y-105946481D01*
X153599272Y-105843299D01*
X153712013Y-105680028D01*
X153745967Y-105445811D01*
X153746000Y-105436455D01*
X153679502Y-105172492D01*
X153474858Y-104985644D01*
X153124342Y-104870320D01*
X152922924Y-104840904D01*
X152647361Y-104805063D01*
X152500693Y-104759056D01*
X152442873Y-104681255D01*
X152433667Y-104576666D01*
X152444631Y-104462268D01*
X152502964Y-104395955D01*
X152646824Y-104361166D01*
X152914369Y-104341341D01*
X152984000Y-104337817D01*
X153400280Y-104341844D01*
X153699980Y-104406245D01*
X153794279Y-104448786D01*
X154090942Y-104693094D01*
X154274163Y-105024037D01*
X154342670Y-105401396D01*
G36*
X156539068Y-105492399D02*
G01*
X156519138Y-106015157D01*
X156458339Y-106378069D01*
X156357294Y-106579846D01*
X156216624Y-106619203D01*
X156048933Y-106507066D01*
X155995682Y-106361488D01*
X155961686Y-106054882D01*
X155947676Y-105594537D01*
X155947333Y-105495050D01*
X155938764Y-105097735D01*
X155915630Y-104745407D01*
X155881790Y-104483877D01*
X155853241Y-104378124D01*
X155709675Y-104208654D01*
X155475328Y-104061565D01*
X155429908Y-104042284D01*
X155208838Y-103931786D01*
X155114007Y-103805972D01*
X155100667Y-103700685D01*
X155164639Y-103524243D01*
X155332569Y-103440667D01*
X155568475Y-103447481D01*
X155836374Y-103542205D01*
X156100284Y-103722361D01*
X156154278Y-103773255D01*
X156305560Y-103949985D01*
X156412216Y-104149797D01*
X156481517Y-104405186D01*
X156520737Y-104748649D01*
X156537149Y-105212682D01*
X156539068Y-105492399D01*
G37*
X156539068Y-105492399D02*
X156519138Y-106015157D01*
X156458339Y-106378069D01*
X156357294Y-106579846D01*
X156216624Y-106619203D01*
X156048933Y-106507066D01*
X155995682Y-106361488D01*
X155961686Y-106054882D01*
X155947676Y-105594537D01*
X155947333Y-105495050D01*
X155938764Y-105097735D01*
X155915630Y-104745407D01*
X155881790Y-104483877D01*
X155853241Y-104378124D01*
X155709675Y-104208654D01*
X155475328Y-104061565D01*
X155429908Y-104042284D01*
X155208838Y-103931786D01*
X155114007Y-103805972D01*
X155100667Y-103700685D01*
X155164639Y-103524243D01*
X155332569Y-103440667D01*
X155568475Y-103447481D01*
X155836374Y-103542205D01*
X156100284Y-103722361D01*
X156154278Y-103773255D01*
X156305560Y-103949985D01*
X156412216Y-104149797D01*
X156481517Y-104405186D01*
X156520737Y-104748649D01*
X156537149Y-105212682D01*
X156539068Y-105492399D01*
G36*
X155195199Y-105126520D02*
G01*
X155171174Y-105423519D01*
X155119217Y-105633327D01*
X155058333Y-105707951D01*
X154866305Y-105738023D01*
X154745857Y-105641621D01*
X154687111Y-105404874D01*
X154677333Y-105172909D01*
X154642254Y-104677412D01*
X154534985Y-104327937D01*
X154352479Y-104115931D01*
X154288135Y-104080336D01*
X154110694Y-104037401D01*
X153815586Y-104004319D01*
X153454408Y-103986058D01*
X153287767Y-103984000D01*
X152896142Y-103989548D01*
X152631346Y-104011080D01*
X152451098Y-104055927D01*
X152313114Y-104131422D01*
X152275751Y-104159478D01*
X152096754Y-104388739D01*
X152059202Y-104651950D01*
X152166386Y-104898950D01*
X152223312Y-104958854D01*
X152446206Y-105073454D01*
X152795642Y-105144508D01*
X152879479Y-105152644D01*
X153243848Y-105209077D01*
X153444648Y-105306606D01*
X153482808Y-105446155D01*
X153359257Y-105628647D01*
X153358952Y-105628952D01*
X153161853Y-105726949D01*
X152839223Y-105744715D01*
X152379121Y-105682860D01*
X152362751Y-105679719D01*
X151983002Y-105533080D01*
X151704556Y-105281501D01*
X151531496Y-104958686D01*
X151467901Y-104598335D01*
X151517854Y-104234151D01*
X151685435Y-103899837D01*
X151974726Y-103629094D01*
X152105528Y-103555569D01*
X152288860Y-103476187D01*
X152472289Y-103425824D01*
X152697337Y-103399875D01*
X153005528Y-103393734D01*
X153438384Y-103402796D01*
X153473491Y-103403852D01*
X153966486Y-103426266D01*
X154324435Y-103466823D01*
X154581523Y-103537716D01*
X154771932Y-103651137D01*
X154929845Y-103819277D01*
X155027625Y-103958171D01*
X155107505Y-104158154D01*
X155162582Y-104449259D01*
X155192074Y-104786907D01*
X155195199Y-105126520D01*
G37*
X155195199Y-105126520D02*
X155171174Y-105423519D01*
X155119217Y-105633327D01*
X155058333Y-105707951D01*
X154866305Y-105738023D01*
X154745857Y-105641621D01*
X154687111Y-105404874D01*
X154677333Y-105172909D01*
X154642254Y-104677412D01*
X154534985Y-104327937D01*
X154352479Y-104115931D01*
X154288135Y-104080336D01*
X154110694Y-104037401D01*
X153815586Y-104004319D01*
X153454408Y-103986058D01*
X153287767Y-103984000D01*
X152896142Y-103989548D01*
X152631346Y-104011080D01*
X152451098Y-104055927D01*
X152313114Y-104131422D01*
X152275751Y-104159478D01*
X152096754Y-104388739D01*
X152059202Y-104651950D01*
X152166386Y-104898950D01*
X152223312Y-104958854D01*
X152446206Y-105073454D01*
X152795642Y-105144508D01*
X152879479Y-105152644D01*
X153243848Y-105209077D01*
X153444648Y-105306606D01*
X153482808Y-105446155D01*
X153359257Y-105628647D01*
X153358952Y-105628952D01*
X153161853Y-105726949D01*
X152839223Y-105744715D01*
X152379121Y-105682860D01*
X152362751Y-105679719D01*
X151983002Y-105533080D01*
X151704556Y-105281501D01*
X151531496Y-104958686D01*
X151467901Y-104598335D01*
X151517854Y-104234151D01*
X151685435Y-103899837D01*
X151974726Y-103629094D01*
X152105528Y-103555569D01*
X152288860Y-103476187D01*
X152472289Y-103425824D01*
X152697337Y-103399875D01*
X153005528Y-103393734D01*
X153438384Y-103402796D01*
X153473491Y-103403852D01*
X153966486Y-103426266D01*
X154324435Y-103466823D01*
X154581523Y-103537716D01*
X154771932Y-103651137D01*
X154929845Y-103819277D01*
X155027625Y-103958171D01*
X155107505Y-104158154D01*
X155162582Y-104449259D01*
X155192074Y-104786907D01*
X155195199Y-105126520D01*
D13*
%TO.C,R3*%
X156738748Y-111290000D02*
X157261252Y-111290000D01*
X156738748Y-112710000D02*
X157261252Y-112710000D01*
%TO.C,R2*%
X146261252Y-115210000D02*
X145738748Y-115210000D01*
X146261252Y-113790000D02*
X145738748Y-113790000D01*
%TO.C,R1*%
X156738748Y-113790000D02*
X157261252Y-113790000D01*
X156738748Y-115210000D02*
X157261252Y-115210000D01*
%TO.C,C2*%
X163568748Y-92790000D02*
X164091252Y-92790000D01*
X163568748Y-94210000D02*
X164091252Y-94210000D01*
%TO.C,C1*%
X156761252Y-94210000D02*
X156238748Y-94210000D01*
X156761252Y-92790000D02*
X156238748Y-92790000D01*
%TO.C,JP2*%
X158600000Y-98500000D02*
X161400000Y-98500000D01*
X162050000Y-99200000D02*
X162050000Y-99800000D01*
X161400000Y-100500000D02*
X158600000Y-100500000D01*
X157950000Y-99800000D02*
X157950000Y-99200000D01*
X157950000Y-99200000D02*
G75*
G02*
X158650000Y-98500000I700000J0D01*
G01*
X158650000Y-100500000D02*
G75*
G02*
X157950000Y-99800000I0J700000D01*
G01*
X162050000Y-99800000D02*
G75*
G02*
X161350000Y-100500000I-700000J0D01*
G01*
X161350000Y-98500000D02*
G75*
G02*
X162050000Y-99200000I0J-700000D01*
G01*
D14*
%TO.C,U1*%
X133400000Y-91000000D02*
X133400000Y-116400000D01*
X169400000Y-91000000D02*
X169400000Y-116400000D01*
X169400000Y-91000000D02*
X163800000Y-91000000D01*
X169400000Y-116400000D02*
X163800000Y-116400000D01*
X139000000Y-91000000D02*
X133400000Y-91000000D01*
X139000000Y-116400000D02*
X133400000Y-116400000D01*
X143500000Y-116400000D02*
X159300000Y-116400000D01*
D13*
%TO.C,JP1*%
X168400000Y-114200000D02*
X168400000Y-114800000D01*
X166300000Y-113500000D02*
X167700000Y-113500000D01*
X165600000Y-114800000D02*
X165600000Y-114200000D01*
X167700000Y-115500000D02*
X166300000Y-115500000D01*
X168400000Y-114800000D02*
G75*
G02*
X167700000Y-115500000I-700000J0D01*
G01*
X167700000Y-113500000D02*
G75*
G02*
X168400000Y-114200000I0J-700000D01*
G01*
X165600000Y-114200000D02*
G75*
G02*
X166300000Y-113500000I700000J0D01*
G01*
X166300000Y-115500000D02*
G75*
G02*
X165600000Y-114800000I0J700000D01*
G01*
%TO.C,R3*%
D10*
X154003400Y-112658714D02*
X153749400Y-112295857D01*
X153567971Y-112658714D02*
X153567971Y-111896714D01*
X153858257Y-111896714D01*
X153930828Y-111933000D01*
X153967114Y-111969285D01*
X154003400Y-112041857D01*
X154003400Y-112150714D01*
X153967114Y-112223285D01*
X153930828Y-112259571D01*
X153858257Y-112295857D01*
X153567971Y-112295857D01*
X154257400Y-111896714D02*
X154729114Y-111896714D01*
X154475114Y-112187000D01*
X154583971Y-112187000D01*
X154656542Y-112223285D01*
X154692828Y-112259571D01*
X154729114Y-112332142D01*
X154729114Y-112513571D01*
X154692828Y-112586142D01*
X154656542Y-112622428D01*
X154583971Y-112658714D01*
X154366257Y-112658714D01*
X154293685Y-112622428D01*
X154257400Y-112586142D01*
%TO.C,R2*%
X145873000Y-113344714D02*
X145619000Y-112981857D01*
X145437571Y-113344714D02*
X145437571Y-112582714D01*
X145727857Y-112582714D01*
X145800428Y-112619000D01*
X145836714Y-112655285D01*
X145873000Y-112727857D01*
X145873000Y-112836714D01*
X145836714Y-112909285D01*
X145800428Y-112945571D01*
X145727857Y-112981857D01*
X145437571Y-112981857D01*
X146163285Y-112655285D02*
X146199571Y-112619000D01*
X146272142Y-112582714D01*
X146453571Y-112582714D01*
X146526142Y-112619000D01*
X146562428Y-112655285D01*
X146598714Y-112727857D01*
X146598714Y-112800428D01*
X146562428Y-112909285D01*
X146127000Y-113344714D01*
X146598714Y-113344714D01*
%TO.C,R1*%
X153990700Y-114618714D02*
X153736700Y-114255857D01*
X153555271Y-114618714D02*
X153555271Y-113856714D01*
X153845557Y-113856714D01*
X153918128Y-113893000D01*
X153954414Y-113929285D01*
X153990700Y-114001857D01*
X153990700Y-114110714D01*
X153954414Y-114183285D01*
X153918128Y-114219571D01*
X153845557Y-114255857D01*
X153555271Y-114255857D01*
X154716414Y-114618714D02*
X154280985Y-114618714D01*
X154498700Y-114618714D02*
X154498700Y-113856714D01*
X154426128Y-113965571D01*
X154353557Y-114038142D01*
X154280985Y-114074428D01*
%TO.C,C2*%
X163873000Y-95292142D02*
X163836714Y-95328428D01*
X163727857Y-95364714D01*
X163655285Y-95364714D01*
X163546428Y-95328428D01*
X163473857Y-95255857D01*
X163437571Y-95183285D01*
X163401285Y-95038142D01*
X163401285Y-94929285D01*
X163437571Y-94784142D01*
X163473857Y-94711571D01*
X163546428Y-94639000D01*
X163655285Y-94602714D01*
X163727857Y-94602714D01*
X163836714Y-94639000D01*
X163873000Y-94675285D01*
X164163285Y-94675285D02*
X164199571Y-94639000D01*
X164272142Y-94602714D01*
X164453571Y-94602714D01*
X164526142Y-94639000D01*
X164562428Y-94675285D01*
X164598714Y-94747857D01*
X164598714Y-94820428D01*
X164562428Y-94929285D01*
X164127000Y-95364714D01*
X164598714Y-95364714D01*
%TO.C,C1*%
X156373000Y-95422142D02*
X156336714Y-95458428D01*
X156227857Y-95494714D01*
X156155285Y-95494714D01*
X156046428Y-95458428D01*
X155973857Y-95385857D01*
X155937571Y-95313285D01*
X155901285Y-95168142D01*
X155901285Y-95059285D01*
X155937571Y-94914142D01*
X155973857Y-94841571D01*
X156046428Y-94769000D01*
X156155285Y-94732714D01*
X156227857Y-94732714D01*
X156336714Y-94769000D01*
X156373000Y-94805285D01*
X157098714Y-95494714D02*
X156663285Y-95494714D01*
X156881000Y-95494714D02*
X156881000Y-94732714D01*
X156808428Y-94841571D01*
X156735857Y-94914142D01*
X156663285Y-94950428D01*
%TO.C,JP2*%
X157865000Y-97282714D02*
X157865000Y-97827000D01*
X157828714Y-97935857D01*
X157756142Y-98008428D01*
X157647285Y-98044714D01*
X157574714Y-98044714D01*
X158227857Y-98044714D02*
X158227857Y-97282714D01*
X158518142Y-97282714D01*
X158590714Y-97319000D01*
X158627000Y-97355285D01*
X158663285Y-97427857D01*
X158663285Y-97536714D01*
X158627000Y-97609285D01*
X158590714Y-97645571D01*
X158518142Y-97681857D01*
X158227857Y-97681857D01*
X158953571Y-97355285D02*
X158989857Y-97319000D01*
X159062428Y-97282714D01*
X159243857Y-97282714D01*
X159316428Y-97319000D01*
X159352714Y-97355285D01*
X159389000Y-97427857D01*
X159389000Y-97500428D01*
X159352714Y-97609285D01*
X158917285Y-98044714D01*
X159389000Y-98044714D01*
X157217714Y-99844714D02*
X156782285Y-99844714D01*
X157000000Y-99844714D02*
X157000000Y-99082714D01*
X156927428Y-99191571D01*
X156854857Y-99264142D01*
X156782285Y-99300428D01*
X162746000Y-99082714D02*
X163217714Y-99082714D01*
X162963714Y-99373000D01*
X163072571Y-99373000D01*
X163145142Y-99409285D01*
X163181428Y-99445571D01*
X163217714Y-99518142D01*
X163217714Y-99699571D01*
X163181428Y-99772142D01*
X163145142Y-99808428D01*
X163072571Y-99844714D01*
X162854857Y-99844714D01*
X162782285Y-99808428D01*
X162746000Y-99772142D01*
%TO.C,U1*%
X133419428Y-116882714D02*
X133419428Y-117499571D01*
X133455714Y-117572142D01*
X133492000Y-117608428D01*
X133564571Y-117644714D01*
X133709714Y-117644714D01*
X133782285Y-117608428D01*
X133818571Y-117572142D01*
X133854857Y-117499571D01*
X133854857Y-116882714D01*
X134616857Y-117644714D02*
X134181428Y-117644714D01*
X134399142Y-117644714D02*
X134399142Y-116882714D01*
X134326571Y-116991571D01*
X134254000Y-117064142D01*
X134181428Y-117100428D01*
X140217714Y-114944714D02*
X139782285Y-114944714D01*
X140000000Y-114944714D02*
X140000000Y-114182714D01*
X139927428Y-114291571D01*
X139854857Y-114364142D01*
X139782285Y-114400428D01*
%TO.C,JP1*%
X163365000Y-114332714D02*
X163365000Y-114877000D01*
X163328714Y-114985857D01*
X163256142Y-115058428D01*
X163147285Y-115094714D01*
X163074714Y-115094714D01*
X163727857Y-115094714D02*
X163727857Y-114332714D01*
X164018142Y-114332714D01*
X164090714Y-114369000D01*
X164127000Y-114405285D01*
X164163285Y-114477857D01*
X164163285Y-114586714D01*
X164127000Y-114659285D01*
X164090714Y-114695571D01*
X164018142Y-114731857D01*
X163727857Y-114731857D01*
X164889000Y-115094714D02*
X164453571Y-115094714D01*
X164671285Y-115094714D02*
X164671285Y-114332714D01*
X164598714Y-114441571D01*
X164526142Y-114514142D01*
X164453571Y-114550428D01*
%TD*%
M02*
